<svg width="1920" height="1080" viewBox="0 0 1920 1080" fill="none" xmlns="http://www.w3.org/2000/svg">
<path d="M1920 1080V0L960 1080H1920Z" fill="#6C63FF"/>
<g filter="url(#filter0_ddd)">
<g clip-path="url(#clip0)">
<path d="M682.359 909.055L270.118 671.068L35.9218 806.27L448.163 1044.26L682.359 909.055Z" fill="white" stroke="#3F3D56" stroke-width="3.8589" stroke-miterlimit="10"/>
<path d="M332.33 756.896C333.267 756.199 334.043 755.435 334.638 754.622C334.776 754.483 334.862 754.328 334.89 754.169C334.919 754.009 334.89 753.848 334.805 753.696C334.633 753.526 334.391 753.382 334.101 753.278L329.879 751.487C329.558 751.318 329.151 751.215 328.718 751.192C327.74 751.207 327.402 751.944 326.695 752.335C326.262 752.533 325.734 752.648 325.182 752.665C324.631 752.682 324.085 752.599 323.618 752.428C322.698 752.076 321.919 751.614 321.331 751.074L317.006 747.659C318.996 748.251 321.234 748.509 323.465 748.403C324.937 748.331 326.786 747.677 326.191 746.897C325.981 746.684 325.703 746.496 325.373 746.342C323.035 745.013 323.146 742.84 321.79 741.116C320.888 740.031 319.415 739.139 317.582 738.567C315.749 737.995 313.65 737.772 311.584 737.93L314.181 739.581C314.451 739.721 314.638 739.907 314.713 740.112C314.82 740.741 313.133 740.856 312.448 741.349C311.558 741.989 312.672 742.878 313.571 743.514C314.47 744.15 314.926 745.351 313.563 745.583C306.804 743.681 306.804 737.774 300.895 735.089C299.32 734.473 297.677 733.916 295.978 733.422C285.992 729.985 283.133 722.123 273.852 718.081C271.734 717.214 269.486 716.458 267.135 715.821C265.721 715.323 264.118 715.032 262.465 714.974C261.639 714.96 260.832 715.116 260.187 715.414C259.543 715.712 259.103 716.133 258.947 716.602C256.672 715.488 254.757 714.15 253.291 712.65C253.535 713.144 253.544 713.666 253.318 714.163C253.092 714.659 252.638 715.111 252.005 715.471C248.187 713.885 244.018 712.603 239.608 711.659C239.234 712.526 239.015 713.413 238.955 714.307L232.13 713.449C232.359 713.707 232.485 713.992 232.497 714.283C232.51 714.573 232.409 714.861 232.203 715.126C231.996 715.391 231.689 715.626 231.304 715.813C230.919 716 230.467 716.134 229.979 716.207C232.083 716.673 234.66 716.227 236.556 716.929C237.71 717.469 238.559 718.195 238.995 719.014C239.432 719.835 240.331 720.548 241.549 721.04C242.845 721.449 244.882 721.126 245.073 720.281C250.602 722.031 255.718 724.186 260.291 726.692C260.679 726.866 260.961 727.105 261.099 727.377C261.277 727.944 260.255 728.358 259.518 728.747C258.781 729.136 258.404 729.989 259.352 730.17C257.967 730.113 257.39 731.178 257.425 731.979C257.461 732.781 257.385 733.815 256.069 734.072C255.726 734.138 255.349 734.133 255.008 734.204C254.001 734.412 253.716 735.169 253.867 735.78C254.165 736.374 254.288 736.992 254.232 737.608C254.023 738.214 252.731 738.74 251.892 738.357L252.468 735.558C250.982 735.574 249.534 735.832 248.291 736.304C248.419 737.498 247.751 738.674 246.424 739.593C245.097 740.511 243.211 741.102 241.154 741.243C239.04 741.222 236.937 741.061 234.887 740.763C233.857 740.619 232.785 740.613 231.751 740.747C230.718 740.881 229.751 741.15 228.927 741.534C226.35 743.028 223.74 744.291 222.313 746.232C219.683 749.811 217.444 753.482 215.612 757.223C215.131 758.205 214.723 759.351 215.772 760.173C218.013 757.076 220.469 754.034 223.14 751.048C223.601 751.247 223.977 751.505 224.238 751.801C224.499 752.098 224.639 752.425 224.646 752.757C224.319 753.275 223.801 753.745 223.126 754.134C222.64 754.596 222.288 755.1 222.085 755.627L216.255 767.606C215.577 768.569 215.499 769.638 216.035 770.631C216.679 771.174 217.242 771.747 217.718 772.345C217.942 772.845 217.738 773.387 217.99 773.883C218.705 775.285 222.534 775.598 222.979 777.037C223.011 777.454 223.005 777.871 222.961 778.288C223.143 779.749 226.154 780.58 226.843 781.99C227.089 782.928 226.865 783.887 226.196 784.754C224.98 787.013 224.65 789.723 227.336 791.509C228.282 792.011 229.161 792.555 229.964 793.134C230.65 793.763 230.749 794.714 229.708 795.151C227.923 795.9 226.997 797.313 225.246 798.088C222.056 799.499 216.822 797.907 213.658 799.337C213.038 799.697 212.382 800.035 211.694 800.351C210.772 800.674 209.613 800.701 208.678 801.012C206.908 801.602 206.519 802.981 206.678 804.157C206.838 805.333 207.339 806.557 206.625 807.663C205.87 808.831 203.938 809.587 202.631 810.58C199.778 812.747 200.182 815.809 201.54 818.416C202.084 819.187 202.308 820.02 202.193 820.85C201.859 821.916 200.348 822.701 199.298 823.599C196.728 825.796 196.785 828.862 193.615 830.78C191.361 832.144 187.985 832.612 185.041 833.427C182.237 834.216 179.76 835.346 177.78 836.738C175.801 838.131 174.365 839.753 173.57 841.495C173.276 842.398 172.853 843.285 172.305 844.148C171.156 845.646 168.792 846.74 167.566 848.218C165.945 850.172 166.301 852.765 163.425 854.157C162.241 856.112 163.548 858.163 165.311 859.966L168.471 863.198C168.994 863.844 169.771 864.411 170.74 864.854C171.234 865.067 171.838 865.178 172.455 865.167C173.072 865.156 173.664 865.025 174.135 864.795C172.29 863.341 170.988 861.681 170.308 859.922C169.847 858.144 170.964 856.099 173.733 855.276C175.016 854.895 176.801 854.629 176.975 853.802C177.074 853.328 176.534 852.878 176.547 852.401C176.662 852.035 176.973 851.698 177.436 851.439C177.899 851.18 178.492 851.011 179.13 850.956C180.409 850.861 181.654 850.649 182.817 850.328C183.409 850.093 183.863 849.759 184.118 849.372C184.372 848.984 184.415 848.56 184.241 848.158C185.359 848.45 186.572 848.602 187.799 848.606C188.413 848.601 189.009 848.487 189.506 848.279C190.003 848.072 190.378 847.781 190.579 847.446C191.741 848.312 193.231 849.268 195.123 849.184C195.869 849.101 196.57 848.917 197.168 848.647C197.766 848.377 198.244 848.029 198.563 847.631C199.187 846.833 199.979 846.083 200.92 845.397C203.846 847.254 207.029 848.971 210.437 850.53C211.483 849.416 211.736 848.111 211.143 846.891C212.761 847.555 215.677 847.326 217.448 846.809C219.18 846.238 220.632 845.422 221.666 844.438C221.916 844.173 222.277 843.949 222.715 843.784C223.412 843.637 224.18 843.645 224.868 843.805L235.679 845.493C236.294 845.611 236.94 845.667 237.588 845.659C238.359 845.569 239.077 845.366 239.674 845.071C240.271 844.776 240.728 844.397 241 843.971C241.528 843.118 242.209 842.299 243.032 841.528C245.9 839.382 251.786 840.053 256.075 838.95C257.72 838.469 259.234 837.849 260.564 837.112C262.057 836.362 263.685 835.43 263.513 834.292C263.348 833.201 261.551 832.386 261.278 831.302C261.027 830.309 262.115 829.288 261.633 828.324C261.194 827.448 259.625 826.938 258.792 826.164C257.324 824.801 258.325 822.831 256.574 821.584C255.586 820.881 253.798 820.471 253.536 819.578C253.306 818.792 254.412 818.116 255.226 817.471C256.461 816.451 257.125 815.238 257.128 813.993C257.131 812.749 256.474 811.534 255.245 810.512C254.29 809.75 252.983 809.075 252.64 808.156C252.293 807.224 253.029 806.281 253.136 805.33C253.308 803.799 251.856 802.381 250.456 801.076L244.762 795.767C243.751 794.825 242.212 793.747 240.345 794.006C239.694 794.139 239.078 794.323 238.514 794.553C237.378 794.902 236.079 795.034 234.805 794.93C233.531 794.826 232.347 794.492 231.422 793.975C231.863 793 231.634 791.965 230.784 791.086C230.142 790.565 229.56 790.02 229.044 789.454C228.843 789.117 228.764 788.76 228.81 788.405C228.857 788.05 229.029 787.704 229.315 787.388C229.601 787.073 229.996 786.794 230.475 786.57C230.954 786.345 231.507 786.179 232.101 786.083C233.295 785.889 234.345 785.474 235.089 784.902C235.834 784.33 236.231 783.632 236.221 782.917C236.067 782.227 235.679 781.561 235.079 780.957C234.479 780.353 233.678 779.824 232.723 779.4C233.249 778.583 235.087 778.38 236.593 778.436C238.099 778.491 239.765 778.652 240.992 778.145C242.923 777.348 242.067 775.402 239.969 774.76C237.871 774.119 235.289 774.428 233.075 774.924C231.843 775.26 230.536 775.497 229.192 775.629C228.517 775.689 227.826 775.641 227.196 775.488C226.566 775.336 226.021 775.086 225.622 774.766C224.639 773.808 225.698 772.607 226.738 771.67C228.038 770.376 229.626 769.187 231.459 768.13C233.322 767.068 235.829 766.468 238.447 766.459C242.659 766.563 245.83 768.622 248.473 770.518C248.576 770.091 248.947 769.7 249.514 769.419C250.082 769.139 250.808 768.988 251.556 768.995C252.303 769.02 253.027 769.15 253.667 769.374C254.307 769.598 254.843 769.908 255.228 770.279C255.936 770.902 256.259 771.644 256.147 772.386C255.962 773.465 254.815 774.403 254.286 775.444C253.757 776.484 254.195 777.885 255.992 778.2C257.544 778.472 259.108 777.755 259.975 776.963C260.654 776.113 261.549 775.325 262.63 774.627C264.986 773.468 268.561 774.016 271.456 774.649C274.35 775.283 277.844 775.904 280.326 774.837C280.761 774.598 281.261 774.402 281.805 774.256C282.378 774.181 282.975 774.192 283.539 774.287C293.213 775.428 303.032 776.597 311.793 779.226C312.249 779.363 312.168 779.456 312.607 779.611C313.386 779.731 313.849 779.086 313.693 778.629C313.538 778.172 313.149 777.666 313.586 777.274C313.908 776.986 314.552 776.893 315.03 776.69C315.296 776.555 315.501 776.384 315.627 776.192C315.752 776.001 315.794 775.794 315.748 775.591C315.703 775.388 315.572 775.194 315.367 775.027C315.161 774.86 314.888 774.724 314.571 774.633C314.744 773.915 316.625 774.051 317.717 774.409C320.993 775.484 324.062 776.758 326.87 778.209C327.226 778.358 327.487 778.57 327.613 778.813C327.619 779.035 327.48 779.25 327.222 779.415C326.964 779.579 326.607 779.681 326.224 779.699C325.457 779.72 324.688 779.699 323.927 779.635C323.076 779.629 322.238 779.758 321.505 780.007C320.771 780.257 320.171 780.618 319.769 781.052C320.451 782.261 321.234 783.553 323.022 784.298C324.809 785.042 327.903 784.832 328.561 783.618C329.173 782.487 327.44 781.152 328.501 780.138C329.744 778.95 333.546 779.451 334.636 778.215C335.113 777.673 334.824 777.026 334.794 776.418C334.781 775.687 335.152 774.972 335.856 774.365C336.561 773.758 337.567 773.288 338.743 773.017C337.706 772.598 336.859 772.041 336.272 771.393C335.685 770.746 335.376 770.027 335.37 769.296C335.381 767.934 336.313 766.314 334.593 765.382C333.014 764.526 329.91 764.796 329.024 763.655C328.806 763.375 328.708 763.003 328.207 762.899C328.022 762.876 327.832 762.878 327.649 762.904C327.466 762.93 327.296 762.98 327.151 763.05C325.049 763.843 323.694 765.348 321.244 765.668C318.578 766.017 315.966 764.771 313.242 764.9C311.763 764.971 310.422 765.441 308.955 765.568C307.487 765.695 305.627 765.241 305.614 764.384C306.738 764.16 307.697 763.722 308.335 763.143C308.972 762.563 309.25 761.876 309.123 761.193C308.881 760.53 308.497 759.887 307.978 759.28C307.471 758.558 307.102 757.808 306.875 757.04C306.721 756.68 306.743 756.301 306.939 755.947C307.281 755.56 307.852 755.256 308.549 755.09C310.017 754.681 311.65 754.511 313.273 754.599C314.895 754.687 316.446 755.029 317.757 755.588C318.889 756.085 320.001 756.782 321.42 756.724C322.17 756.694 322.961 756.449 323.631 756.647C324.02 756.797 324.315 757.015 324.471 757.269L326.882 760.172C327.11 760.52 327.491 760.827 327.988 761.064C328.243 761.176 328.562 761.228 328.881 761.21C329.2 761.193 329.496 761.106 329.709 760.967C330.208 760.542 329.554 759.822 330.263 759.512C330.514 759.424 330.805 759.381 331.098 759.39C333.869 759.34 336.625 759.644 339.169 760.281C341.712 760.918 343.98 761.872 345.811 763.074C345.509 763.791 343.853 763.889 342.577 763.912C341.301 763.936 339.629 764.328 339.869 765.052C340.019 765.319 340.283 765.56 340.636 765.752C341.428 766.353 342.048 767.022 342.473 767.736C343.199 768.801 343.848 769.882 344.419 770.979C345.047 770.411 345.919 769.945 346.95 769.628C347.473 769.481 348.073 769.453 348.631 769.548C349.189 769.643 349.666 769.855 349.967 770.142C350.42 770.734 349.82 771.518 350.518 772.024C351.449 772.7 353.415 772.043 353.938 771.235C354.461 770.426 354.397 769.46 355.38 768.809C356.042 768.37 357.195 768.017 357.058 767.44C356.985 767.249 356.836 767.07 356.622 766.918L345.044 757.218C344.356 756.642 343.019 756.008 342.126 756.481C341.628 756.744 341.582 757.264 340.953 757.408C340.283 757.562 339.663 757.155 339.014 756.972C338.488 756.86 337.912 756.848 337.374 756.94C336.835 757.032 336.362 757.222 336.026 757.481C335.374 758.01 334.933 758.615 334.734 759.254C334.197 758.498 332.87 757.65 332.333 756.895L332.33 756.896Z" fill="#3F3D56"/>
<path d="M333.054 743.406C332.455 742.719 331.505 742.154 330.331 741.789C329.158 741.424 327.819 741.276 326.495 741.365C326.221 741.365 325.954 741.41 325.723 741.495C325.493 741.58 325.31 741.701 325.195 741.844C324.998 742.282 325.902 742.586 326.599 742.791C327.65 743.078 328.513 743.553 329.061 744.145C329.386 744.529 329.528 744.958 329.861 745.339C330.002 745.537 330.233 745.709 330.531 745.837C330.828 745.965 331.18 746.044 331.549 746.065C332.237 746.006 332.859 745.797 333.287 745.48C333.474 745.4 333.627 745.296 333.736 745.178C333.844 745.059 333.905 744.927 333.915 744.793C333.831 744.611 333.674 744.444 333.456 744.305C333.037 743.953 332.844 743.528 332.909 743.103" fill="#3F3D56"/>
<path d="M339.595 745.538C339.406 745.416 339.165 745.324 338.897 745.271C338.628 745.219 338.341 745.207 338.062 745.237C337.783 745.267 337.522 745.337 337.305 745.442C337.087 745.547 336.92 745.683 336.819 745.836C337.266 746.288 337.867 746.683 338.585 746.997C338.949 747.151 339.383 747.239 339.834 747.25C340.284 747.262 340.73 747.196 341.116 747.061C340.237 746.71 339.616 746.182 339.375 745.581" fill="#3F3D56"/>
<path d="M359.141 754.074C357.111 753.314 354.933 752.694 352.652 752.228C353.1 752.81 353.212 753.459 352.973 754.081C352.733 754.702 352.154 755.263 351.321 755.68C350.957 755.815 350.654 755.998 350.439 756.215C350.185 756.567 350.539 756.958 350.882 757.283C351.448 757.896 352.19 758.45 353.076 758.92C353.523 759.153 354.064 759.318 354.65 759.399C355.235 759.481 355.847 759.477 356.429 759.388C356.902 759.257 357.389 759.143 357.886 759.047C360.626 758.719 361.853 761.737 364.619 761.487C365.593 761.399 366.403 760.888 367.385 760.939C367.857 760.987 368.3 761.102 368.676 761.273C371.488 762.358 374.195 763.531 376.784 764.787C378.012 765.381 379.888 765.997 381.031 765.348C377.614 762.412 372.612 760.209 366.803 759.083C364.705 758.68 361.383 758.463 360.965 757.149C360.808 756.658 361.769 756.132 361.466 755.506C361.004 754.887 360.181 754.38 359.141 754.075L359.141 754.074Z" fill="#3F3D56"/>
<path d="M370.446 763.603L372.058 764.977C371.707 764.755 371.278 764.58 370.8 764.461C370.322 764.343 369.806 764.285 369.286 764.291C368.766 764.297 368.254 764.367 367.785 764.497C367.315 764.626 366.899 764.812 366.564 765.041C367.809 766.481 370.454 767.306 372.34 768.491C374.226 769.675 375.11 771.81 372.832 772.737C372.143 773.017 371.218 773.16 370.825 773.59C370.645 773.914 370.519 774.247 370.449 774.585C370.203 774.912 369.804 775.192 369.297 775.395C368.791 775.598 368.196 775.715 367.58 775.734C366.362 775.834 365.104 775.75 363.906 775.912C360.926 776.315 359.196 778.062 357.82 779.641C357.24 780.203 356.878 780.83 356.76 781.481C356.696 782.68 358.244 783.681 359.692 784.541C360.745 785.168 362.023 785.844 363.528 785.756C365.493 785.642 366.563 784.311 368.414 783.914C370.095 783.553 371.934 784.044 373.504 784.545C376.314 785.529 379.248 786.389 382.282 787.118C386.109 787.935 390.437 788.265 393.472 789.838C394.248 790.324 395.115 790.759 396.057 791.135C396.536 791.316 397.107 791.401 397.678 791.375C398.25 791.35 398.791 791.216 399.217 790.994C399.857 790.567 399.78 789.938 399.844 789.375C399.908 788.811 400.349 788.143 401.318 788.067L410.279 791.612C411.202 790.461 412.706 789.111 414.886 789.273C415.672 789.332 416.403 789.596 417.195 789.575C417.86 789.505 418.451 789.289 418.844 788.971C419.236 788.653 419.397 788.26 419.294 787.874C419.029 787.105 418.374 786.397 417.412 785.843C414.293 783.813 410.937 781.909 407.366 780.145L386.846 769.531C385.553 768.72 384.065 768.02 382.429 767.451C380.985 767.217 379.578 766.912 378.224 766.539C375.635 765.562 373.584 764.028 370.446 763.603L370.446 763.603Z" fill="#3F3D56"/>
<path d="M390.426 793.353C390.255 793.217 390 793.124 389.713 793.094C389.478 793.1 389.253 793.153 389.076 793.243C388.212 793.593 387.61 794.118 387.388 794.714C387.287 795.01 387.326 795.317 387.499 795.602C387.673 795.887 387.976 796.14 388.376 796.335C389.39 796.788 390.819 796.727 392.019 796.988C393.869 797.391 400.175 799.994 398.455 796.668C397.862 795.521 396.414 795.396 394.939 795.074C393.192 794.748 391.631 794.153 390.426 793.353V793.353Z" fill="#3F3D56"/>
<path d="M440.11 802.503C439.495 802.354 438.811 802.326 438.166 802.425C437.85 802.482 437.583 802.606 437.421 802.773C437.26 802.94 437.215 803.136 437.298 803.322C437.402 803.45 437.547 803.566 437.726 803.662L439.45 804.718C440.182 805.167 440.964 805.804 440.439 806.341C440.05 806.739 439.019 806.945 439.04 807.403C439.079 807.581 439.207 807.75 439.408 807.888C439.843 808.312 440.435 808.676 441.14 808.954C442.779 809.5 442.889 808.653 443.998 808.482C445.696 808.221 444.937 808.535 446.651 808.813C447.916 809.018 449.788 809.146 450.271 808.086C451.111 806.244 442.712 803.005 440.11 802.503L440.11 802.503Z" fill="#3F3D56"/>
<path d="M476.181 822.156L475.012 821.64C472.432 820.434 469.68 819.356 466.785 818.417C467.371 819.198 468.139 819.93 469.067 820.591C469.61 820.937 470.096 821.311 470.52 821.708C471.215 822.449 471.451 823.464 472.797 823.791C473.631 823.994 474.441 823.749 475.259 823.844C475.824 823.909 477.475 824.44 477.847 824.392C480.852 823.999 477.193 822.603 476.181 822.156V822.156Z" fill="#3F3D56"/>
<path d="M476.022 827.477C473.874 827.126 471.66 826.929 469.429 826.889C468.963 826.847 468.488 826.865 468.036 826.939C467.583 827.014 467.164 827.145 466.807 827.322C465.984 827.865 466.412 828.702 466.881 829.371L468.782 832.081C469.746 831.986 470.158 831.325 470.299 830.767C470.439 830.209 470.589 829.555 471.438 829.276C472.407 828.957 473.594 829.342 474.503 829.716C475.984 830.324 479.386 832.308 481.018 830.892C482.94 829.223 478.005 827.801 476.022 827.477V827.477Z" fill="#3F3D56"/>
<path d="M339.163 905.72C338.535 905.873 337.976 906.107 337.53 906.405C337.084 906.702 336.762 907.055 336.59 907.436C336.497 907.874 336.626 908.319 336.961 908.716C337.296 909.114 337.822 909.447 338.477 909.676C339.807 910.121 341.345 910.314 342.875 910.227C344.21 910.186 345.526 910.026 346.776 909.753C348.662 909.292 350.447 908.704 352.094 908.001L358.492 905.489C359.922 904.928 363.596 902.797 360.188 902.215C359.257 902.056 355.273 902.744 353.907 902.803C351.445 902.908 350.011 903.562 347.809 904.141C345.05 904.866 341.868 904.96 339.163 905.72Z" fill="#3F3D56"/>
<path d="M428.268 988.918C427.828 988.338 427.46 987.741 427.169 987.13C424.634 987.813 422.315 988.737 420.309 989.862L428.05 991.101C429.214 991.288 430.642 991.437 431.48 990.934C431.593 990.877 431.676 990.804 431.722 990.722C431.768 990.64 431.775 990.552 431.742 990.468C431.676 990.379 431.571 990.302 431.436 990.244C430.581 989.902 429.651 989.626 428.671 989.424C428.181 989.321 427.736 989.158 427.366 988.947C426.995 988.735 426.709 988.48 426.525 988.198" fill="#3F3D56"/>
<path d="M452.685 1004.93C451.995 1004.7 451.275 1004.51 450.531 1004.34C448.819 1004.02 446.951 1004.21 445.17 1004.06C443.478 1003.86 441.851 1003.51 440.348 1003.03C440.19 1003.03 440.038 1003.06 439.901 1003.11C439.764 1003.15 439.646 1003.21 439.553 1003.29C439.46 1003.36 439.395 1003.45 439.363 1003.54C439.33 1003.63 439.331 1003.72 439.364 1003.81C439.535 1004.17 439.887 1004.49 440.376 1004.73C441.445 1005.5 442.843 1006.09 444.431 1006.45C445.407 1006.57 446.4 1006.63 447.398 1006.64C449.643 1006.82 451.836 1007.17 453.916 1007.69C454.648 1007.88 455.433 1007.99 456.235 1008.02C458.056 1008.03 459.515 1007.26 458.5 1006.32C457.68 1005.56 454.032 1005.33 452.685 1004.93V1004.93Z" fill="#3F3D56"/>
<path d="M471.734 1007.24C472.415 1006.91 472.96 1006.5 473.327 1006.04C473.694 1005.58 473.873 1005.07 473.851 1004.56C472.709 1005.34 471.197 1005.91 469.501 1006.2C468.269 1006.34 466.992 1006.17 465.747 1006.26C465.12 1006.27 464.518 1006.41 464.048 1006.65C463.578 1006.89 463.271 1007.21 463.18 1007.57C463.278 1007.99 463.605 1008.38 464.114 1008.68C465.239 1009.5 466.632 1010.4 468.449 1010.38C469.44 1010.38 470.422 1010.08 471.388 1010.21C471.703 1010.29 472.043 1010.32 472.383 1010.31C473.02 1010.22 473.144 1009.7 472.845 1009.37C472.546 1009.03 471.995 1008.79 471.687 1008.46C471.378 1008.12 471.47 1007.6 472.099 1007.5" fill="#3F3D56"/>
<path d="M496.883 969.075C496.05 968.783 495.316 968.406 494.716 967.964C493.964 967.124 493.563 966.194 493.546 965.249C493.026 963.032 491.302 960.968 488.622 959.353C486.177 957.887 482.987 956.825 481.011 955.141C480.693 955.461 480.508 955.82 480.47 956.189C480.432 956.559 480.542 956.928 480.791 957.268C481.207 957.966 481.903 958.598 482.331 959.293C483.009 960.41 482.967 961.631 482.213 962.731C481.781 963.216 481.449 963.728 481.223 964.257C481.199 964.814 481.412 965.367 481.842 965.866C482.273 966.365 482.909 966.796 483.694 967.121C485.585 968.078 487.948 968.853 488.938 970.187C489.472 971.255 489.725 972.362 489.688 973.473C489.883 974.578 490.73 975.803 492.561 976.144C491.711 975.183 491.415 974.09 491.716 973.025C492.018 971.96 492.901 970.979 494.237 970.224C495.315 970.973 498.778 972.923 500.611 971.652C502.164 970.574 498.087 969.557 496.883 969.075L496.883 969.075Z" fill="#3F3D56"/>
<path d="M467.438 968.139C468.805 967.593 470.979 967.67 471.739 966.816C471.938 966.504 471.97 966.165 471.83 965.842C471.69 965.519 471.386 965.228 470.956 965.007C470.162 964.527 469.122 964.206 468.287 963.75C467.786 963.428 467.248 963.127 466.677 962.847C464.799 962.069 462.114 962.471 459.993 961.94C458.789 961.523 457.63 961.065 456.521 960.569C453.765 959.641 450.323 960.034 447.135 960.113C441.996 960.234 436.913 959.461 432.544 957.895C431.126 957.25 429.472 956.799 427.707 956.577C425.334 956.439 423.183 957.309 421.232 958.101C415.841 960.286 410.111 962.177 404.115 963.751L408.635 967.124C409.417 967.801 410.439 968.374 411.633 968.805C412.583 969.053 413.584 969.229 414.612 969.33C418.352 969.835 421.867 970.787 424.929 972.126C426.535 972.761 427.832 973.623 428.697 974.63C429.116 975.136 429.286 975.698 429.191 976.257C429.096 976.815 428.738 977.347 428.156 977.796C428.878 978.015 429.483 978.344 429.908 978.746C430.332 979.148 430.558 979.609 430.564 980.08C430.548 981.025 430.019 981.944 429.051 982.707C428.478 983.195 427.765 983.764 428.126 984.315C428.42 984.765 429.297 984.97 429.931 985.281C432.082 986.339 431.412 988.634 433.77 989.534C436.299 990.498 439.959 988.981 442.638 989.8C444.176 990.27 445.386 991.477 447.044 991.17C448.505 990.9 448.628 989.685 449.81 989.121C451.266 988.426 453.399 989.005 455.176 989.376C458.284 989.948 461.653 989.814 464.596 989.001C467.539 988.187 469.833 986.757 471.011 985C472.266 982.894 471.841 980.419 474.1 978.613C475.838 977.223 479.072 976.3 479.382 974.595C479.539 973.728 478.859 972.806 479.449 972.004C479.948 971.537 480.518 971.098 481.152 970.69C481.675 970.232 481.79 969.503 480.969 969.226C478.586 968.422 472.152 971.44 469.725 971.675C468.956 971.761 468.158 971.687 467.474 971.465C466.791 971.244 466.265 970.89 465.991 970.466C465.716 970.042 465.711 969.576 465.976 969.15C466.241 968.724 466.758 968.366 467.437 968.139L467.438 968.139Z" fill="#3F3D56"/>
<path d="M444.258 941.239C443.882 940.732 443.226 940.312 442.391 940.045C441.514 939.837 440.246 940.153 440.292 940.699C444.433 942.785 448.25 945.075 451.699 947.545C455.525 950.455 458.408 953.856 463.303 956.171C461.51 954.269 459.524 952.43 457.357 950.664L453.831 947.666C452.906 946.85 451.907 946.063 450.838 945.307C448.557 943.753 446.017 943.046 444.258 941.239V941.239Z" fill="#3F3D56"/>
<path d="M461.658 935.679C461.363 935.477 460.987 935.234 460.543 935.297C460.119 935.358 459.952 935.665 459.57 935.787C459.047 935.954 458.413 935.707 458.049 935.434C457.768 935.128 457.33 934.88 456.794 934.725C456.478 934.691 456.151 934.716 455.862 934.798C455.573 934.881 455.338 935.014 455.192 935.18C454.914 935.516 454.768 935.883 454.766 936.255C454.623 936.97 454.621 937.692 454.76 938.407C455.109 939.746 456.442 941.063 455.853 942.373C455.694 942.601 455.631 942.848 455.669 943.093C455.801 943.272 456.007 943.43 456.269 943.553C456.53 943.677 456.839 943.761 457.17 943.801L459.387 944.278C459.76 944.379 460.171 944.424 460.582 944.409C460.976 944.334 461.324 944.195 461.588 944.011C461.852 943.826 462.021 943.602 462.076 943.365C462.175 942.888 462.529 942.44 463.09 942.084C464.24 941.548 465.974 942.09 467.412 941.894C468.862 941.696 469.656 940.822 470.771 940.252C472.075 939.585 474.448 939.108 474.123 937.86C473.847 936.799 472.117 936.632 470.496 936.692C467.078 936.818 464.353 937.518 461.658 935.679L461.658 935.679Z" fill="#3F3D56"/>
<path d="M489.269 930.406C488.793 931.28 489.283 932.248 488.881 933.135C488.445 934.096 487.018 934.839 486.666 935.811C486.305 936.808 487.127 937.923 486.322 938.83C485.444 939.82 482.918 940.182 482.542 941.273C482.498 941.461 482.522 941.653 482.613 941.836C482.704 942.019 482.86 942.188 483.07 942.335C483.281 942.481 483.542 942.6 483.836 942.685C484.131 942.77 484.453 942.819 484.782 942.828C485.449 942.812 486.078 942.646 486.535 942.365C486.993 942.085 487.243 941.713 487.232 941.327C487.192 940.833 486.725 940.359 486.828 939.868C486.909 939.596 487.095 939.339 487.373 939.115C488.13 938.443 489.158 937.887 490.369 937.495C490.709 937.415 490.999 937.277 491.201 937.099C491.522 936.719 490.894 936.317 490.655 935.917C490.114 935.009 491.632 934.162 492.978 933.599C492.082 933.974 490.642 931.624 490.792 931.205C491.089 930.372 493.08 929.583 493.928 928.962C492.979 928.816 491.969 928.884 491.104 929.152C490.238 929.42 489.582 929.869 489.269 930.406L489.269 930.406Z" fill="#3F3D56"/>
<path d="M446.21 923.222C446.27 922.6 446.1 921.814 445.075 921.619C444.671 921.57 444.251 921.605 443.887 921.718C443.524 921.831 443.241 922.014 443.089 922.235C442.807 922.684 442.734 923.168 442.876 923.639C443.26 925.126 443.46 926.627 443.474 928.13C443.255 930.817 441.141 933.394 441.308 936.083C441.272 936.663 441.567 937.234 442.146 937.709C442.45 937.938 442.89 938.094 443.381 938.146C443.873 938.198 444.38 938.142 444.804 937.99C445.087 937.818 445.304 937.613 445.441 937.389C445.577 937.165 445.631 936.927 445.597 936.69C445.679 935.561 445.592 934.427 445.772 933.302C445.773 932.83 446.052 932.372 446.564 932.004C447.138 931.673 448.256 931.626 448.67 932.029C448.167 931.539 448.791 930.6 448.011 929.905C447.359 929.325 446.646 929.505 446.082 928.692C445.008 927.14 446.052 924.834 446.209 923.222L446.21 923.222Z" fill="#3F3D56"/>
<path d="M545.827 916.742C545.448 916.338 545.107 915.923 544.806 915.497C543.828 914.449 540.954 913.975 539.694 914.917C538.857 915.543 539.103 916.434 538.764 917.2C538.412 917.751 537.875 918.257 537.182 918.687C536.489 919.117 535.655 919.463 534.728 919.706C534.205 919.898 533.62 920.029 533.008 920.088C532.275 920.101 531.544 920.032 530.856 919.886C527.913 919.407 524.836 919.263 521.798 919.46C521.495 919.466 521.2 919.518 520.944 919.611C520.389 919.855 520.525 920.344 520.395 920.739C520.107 921.617 518.444 922.062 517.412 922.729C517.248 922.812 517.124 922.919 517.051 923.038C516.979 923.158 516.96 923.286 516.997 923.41C517.18 923.734 517.941 923.803 518.507 923.708C520.386 923.395 521.826 921.983 523.663 922.369C524.011 922.443 524.345 922.582 524.711 922.553C525.293 922.507 525.541 922.085 526.062 921.93C526.846 921.698 527.684 922.151 528.28 922.525C529.308 923.17 530.522 923.707 531.869 924.11C532.366 924.287 532.942 924.376 533.525 924.365C533.937 924.307 534.325 924.203 534.667 924.058C535.01 923.914 535.299 923.731 535.519 923.522C538.108 921.594 540.035 919.398 541.194 917.052C542.021 917.83 543.274 918.427 544.755 918.748C545.608 918.87 547.207 918.683 547.598 918.153C548.215 917.315 546.59 917.383 545.827 916.742V916.742Z" fill="#3F3D56"/>
<path d="M388.345 844.653C387.84 845.165 387.117 845.595 386.243 845.901C385.799 846.044 385.279 846.088 384.782 846.023C384.286 845.958 383.848 845.79 383.554 845.55C383.182 845.148 383.41 844.66 383.44 844.205C383.608 841.673 377.533 839.687 379.046 837.309C379.664 836.339 381.403 835.753 382.253 834.843C382.726 834.306 382.876 833.693 382.68 833.102C382.485 832.51 381.954 831.973 381.172 831.574C380.404 831.243 379.555 830.978 378.653 830.789C372.885 829.363 367.48 827.491 362.586 825.225C361.696 824.77 360.716 824.379 359.667 824.058C357.085 823.508 354.241 823.532 351.689 824.127C349.168 824.723 346.556 825.182 343.888 825.501C341.027 825.593 338.157 825.463 335.356 825.114C334.328 824.986 333.263 825 332.247 825.156C331.204 825.422 330.288 825.83 329.578 826.345L320.164 832.163C318.86 832.862 317.832 833.715 317.147 834.663C316.447 835.876 316.914 837.205 316.636 838.474C316.344 839.774 315.284 840.975 313.633 841.876C312.968 842.236 312.141 842.64 312.238 843.164C312.345 843.455 312.6 843.72 312.97 843.928L325.074 852.161C327.204 853.61 329.462 855.274 329.209 857.168C329.09 858.062 328.465 859.085 329.47 859.769C329.966 860.025 330.497 860.257 331.057 860.464C331.629 860.821 332.03 861.258 332.22 861.731C332.411 862.205 332.384 862.699 332.143 863.165C331.628 864.61 330.277 865.911 328.311 866.855C327.073 867.445 325.625 867.877 324.417 868.487C319.821 870.808 319.73 875.078 315.483 877.612C312.985 879.102 309.406 879.776 305.979 880.397C305.002 883.151 299.622 884.464 297.017 886.84C294.546 889.094 294.708 892.069 292.171 894.298C291.01 895.318 289.225 896.369 289.762 897.55C290.053 898.037 290.555 898.472 291.221 898.814C294.973 901.032 299.58 902.705 304.666 903.697C307.056 904.162 309.894 904.434 311.934 903.579C313.579 902.889 314.447 901.556 316.417 901.265C318.738 900.922 320.835 902.266 323.227 902.353C327.107 902.493 328.967 899.563 332.422 898.533C335.527 897.608 339.362 898.378 342.756 897.898C344.169 897.664 345.512 897.307 346.737 896.839C349.758 895.772 352.605 894.55 355.245 893.188C356.798 892.33 358.426 891.52 360.123 890.759C370.086 886.602 384.317 888.182 395.316 885.013C396.367 884.71 397.539 884.176 397.284 883.515C397.067 883.16 396.645 882.86 396.09 882.664L389.246 879.598C388.336 879.261 387.603 878.786 387.127 878.225C386.912 877.941 386.899 877.619 387.093 877.329C387.287 877.039 387.671 876.806 388.162 876.679C391.063 876.195 391.303 873.605 392.276 871.955C394.895 867.51 396.776 862.931 397.893 858.28C397.907 858.016 398.07 857.761 398.357 857.555L400.024 858.584C401.531 857.042 402.856 855.167 401.591 853.554C400.729 852.687 399.567 851.931 398.175 851.334C394.515 849.305 391.222 847.066 388.345 844.653L388.345 844.653Z" fill="#3F3D56"/>
<path d="M446.131 823.653C445.864 824.74 446.25 825.847 447.223 826.79C449.262 828.312 453.359 827.886 456.529 827.292C456.033 827.624 455.782 828.054 455.827 828.492C455.873 828.929 456.212 829.339 456.773 829.634C457.447 829.911 458.213 830.105 459.023 830.203C466.185 831.415 472.713 833.636 478.021 836.665C478.37 836.405 478.874 836.229 479.435 836.17C479.995 836.112 480.574 836.176 481.058 836.349C482.344 836.846 482.383 837.939 481.937 838.794C481.296 839.608 480.91 840.48 480.798 841.372C480.899 842.263 482.522 843.164 483.892 842.748C485.206 842.35 485.017 841.253 484.74 840.41C484.463 839.568 484.643 838.408 486.1 838.242C491.617 840.144 496.835 842.322 501.695 844.749C502.441 845.21 503.343 845.578 504.346 845.829C504.852 845.948 505.412 845.967 505.939 845.883C506.466 845.799 506.93 845.618 507.26 845.366C506.037 844.929 505.067 844.291 504.475 843.535C503.882 842.778 503.693 841.936 503.932 841.118C510.747 844.452 517.887 848.062 520.504 852.994C519.736 854.21 515.128 852.931 514.744 854.206C514.744 854.412 514.826 854.616 514.983 854.802C515.141 854.987 515.37 855.149 515.653 855.275C519.347 857.617 523.38 859.774 527.707 861.722C529.398 862.345 530.934 863.099 532.272 863.962C534.325 865.482 534.766 867.541 536.561 869.166C536.887 869.511 537.331 869.814 537.866 870.057C538.401 870.3 539.016 870.478 539.673 870.58C540.002 870.62 540.341 870.622 540.671 870.585C541 870.548 541.314 870.473 541.592 870.365C541.871 870.256 542.108 870.116 542.29 869.953C542.473 869.79 542.596 869.608 542.653 869.417C546.95 869.442 550.025 871.825 551.869 874.066C553.714 876.306 554.784 878.82 557.587 880.7C559.597 882.049 562.385 882.983 564.16 884.437C565.153 885.397 566.061 886.384 566.881 887.397C568.677 889.239 571.463 890.677 574.019 892.191C580.537 896.057 585.773 900.579 589.469 905.534C590.007 906.145 590.307 906.817 590.346 907.503C590.354 907.845 590.184 908.181 589.859 908.468C589.533 908.755 589.066 908.978 588.518 909.11L583.101 904.913C582.522 905.937 583.868 906.945 584.718 907.905C585.568 908.864 585.483 910.416 583.646 910.606C582.718 909.57 580.125 909.644 578.186 909.969C576.247 910.295 573.911 910.677 572.409 909.898C571.063 909.2 570.607 907.681 568.803 907.761C568.502 909.262 567.913 910.739 567.046 912.165C566.155 913.629 564.582 915.213 561.929 915.461C561.479 915.519 561.009 915.485 560.598 915.364C559.46 914.973 559.981 913.991 560.003 913.227C559.802 912.268 559.225 911.349 558.318 910.538C557.605 909.667 557.217 908.54 558.307 907.811C559.081 907.409 560.008 907.118 561.013 906.961C562.632 906.579 564.077 905.986 565.235 905.23C566.234 904.646 566.827 903.871 566.901 903.051C566.914 902.644 566.676 902.248 566.231 901.932C565.786 901.616 565.162 901.401 564.469 901.326C563.815 901.291 563.055 901.399 562.573 901.142C561.722 900.686 562.522 899.498 561.374 899.399C560.932 899.744 560.294 899.988 559.571 900.088C555.891 899.94 553.592 897.777 550.45 896.661C548.899 896.164 547.239 895.789 545.515 895.544C544.942 895.412 544.314 895.38 543.709 895.453C543.262 895.569 542.897 895.77 542.675 896.023C542.452 896.275 542.386 896.564 542.487 896.841C542.716 897.392 543.154 897.907 543.77 898.349C546.278 900.473 548.509 902.808 548.964 905.365C549.42 907.922 547.737 910.742 543.912 912.058L543.641 905.172C541.425 906.718 539.103 908.211 536.673 909.65C536.232 909.95 535.683 910.191 535.064 910.355C533.668 910.659 532.167 910.165 530.922 909.691C530.58 909.557 530.193 909.466 529.786 909.424C529.379 909.382 528.961 909.391 528.56 909.449C528.159 909.507 527.783 909.613 527.458 909.761C527.134 909.908 526.867 910.094 526.675 910.306C525.991 911.251 525.671 912.271 525.737 913.295C525.8 914.323 525.288 915.336 524.277 916.183C523.141 916.966 520.796 917.234 519.634 916.463C519.26 916.141 519.038 915.768 518.989 915.381C518.939 914.995 519.065 914.607 519.354 914.257C519.943 913.561 520.378 912.825 520.647 912.067C521.019 909.733 515.951 907.899 516.66 905.591C515.766 905.624 514.901 905.788 514.147 906.068C513.393 906.347 512.775 906.734 512.353 907.19C512.949 907.323 513.447 907.571 513.762 907.892C514.077 908.213 514.188 908.587 514.078 908.95C513.822 909.671 513.464 910.379 513.006 911.067C512.56 912.027 512.595 913.126 511.465 913.876C510.983 914.128 510.53 914.399 510.11 914.685C509.679 915.246 509.449 915.852 509.435 916.466C509.141 917.161 508.558 917.804 507.736 918.34C506.915 918.877 505.879 919.289 504.719 919.542C502.393 920.034 499.939 920.295 497.462 920.314C493.16 920.543 488.83 920.552 484.525 920.34C483.312 920.206 482.065 920.208 480.854 920.347C480.251 920.425 479.709 920.615 479.311 920.888C478.913 921.16 478.681 921.501 478.65 921.857C478.162 921.601 477.097 921.251 476.608 920.996C478.312 919.823 480.154 918.718 482.12 917.69C481.165 916.12 476.822 916.342 475.034 917.648C473.246 918.954 473.086 920.738 472.377 922.351C471.98 923.558 470.858 924.646 469.207 925.422C468.365 925.79 467.322 925.972 466.268 925.934C465.213 925.897 464.217 925.642 463.461 925.216C461.304 923.733 463.708 921.204 461.756 919.63C461.598 919.482 461.36 919.37 461.08 919.309C460.542 919.219 460.017 919.452 459.602 919.669C457.426 920.649 455.658 921.898 454.429 923.325C452.919 925.477 453.584 928.401 450.202 929.659C448.47 926.921 450.417 923.853 453.141 921.399C455.864 918.944 459.398 916.757 461.325 914.062C458.951 914.231 457.867 912.333 458.315 910.976C458.74 909.69 459.72 908.484 460.189 907.204C460.504 906.573 460.56 905.909 460.353 905.264C460.146 904.619 459.681 904.011 458.995 903.488C457.394 902.473 454.785 902.298 452.415 902.187C450.476 902.021 448.498 902.083 446.601 902.368C443.904 902.891 442.015 904.252 439.961 905.388C437.859 906.708 434.999 907.544 431.911 907.738C428.838 907.801 425.548 906.542 425.348 904.771C425.381 903.84 425.831 902.929 426.655 902.129C430.059 898.116 433.856 894.218 438.028 890.454C436.533 891 433.889 891.289 433.584 890.284C433.548 890.039 433.601 889.794 433.742 889.562C435.068 886.592 433.474 883.431 431.065 880.697C428.657 877.963 425.441 875.48 423.187 872.702C421.925 871.145 420.976 869.51 420.359 867.828C419.248 867.95 418.215 868.243 417.37 868.676C416.524 869.11 415.897 869.667 415.555 870.289C415.254 870.918 415.324 871.587 415.753 872.191C416.182 872.795 416.945 873.3 417.924 873.626C418.959 873.934 420.166 874.002 421.213 874.296C421.759 874.414 422.215 874.64 422.499 874.933C422.783 875.227 422.877 875.569 422.764 875.899C422.372 876.501 421.011 876.718 420.506 877.292C419.737 878.166 421.37 879.21 420.933 880.157C420.701 880.497 420.286 880.785 419.749 880.979C419.212 881.173 418.582 881.261 417.951 881.232C416.693 881.159 415.458 880.989 414.278 880.728C410.337 880.079 406.131 880.427 402.047 880.229C397.963 880.031 393.474 879.017 392.036 876.801C395.849 875.326 394.394 871.787 396.866 869.554C397.679 868.819 398.907 868.248 399.595 867.472C400.593 866.348 400.299 865.01 400.343 863.747C400.411 862.207 401.013 860.691 402.113 859.288C403.213 857.884 404.788 856.623 406.747 855.576C408.225 854.929 409.543 854.168 410.665 853.315C411.208 852.879 411.482 852.351 411.444 851.816C411.406 851.28 411.057 850.767 410.454 850.358C407.33 848.707 403.338 846.66 404.319 844.281C404.669 843.432 405.758 842.522 407.27 842.589C407.791 842.656 408.283 842.782 408.719 842.96C409.154 843.137 409.524 843.363 409.807 843.625L415.885 847.899C417.307 848.899 418.884 849.957 421.061 850.262C423.238 850.567 426.013 849.643 425.729 848.359C425.523 847.422 423.844 846.497 424.705 845.693C425.421 845.024 427.524 845.009 427.748 844.232C427.908 843.675 426.848 843.243 425.879 843.17C424.903 843.18 423.927 843.141 422.963 843.054C421.327 842.756 420.575 841.706 419.779 840.829C418.984 839.952 417.463 839.038 415.827 839.335C413.997 839.666 413.606 841.26 411.778 841.595C409.362 842.039 407.479 839.905 404.952 840.028C402.052 840.169 401.939 842.811 399.483 843.711C398.629 843.545 397.863 843.253 397.262 842.865C396.661 842.477 396.245 842.005 396.054 841.496C395.885 840.985 395.96 840.456 396.27 839.967C396.58 839.478 397.114 839.047 397.815 838.719C398.829 838.261 400.222 838.001 400.76 837.326C401.077 836.748 401.029 836.124 400.625 835.565L397.694 829.693C395.958 829.993 395.328 831.245 395.442 832.289C395.556 833.334 396.122 834.398 395.639 835.406C395.266 836.083 394.459 836.652 393.384 836.997C392.309 837.342 391.046 837.437 389.853 837.263C389.695 837.246 389.544 837.21 389.413 837.157C389.281 837.103 389.171 837.034 389.09 836.954C389.047 836.858 389.038 836.758 389.063 836.66C389.088 836.562 389.146 836.468 389.235 836.384C391.037 834.009 392.218 831.323 390.989 828.829C389.76 826.335 385.455 824.217 381.033 824.669C379.982 824.777 378.988 825.016 377.957 825.176C372.484 826.027 366.552 824.5 362.653 822.126C362.24 821.912 361.941 821.634 361.794 821.325C361.594 820.693 362.572 820.162 363.452 819.769L367.185 818.099C367.864 817.709 368.777 817.485 369.734 817.474C371.061 817.565 371.763 818.396 372.721 818.934C373.471 819.328 374.412 819.579 375.418 819.654C376.423 819.729 377.444 819.623 378.342 819.352C379.224 819.063 379.953 818.641 380.45 818.131C380.947 817.621 381.193 817.042 381.163 816.457C381.136 815.972 381.066 815.342 381.843 815.157C382.086 815.122 382.34 815.118 382.585 815.146C382.831 815.174 383.064 815.232 383.266 815.317C385.457 816.013 387.38 816.974 389.631 817.602C390.719 817.961 391.944 818.159 393.197 818.178C394.449 818.197 395.691 818.037 396.81 817.711C397.459 817.476 398.154 817.138 398.89 817.261C399.228 817.34 399.536 817.458 399.795 817.606C400.829 818.055 402.116 818.263 403.403 818.191C404.69 818.119 405.883 817.771 406.748 817.216C407.399 817.35 407.964 817.595 408.366 817.919C408.768 818.244 408.988 818.631 408.996 819.03C408.988 819.828 409.247 820.619 409.759 821.36C411.036 822.649 414.287 822.731 416.113 823.777C416.734 824.287 417.5 824.733 418.379 825.097C419.372 825.366 420.533 825.198 421.63 825.212C422.726 825.225 424.036 825.604 423.975 826.236L426.796 824.099C427.458 824.74 428.351 825.292 429.414 825.718C430.476 826.143 431.684 826.433 432.956 826.566L429.189 822.172C429.04 822.029 428.955 821.867 428.941 821.7C428.973 821.204 430.078 821.041 430.921 820.943C432.937 820.708 435.068 819.634 434.347 818.522C433.856 817.763 432.325 817.45 430.974 817.228L424.506 816.167C423.584 816.547 424.102 817.363 424.169 818.015C424.209 818.409 424.041 818.802 423.688 819.141C423.335 819.479 422.813 819.748 422.19 819.913C421.567 820.077 420.872 820.128 420.198 820.06C419.523 819.993 418.9 819.808 418.41 819.532C418.328 819.896 418.105 820.243 417.759 820.55C417.412 820.857 416.951 821.115 416.408 821.305L413.413 819.808C413.036 819.663 412.774 819.438 412.683 819.182C412.65 818.856 413.156 818.611 413.48 818.344C413.822 818.002 413.979 817.609 413.933 817.215C413.887 816.821 413.638 816.443 413.22 816.131C412.363 815.515 411.3 815.005 410.095 814.632C409.552 814.484 409.124 814.225 408.894 813.905C408.815 813.691 408.86 813.468 409.021 813.27C409.375 812.877 409.898 812.544 410.54 812.302C411.181 812.06 411.92 811.917 412.685 811.888C414.212 811.84 415.744 811.877 417.258 811.998C420.913 812.136 424.561 811.681 427.791 810.685C429.973 811.201 432.442 811.615 434.624 812.13C438.196 812.806 441.371 814.044 443.791 815.705L448.901 818.77C450.511 819.624 451.833 820.643 452.799 821.776C453.268 822.347 453.458 822.98 453.348 823.609C453.239 824.237 452.834 824.837 452.177 825.342C452.032 825.46 451.838 825.554 451.613 825.617C451.388 825.679 451.139 825.708 450.889 825.7C450.578 825.647 450.298 825.545 450.082 825.405C448.593 824.604 447.621 824.457 446.132 823.656L446.131 823.653Z" fill="#3F3D56"/>
<path d="M388.283 809.108C388.679 809.114 389.071 809.057 389.415 808.943C389.758 808.829 390.041 808.663 390.232 808.463C389.928 808.066 389.438 807.727 388.818 807.483C388.198 807.238 387.472 807.099 386.722 807.08C386.101 807.082 385.484 807.131 384.885 807.227C383.966 807.295 383.081 807.475 382.29 807.754C381.499 808.033 380.818 808.405 380.293 808.847C380.189 808.944 380.12 809.052 380.09 809.165C380.059 809.278 380.068 809.393 380.116 809.504C380.223 809.648 380.384 809.776 380.589 809.878C381.344 810.313 382.144 810.721 382.984 811.101C383.499 811.334 384.164 811.567 384.769 811.422C385.565 811.233 385.636 810.539 386.386 810.296C386.757 810.207 387.156 810.166 387.557 810.176C387.757 810.18 387.956 810.157 388.138 810.109C388.32 810.06 388.481 809.988 388.606 809.898C388.814 809.701 388.549 809.368 388.159 809.418" fill="#3F3D56"/>
<path d="M397.263 808.438C396.747 807.963 396.1 807.539 395.347 807.184C395.201 807.094 395.017 807.027 394.813 806.989C394.587 806.97 394.356 806.994 394.156 807.059C393.548 807.243 393.083 807.553 392.852 807.926C392.622 808.3 392.644 808.71 392.914 809.074C393.103 809.249 393.244 809.439 393.331 809.639C393.46 810.231 392.175 810.548 391.561 811.029C390.871 811.569 390.976 812.417 390.022 812.8C389.271 813.103 388.086 813.001 387.558 813.433C387.004 813.885 387.651 814.49 388.274 814.911C388.597 815.177 389.046 815.383 389.568 815.505C390.186 815.572 390.824 815.504 391.361 815.315C392.462 815 393.447 814.565 394.264 814.035C394.656 813.805 394.944 813.524 395.105 813.216C395.177 812.939 395.21 812.66 395.203 812.38C395.415 810.763 399.025 810.253 397.264 808.438L397.263 808.438Z" fill="#3F3D56"/>
<path d="M517.388 870.274C519.788 871.659 523.679 871.659 526.079 870.274C528.479 868.888 528.479 866.642 526.079 865.257C523.679 863.871 519.788 863.871 517.388 865.257C514.989 866.642 514.989 868.888 517.388 870.274Z" fill="#6C63FF"/>
<path d="M480.106 903.455C482.505 904.84 486.396 904.84 488.796 903.455C491.196 902.069 491.196 899.823 488.796 898.438C486.396 897.052 482.505 897.052 480.106 898.438C477.706 899.823 477.706 902.069 480.106 903.455Z" fill="#6C63FF"/>
<path d="M475.851 873.522C478.251 874.907 482.142 874.907 484.542 873.522C486.941 872.137 486.941 869.89 484.542 868.505C482.142 867.12 478.251 867.12 475.851 868.505C473.451 869.89 473.451 872.137 475.851 873.522Z" fill="#6C63FF"/>
<path d="M536.956 889.112C539.356 890.498 543.246 890.498 545.646 889.112C548.046 887.727 548.046 885.481 545.646 884.095C543.246 882.71 539.356 882.71 536.956 884.095C534.556 885.481 534.556 887.727 536.956 889.112Z" fill="#6C63FF"/>
<path d="M487.796 853.845C490.196 855.231 494.087 855.231 496.487 853.845C498.887 852.46 498.887 850.214 496.487 848.828C494.087 847.443 490.196 847.443 487.796 848.828C485.397 850.214 485.397 852.46 487.796 853.845Z" fill="#6C63FF"/>
<path d="M875.067 319.875L618.174 171.57L457.91 264.09L714.803 412.395L875.067 319.875Z" fill="#F2F2F2"/>
<path d="M906.884 320.215L649.991 171.91L489.727 264.43L746.62 412.735L906.884 320.215Z" stroke="#3F3D56" stroke-width="2" stroke-miterlimit="10"/>
<path d="M698.895 337.54C714.386 337.54 729.53 334.889 742.411 329.92C755.291 324.951 765.331 317.889 771.259 309.627C777.187 301.364 778.738 292.272 775.716 283.501C772.694 274.73 765.234 266.673 754.28 260.349L698.895 292.323L698.895 337.54Z" fill="#3F3D56"/>
<path d="M754.28 260.349C741.968 253.243 725.907 248.707 708.633 247.458C691.358 246.208 673.855 248.317 658.887 253.45C643.92 258.582 632.34 266.448 625.978 275.803C619.615 285.158 618.832 295.47 623.752 305.111L698.895 292.323L754.28 260.349Z" fill="#6C63FF"/>
<path d="M698.895 337.541L698.895 292.323L623.752 305.111C628.541 314.473 638.446 322.69 651.989 328.534C665.532 334.379 681.986 337.538 698.895 337.541V337.541Z" fill="#575A89"/>
<path d="M543.345 256.947L532.739 250.825L522.133 256.947L532.739 263.07L543.345 256.947Z" fill="#6C63FF"/>
<path d="M558.664 265.791L548.058 259.668L537.453 265.791L548.058 271.914L558.664 265.791Z" fill="#3F3D56"/>
<path d="M573.983 274.635L563.378 268.512L552.772 274.635L563.378 280.758L573.983 274.635Z" fill="#575A89"/>
<path d="M757.226 383.142L713.625 357.971L711.857 358.992L755.458 384.163L757.226 383.142Z" fill="#3F3D56"/>
<path d="M751.923 386.203L708.322 361.033L706.554 362.053L750.155 387.224L751.923 386.203Z" fill="#3F3D56"/>
<path d="M746.62 389.265L703.019 364.094L701.251 365.114L744.853 390.285L746.62 389.265Z" fill="#3F3D56"/>
<path d="M621.709 431.443L475.586 347.086L315.323 439.607L461.445 523.963L621.709 431.443Z" fill="#F2F2F2"/>
<path d="M651.758 431.103L505.636 346.746L345.372 439.266L491.495 523.623L651.758 431.103Z" stroke="#3F3D56" stroke-width="2" stroke-miterlimit="10"/>
<path d="M378.99 437.799L371.112 433.251L363.233 437.799L371.112 442.347L378.99 437.799Z" fill="#6C63FF"/>
<path d="M390.37 444.369L382.492 439.82L374.613 444.369L382.492 448.917L390.37 444.369Z" fill="#3F3D56"/>
<path d="M401.751 450.938L393.872 446.39L385.994 450.938L393.872 455.487L401.751 450.938Z" fill="#575A89"/>
<path d="M486.709 503.936L456.071 486.248L454.829 486.965L485.467 504.653L486.709 503.936Z" fill="#3F3D56"/>
<path d="M482.983 506.087L452.344 488.399L451.102 489.117L481.741 506.804L482.983 506.087Z" fill="#3F3D56"/>
<path d="M479.257 508.238L448.618 490.551L447.376 491.268L478.015 508.955L479.257 508.238Z" fill="#3F3D56"/>
<path d="M550.415 405.252L537.453 412.735C545.144 417.175 550.382 422.832 552.504 428.991C554.626 435.149 553.537 441.533 549.374 447.334C545.212 453.136 538.163 458.094 529.119 461.583C520.075 465.071 509.442 466.933 498.565 466.933L498.565 477.516C513.068 477.516 527.245 475.034 539.303 470.382C551.362 465.731 560.76 459.119 566.31 451.384C571.86 443.649 573.313 435.138 570.483 426.926C567.654 418.715 560.67 411.172 550.415 405.252V405.252Z" fill="#3F3D56"/>
<path d="M498.565 477.516L498.565 466.933C485.267 466.934 472.419 464.153 462.401 459.104C452.383 454.055 445.874 447.081 444.08 439.474L425.911 440.904C428.307 451.047 436.987 460.344 450.345 467.076C463.703 473.807 480.834 477.517 498.565 477.516Z" fill="#575A89"/>
<path d="M459.678 412.735C469.991 406.781 483.98 403.436 498.565 403.436C513.151 403.436 527.139 406.781 537.453 412.735L550.415 405.252C539.561 398.986 525.574 394.844 510.426 393.41C495.278 391.977 479.733 393.324 465.982 397.262C452.23 401.2 440.966 407.529 433.777 415.359C426.589 423.189 423.837 432.124 425.912 440.904L444.081 439.474C442.927 434.624 443.735 429.686 446.441 425.047C449.147 420.408 453.678 416.194 459.678 412.735V412.735Z" fill="#6C63FF"/>
<path d="M939.879 499.473L793.757 415.116L633.493 507.636L779.616 591.993L939.879 499.473Z" fill="#F2F2F2"/>
<path d="M969.929 499.133L823.806 414.776L663.542 507.296L809.665 591.653L969.929 499.133Z" stroke="#3F3D56" stroke-width="2" stroke-miterlimit="10"/>
<path d="M827.931 428.722L705.376 499.473L823.806 567.842" stroke="#3F3D56" stroke-width="2" stroke-miterlimit="10"/>
<path d="M781.383 493.69L754.869 478.384L712.446 502.874L738.961 518.181L781.383 493.69Z" fill="#575A89"/>
<path d="M848.553 499.132L822.038 483.826L750.745 524.984L777.259 540.29L848.553 499.132Z" fill="#3F3D56"/>
<path d="M920.436 501.854L893.921 486.547L789.043 547.093L815.557 562.4L920.436 501.854Z" fill="#6C63FF"/>
<path d="M701.874 508.55L693.996 504.001L686.117 508.55L693.996 513.098L701.874 508.55Z" fill="#6C63FF"/>
<path d="M713.255 515.119L705.376 510.571L697.497 515.119L705.376 519.668L713.255 515.119Z" fill="#3F3D56"/>
<path d="M724.634 521.689L716.756 517.141L708.877 521.689L716.756 526.237L724.634 521.689Z" fill="#575A89"/>
<path d="M809.593 574.687L778.955 556.999L777.713 557.716L808.351 575.404L809.593 574.687Z" fill="#3F3D56"/>
<path d="M805.867 576.838L775.229 559.15L773.986 559.867L804.625 577.555L805.867 576.838Z" fill="#3F3D56"/>
<path d="M802.141 578.989L771.502 561.301L770.26 562.018L800.899 579.706L802.141 578.989Z" fill="#3F3D56"/>
<path d="M210.121 449.514C204.527 446.284 200.718 442.17 199.175 437.691C197.631 433.212 198.424 428.57 201.451 424.35C204.478 420.131 209.605 416.525 216.182 413.988C222.759 411.451 230.492 410.097 238.403 410.097C246.313 410.097 254.046 411.451 260.624 413.988C267.201 416.525 272.328 420.131 275.355 424.35C278.382 428.57 279.174 433.212 277.631 437.691C276.088 442.17 272.278 446.284 266.685 449.514C259.178 453.837 249.007 456.266 238.403 456.266C227.799 456.266 217.628 453.837 210.121 449.514V449.514ZM265.506 417.54C260.146 414.445 253.316 412.338 245.881 411.484C238.445 410.63 230.738 411.068 223.735 412.743C216.731 414.418 210.744 417.254 206.533 420.893C202.321 424.532 200.073 428.81 200.073 433.187C200.073 437.563 202.321 441.841 206.533 445.48C210.744 449.119 216.731 451.955 223.734 453.63C230.738 455.305 238.445 455.743 245.881 454.889C253.316 454.035 260.146 451.928 265.506 448.833C272.684 444.68 276.715 439.053 276.715 433.187C276.715 427.32 272.684 421.693 265.506 417.54V417.54Z" fill="#F2F2F2"/>
<path d="M418.699 550.878C415.903 549.263 413.998 547.206 413.226 544.966C412.455 542.727 412.851 540.406 414.364 538.296C415.878 536.186 418.441 534.383 421.73 533.115C425.019 531.846 428.885 531.169 432.84 531.169C436.796 531.169 440.662 531.846 443.951 533.115C447.239 534.383 449.803 536.186 451.316 538.296C452.83 540.406 453.226 542.727 452.454 544.966C451.683 547.206 449.778 549.263 446.981 550.878C443.228 553.04 438.142 554.254 432.84 554.254C427.538 554.254 422.453 553.04 418.699 550.878V550.878ZM445.803 535.231C443.239 533.751 439.973 532.743 436.417 532.335C432.861 531.926 429.175 532.136 425.825 532.937C422.475 533.738 419.612 535.094 417.598 536.835C415.584 538.575 414.509 540.621 414.509 542.714C414.508 544.807 415.584 546.853 417.598 548.594C419.612 550.334 422.475 551.69 425.825 552.491C429.175 553.292 432.861 553.502 436.417 553.094C439.973 552.685 443.239 551.677 445.803 550.197C449.236 548.211 451.163 545.52 451.163 542.714C451.163 539.908 449.236 537.217 445.803 535.231V535.231Z" fill="#F2F2F2"/>
<path d="M337.304 673.685L74.0234 521.694L226.549 433.641C228.151 432.718 230.323 432.199 232.586 432.199C234.85 432.2 237.021 432.718 238.624 433.641L489.829 578.662C491.428 579.587 492.326 580.84 492.326 582.147C492.326 583.454 491.428 584.707 489.829 585.632L337.304 673.685Z" fill="#3F3D56"/>
<path d="M331.876 668.432L83.1656 524.851C81.8432 524.086 81.1291 523.033 81.1797 521.923C81.2303 520.813 82.0417 519.736 83.4357 518.93L227.186 435.943C228.583 435.138 230.448 434.669 232.371 434.64C234.294 434.611 236.118 435.023 237.444 435.786L486.155 579.367C487.477 580.132 488.191 581.186 488.14 582.296C488.09 583.406 487.278 584.482 485.884 585.289L342.133 668.276C340.736 669.081 338.872 669.549 336.949 669.578C335.026 669.608 333.202 669.195 331.876 668.432V668.432Z" fill="white"/>
<path d="M326.663 636.526L138.392 527.836C138.314 527.792 138.253 527.739 138.211 527.68C138.169 527.622 138.148 527.559 138.148 527.496C138.148 527.433 138.169 527.37 138.211 527.312C138.253 527.254 138.314 527.201 138.392 527.156L228.63 475.061C228.787 474.971 228.998 474.92 229.219 474.92C229.44 474.92 229.652 474.971 229.809 475.061C229.965 475.151 230.053 475.274 230.053 475.401C230.053 475.529 229.965 475.651 229.809 475.742L140.159 527.496L327.842 635.845C327.998 635.935 328.086 636.058 328.086 636.185C328.086 636.313 327.998 636.435 327.842 636.526C327.686 636.616 327.474 636.666 327.253 636.666C327.032 636.666 326.82 636.616 326.663 636.526Z" fill="#3F3D56"/>
<path d="M185.098 547.317L167.974 537.431C167.511 537.163 167.251 536.8 167.251 536.422C167.251 536.043 167.511 535.68 167.974 535.412L191.58 521.784C192.044 521.517 192.673 521.367 193.329 521.367C193.984 521.367 194.613 521.517 195.078 521.784L212.202 531.67C212.665 531.938 212.925 532.301 212.925 532.68C212.925 533.058 212.665 533.421 212.202 533.69L188.596 547.317C188.132 547.584 187.503 547.735 186.847 547.734C186.191 547.734 185.563 547.584 185.098 547.317Z" fill="#6C63FF"/>
<path d="M216.326 565.345L199.202 555.459C198.739 555.191 198.479 554.828 198.479 554.449C198.479 554.071 198.739 553.708 199.202 553.44L245.197 526.887C245.662 526.619 246.29 526.469 246.946 526.469C247.602 526.469 248.231 526.619 248.695 526.887L265.819 536.772C266.282 537.04 266.543 537.403 266.543 537.782C266.543 538.161 266.283 538.524 265.819 538.792L219.824 565.345C219.36 565.612 218.731 565.762 218.075 565.762C217.419 565.762 216.79 565.612 216.326 565.345Z" fill="#6C63FF"/>
<path d="M247.554 583.372L230.43 573.487C229.967 573.219 229.707 572.856 229.707 572.477C229.707 572.099 229.967 571.735 230.43 571.467L254.036 557.84C254.5 557.573 255.129 557.422 255.785 557.422C256.44 557.422 257.069 557.573 257.533 557.84L274.657 567.726C275.121 567.994 275.381 568.357 275.381 568.735C275.381 569.114 275.121 569.477 274.658 569.745L251.052 583.373C250.588 583.64 249.959 583.79 249.303 583.79C248.647 583.79 248.018 583.64 247.554 583.372V583.372Z" fill="#6C63FF"/>
<path d="M278.782 601.4L261.658 591.515C261.195 591.259 260.927 590.907 260.912 590.537C260.897 590.167 261.137 589.809 261.578 589.541L316.57 557.794C317.035 557.539 317.655 557.401 318.296 557.409C318.937 557.418 319.546 557.573 319.989 557.84L337.113 567.726C337.576 567.982 337.844 568.333 337.859 568.703C337.874 569.073 337.634 569.431 337.192 569.699L282.2 601.446C281.736 601.701 281.115 601.84 280.475 601.831C279.834 601.822 279.225 601.668 278.782 601.4V601.4Z" fill="#6C63FF"/>
<path d="M310.01 619.428L292.886 609.542C292.422 609.274 292.162 608.911 292.162 608.533C292.162 608.154 292.422 607.791 292.885 607.523L363.627 566.684C364.092 566.416 364.721 566.266 365.376 566.266C366.032 566.266 366.661 566.416 367.125 566.684L384.249 576.57C384.713 576.838 384.973 577.201 384.973 577.579C384.973 577.958 384.713 578.321 384.25 578.589L313.508 619.428C313.043 619.696 312.414 619.846 311.759 619.846C311.103 619.846 310.474 619.696 310.01 619.428Z" fill="#6C63FF"/>
<path d="M210.71 522.645C212.663 523.773 215.828 523.773 217.781 522.645C219.733 521.518 219.733 519.691 217.781 518.564C215.828 517.436 212.663 517.436 210.71 518.564C208.758 519.691 208.758 521.518 210.71 522.645Z" fill="#3F3D56"/>
<path d="M264.917 527.407C266.87 528.535 270.035 528.535 271.987 527.407C273.94 526.28 273.94 524.453 271.987 523.326C270.035 522.199 266.869 522.199 264.917 523.326C262.965 524.453 262.965 526.28 264.917 527.407Z" fill="#3F3D56"/>
<path d="M273.166 558.701C275.118 559.828 278.284 559.828 280.236 558.701C282.189 557.574 282.189 555.746 280.236 554.619C278.284 553.492 275.118 553.492 273.166 554.619C271.213 555.746 271.213 557.574 273.166 558.701Z" fill="#3F3D56"/>
<path d="M338.567 557C340.52 558.128 343.685 558.128 345.638 557C347.59 555.873 347.59 554.046 345.638 552.919C343.685 551.791 340.52 551.791 338.567 552.919C336.615 554.046 336.615 555.873 338.567 557Z" fill="#3F3D56"/>
<path d="M382.758 567.545C384.71 568.672 387.876 568.672 389.828 567.545C391.781 566.418 391.781 564.59 389.828 563.463C387.876 562.336 384.71 562.336 382.758 563.463C380.805 564.59 380.805 566.418 382.758 567.545Z" fill="#3F3D56"/>
<path d="M269.599 524.704L277.419 556.16L342.254 554.474L342.429 554.517L386.239 565.281L385.587 566.166L341.951 555.445L275.983 557.16L268.127 525.554L214.128 521.081L214.363 520.128L269.599 524.704Z" fill="#3F3D56"/>
<path d="M999.983 818.733C1048.32 771.796 1038.15 711.902 973.171 672.222C938.818 651.244 889.903 636.54 821.803 644.589C700.066 658.976 700.775 717.893 712.519 752.473C718.168 769.193 719.747 786.287 717.207 803.259C712.691 833.804 723.559 881.275 834.902 881.005C915.603 880.809 967.787 849.997 999.983 818.733V818.733Z" fill="#F2F2F2" stroke="#9A94FA" stroke-opacity="0.502008" stroke-width="1.80661"/>
<path d="M569.879 627.174C570.093 626.538 570.331 625.896 570.588 625.266L571.679 625.414C571.425 626.036 571.189 626.67 570.978 627.297L569.879 627.174Z" fill="#3F3D56"/>
<path d="M572.445 621.437C573.152 620.181 573.959 618.927 574.842 617.71L575.875 617.96C575.004 619.16 574.208 620.398 573.51 621.637L572.445 621.437ZM577.767 614.111C578.823 612.94 579.977 611.781 581.198 610.664L582.145 611.009C580.941 612.111 579.802 613.255 578.76 614.409L577.767 614.111ZM585.112 607.393C586.485 606.341 587.954 605.307 589.478 604.32L590.314 604.751C588.811 605.724 587.362 606.745 586.006 607.783L585.112 607.393ZM595.037 601.93L594.264 601.462C595.921 600.55 597.66 599.667 599.433 598.839L600.138 599.342C598.388 600.159 596.672 601.03 595.037 601.93V601.93ZM605.589 597.003L604.959 596.469C606.849 595.726 608.815 595.02 610.805 594.37L611.357 594.933C609.394 595.574 607.453 596.27 605.589 597.003ZM617.402 593.145L616.933 592.558C619.01 592.005 621.154 591.496 623.305 591.045L623.687 591.652C621.566 592.098 619.451 592.6 617.402 593.145V593.145ZM728.316 654.349C729.165 653.144 729.938 651.903 730.613 650.659L731.682 650.853C730.997 652.113 730.214 653.372 729.354 654.593L728.316 654.349ZM630.165 590.465L629.87 589.841C632.075 589.494 634.334 589.196 636.584 588.955L636.789 589.59C634.569 589.829 632.34 590.123 630.165 590.465ZM732.374 646.872C732.868 645.602 733.277 644.304 733.589 643.014L734.699 643.103C734.382 644.411 733.968 645.726 733.467 647.013L732.374 646.872ZM643.515 589.033L643.401 588.389C645.676 588.256 647.988 588.175 650.274 588.149L650.296 588.795C648.041 588.821 645.759 588.901 643.515 589.033ZM734.253 639.111C734.381 637.81 734.418 636.491 734.361 635.189L735.481 635.173C735.538 636.492 735.501 637.829 735.371 639.147L734.253 639.111ZM657.088 588.878L657.158 588.233C659.439 588.315 661.743 588.453 664.006 588.643L663.845 589.282C661.613 589.095 659.339 588.959 657.088 588.878ZM733.913 631.275C733.672 629.98 733.334 628.675 732.91 627.396L734.011 627.274C734.44 628.571 734.782 629.893 735.026 631.206L733.913 631.275ZM670.52 590.005L670.771 589.375C673.001 589.671 675.234 590.025 677.409 590.426L677.068 591.042C674.922 590.646 672.719 590.297 670.52 590.005ZM731.359 623.577C730.753 622.32 730.05 621.065 729.268 619.845L730.319 619.621C731.111 620.857 731.824 622.13 732.439 623.403L731.359 623.577ZM683.445 592.387L683.873 591.789C685.985 592.293 688.086 592.854 690.117 593.456L689.605 594.031C687.602 593.437 685.529 592.883 683.445 592.387ZM726.649 616.225C725.695 615.046 724.641 613.874 723.519 612.744L724.491 612.422C725.629 613.568 726.696 614.756 727.664 615.952L726.649 616.225ZM695.512 595.966L696.105 595.418C698.043 596.115 699.955 596.869 701.791 597.658L701.121 598.177C699.311 597.398 697.424 596.654 695.512 595.966V595.966ZM719.9 609.424C718.623 608.354 717.25 607.299 715.819 606.289L716.686 605.88C718.136 606.903 719.528 607.972 720.822 609.057L719.9 609.424ZM706.396 600.647L707.136 600.162C708.849 601.033 710.528 601.96 712.112 602.909L711.306 603.358C709.741 602.421 708.086 601.507 706.396 600.647L706.396 600.647Z" fill="#3F3D56"/>
<path d="M723.887 659.661C724.428 659.103 724.957 658.531 725.459 657.961L726.458 658.254C725.949 658.832 725.413 659.412 724.863 659.977L723.887 659.661Z" fill="#3F3D56"/>
<path d="M763.41 631.268L762.618 630.811C763.41 630.353 764.229 629.897 765.049 629.455L765.813 629.928C765.002 630.365 764.193 630.816 763.41 631.268L763.41 631.268Z" fill="#3F3D56"/>
<path d="M770.912 627.372L770.208 626.869C771.973 626.046 773.81 625.25 775.669 624.504L776.309 625.035C774.472 625.773 772.656 626.559 770.912 627.372V627.372ZM781.983 622.927L781.412 622.371C783.363 621.703 785.379 621.068 787.406 620.483L787.907 621.062C785.904 621.639 783.911 622.267 781.983 622.927V622.927ZM916.649 691.022C917.526 689.832 918.34 688.608 919.066 687.385L920.125 687.595C919.39 688.832 918.567 690.071 917.679 691.275L916.649 691.022ZM794.053 619.446L793.626 618.848C795.722 618.349 797.878 617.888 800.034 617.477L800.385 618.091C798.254 618.497 796.124 618.953 794.053 619.446ZM921.024 683.657C921.596 682.407 922.098 681.129 922.514 679.858L923.615 679.978C923.193 681.265 922.686 682.558 922.106 683.822L921.024 683.657ZM806.868 617.002L806.594 616.375C808.79 616.055 811.037 615.777 813.273 615.548L813.469 616.185C811.259 616.411 809.038 616.686 806.868 617.002V617.002ZM923.53 676.006C923.789 674.72 923.97 673.413 924.069 672.122L925.188 672.151C925.087 673.457 924.905 674.779 924.643 676.081L923.53 676.006ZM820.153 615.642L820.037 614.998C822.293 614.862 824.586 614.772 826.85 614.729L826.887 615.375C824.649 615.418 822.383 615.507 820.153 615.642V615.642ZM924.127 668.226C924.065 666.932 923.923 665.624 923.703 664.337L924.817 664.274C925.04 665.576 925.184 666.9 925.246 668.209L924.127 668.226ZM833.636 615.386L833.679 614.74C835.944 614.79 838.234 614.888 840.488 615.032L840.365 615.675C838.138 615.533 835.874 615.436 833.636 615.386L833.636 615.386ZM922.801 660.476C922.423 659.2 921.959 657.917 921.424 656.661L922.511 656.507C923.053 657.777 923.522 659.076 923.905 660.366L922.801 660.476ZM847.041 616.239L847.242 615.603C849.471 615.838 851.714 616.123 853.909 616.451L853.629 617.077C851.46 616.753 849.243 616.471 847.041 616.239L847.041 616.239ZM919.576 652.914C918.885 651.682 918.108 650.451 917.267 649.252L918.305 649.009C919.157 650.222 919.943 651.468 920.642 652.715L919.576 652.914ZM860.094 618.185L860.451 617.572C862.598 617.989 864.746 618.456 866.836 618.961L866.403 619.558C864.338 619.059 862.216 618.597 860.094 618.185L860.094 618.185ZM914.506 645.696C913.518 644.537 912.442 643.382 911.309 642.265L912.275 641.938C913.423 643.069 914.511 644.238 915.511 645.411L914.506 645.696ZM872.523 621.189L873.029 620.612C875.05 621.203 877.061 621.844 879.006 622.518L878.429 623.073C876.507 622.406 874.52 621.773 872.523 621.189L872.523 621.189ZM907.691 638.976C906.422 637.91 905.071 636.857 903.673 635.846L904.548 635.443C905.963 636.466 907.331 637.531 908.614 638.61L907.691 638.976ZM884.084 625.197L884.729 624.668C886.581 625.421 888.411 626.222 890.169 627.05L889.46 627.551C887.724 626.733 885.915 625.941 884.084 625.197L884.084 625.197ZM899.278 632.89C897.757 631.937 896.153 631.002 894.532 630.12L895.3 629.649C896.94 630.541 898.563 631.488 900.102 632.452L899.278 632.89Z" fill="#3F3D56"/>
<path d="M912.169 696.283C912.711 695.725 913.243 695.154 913.752 694.585L914.747 694.881C914.233 695.457 913.695 696.035 913.147 696.599L912.169 696.283Z" fill="#3F3D56"/>
<path d="M559.586 632.581C566.871 636.787 573.221 639.941 573.767 639.626C574.313 639.31 568.85 635.645 561.565 631.439C554.279 627.233 547.93 624.079 547.384 624.395C546.837 624.71 552.3 628.375 559.586 632.581Z" fill="#6C63FF"/>
<path d="M712.61 665.709C719.896 669.915 726.245 673.069 726.791 672.754C727.338 672.438 721.875 668.773 714.589 664.567C707.303 660.361 700.954 657.207 700.408 657.523C699.862 657.838 705.325 661.503 712.61 665.709Z" fill="#6C63FF"/>
<path d="M838.155 743.511C859.863 756.043 878.78 765.44 880.408 764.5C882.036 763.56 865.759 752.639 844.051 740.107C822.343 727.575 803.426 718.178 801.798 719.118C800.17 720.058 816.448 730.979 838.155 743.511Z" fill="#6C63FF"/>
<path d="M711.278 660.436L636.758 660.436L636.758 661.082L711.278 661.082L711.278 660.436Z" fill="#3F3D56"/>
<path d="M620.334 656.913L575.812 631.21L575.02 631.668L619.542 657.37L620.334 656.913Z" fill="#3F3D56"/>
<path d="M558.696 627.118L470.212 627.118L470.212 627.764L558.696 627.764L558.696 627.118Z" fill="#3F3D56"/>
<path d="M561.169 631.668C559.721 630.832 558.734 629.767 558.335 628.607C557.935 627.448 558.14 626.246 558.924 625.153C559.707 624.061 561.035 623.127 562.737 622.471C564.44 621.814 566.442 621.463 568.49 621.463C570.538 621.463 572.54 621.814 574.243 622.471C575.946 623.127 577.273 624.061 578.057 625.153C578.84 626.245 579.045 627.447 578.646 628.607C578.246 629.767 577.26 630.832 575.812 631.668C573.869 632.787 571.236 633.416 568.49 633.416C565.745 633.416 563.112 632.787 561.169 631.668V631.668ZM575.02 623.671C573.729 622.926 572.083 622.418 570.292 622.212C568.501 622.006 566.644 622.112 564.957 622.516C563.269 622.919 561.827 623.602 560.812 624.479C559.797 625.356 559.256 626.386 559.256 627.441C559.256 628.495 559.797 629.526 560.812 630.403C561.827 631.279 563.269 631.963 564.956 632.366C566.644 632.77 568.5 632.875 570.292 632.669C572.083 632.464 573.729 631.956 575.02 631.21C576.749 630.21 577.72 628.854 577.72 627.441C577.72 626.028 576.749 624.672 575.02 623.671Z" fill="#3F3D56"/>
<path d="M619.542 665.367C618.094 664.531 617.108 663.466 616.708 662.306C616.309 661.146 616.514 659.945 617.298 658.852C618.081 657.76 619.408 656.826 621.111 656.17C622.814 655.513 624.816 655.162 626.864 655.162C628.912 655.162 630.914 655.513 632.617 656.17C634.319 656.826 635.646 657.76 636.43 658.852C637.214 659.945 637.419 661.146 637.019 662.306C636.62 663.466 635.634 664.531 634.186 665.367C632.242 666.486 629.609 667.115 626.864 667.115C624.119 667.115 621.485 666.486 619.542 665.367V665.367ZM633.394 657.37C632.102 656.625 630.457 656.117 628.665 655.911C626.874 655.706 625.017 655.811 623.33 656.215C621.643 656.618 620.2 657.301 619.186 658.178C618.171 659.055 617.629 660.085 617.629 661.14C617.629 662.194 618.171 663.225 619.186 664.102C620.2 664.978 621.643 665.662 623.33 666.065C625.017 666.469 626.874 666.574 628.665 666.368C630.457 666.163 632.102 665.655 633.394 664.909C635.123 663.909 636.094 662.553 636.094 661.14C636.094 659.726 635.123 658.371 633.394 657.37V657.37Z" fill="#3F3D56"/>
<path d="M714.193 664.796C712.745 663.96 711.759 662.894 711.359 661.735C710.96 660.575 711.165 659.373 711.949 658.281C712.732 657.189 714.059 656.255 715.762 655.599C717.465 654.942 719.467 654.591 721.515 654.591C723.563 654.591 725.564 654.942 727.267 655.599C728.97 656.255 730.297 657.189 731.081 658.281C731.865 659.374 732.07 660.575 731.67 661.735C731.271 662.894 730.284 663.96 728.836 664.796C726.893 665.915 724.26 666.544 721.515 666.544C718.769 666.544 716.136 665.915 714.193 664.796V664.796ZM728.044 656.799C726.753 656.054 725.107 655.546 723.316 655.34C721.525 655.135 719.668 655.24 717.981 655.644C716.293 656.047 714.851 656.73 713.837 657.607C712.822 658.484 712.28 659.515 712.28 660.569C712.28 661.623 712.822 662.654 713.837 663.531C714.851 664.407 716.294 665.091 717.981 665.494C719.668 665.897 721.525 666.003 723.316 665.797C725.108 665.592 726.753 665.084 728.044 664.338C729.774 663.338 730.745 661.982 730.745 660.569C730.745 659.155 729.773 657.8 728.044 656.799L728.044 656.799Z" fill="#3F3D56"/>
<path d="M842.584 740.225C828.466 732.075 824.243 719.817 831.884 709.168C839.525 698.519 857.525 691.577 877.491 691.577C897.458 691.577 915.458 698.519 923.099 709.168C930.74 719.817 926.517 732.075 912.399 740.225C893.107 751.337 861.876 751.337 842.584 740.225Z" stroke="#3F3D56" stroke-width="3.20428"/>
<path d="M452.996 631.668C451.548 630.832 450.562 629.767 450.162 628.607C449.763 627.448 449.968 626.246 450.751 625.153C451.535 624.061 452.862 623.127 454.565 622.471C456.268 621.814 458.27 621.463 460.318 621.463C462.366 621.463 464.368 621.814 466.07 622.471C467.773 623.127 469.1 624.061 469.884 625.153C470.668 626.246 470.873 627.447 470.474 628.607C470.074 629.767 469.088 630.832 467.64 631.668C465.696 632.787 463.063 633.416 460.318 633.416C457.573 633.416 454.94 632.787 452.996 631.668ZM466.848 623.671C465.556 622.926 463.911 622.418 462.12 622.212C460.328 622.006 458.472 622.112 456.784 622.516C455.097 622.919 453.655 623.602 452.64 624.479C451.625 625.356 451.083 626.386 451.083 627.441C451.083 628.495 451.625 629.526 452.64 630.403C453.654 631.279 455.097 631.963 456.784 632.366C458.471 632.77 460.328 632.875 462.119 632.669C463.911 632.464 465.556 631.956 466.848 631.21C468.577 630.21 469.548 628.854 469.548 627.441C469.548 626.028 468.577 624.672 466.848 623.671V623.671Z" fill="#3F3D56"/>
<path d="M611.693 602.5C609.961 601.5 607.904 600.706 605.641 600.165C603.377 599.624 600.952 599.345 598.502 599.345C596.052 599.345 593.626 599.624 591.362 600.165C589.099 600.706 587.042 601.5 585.31 602.5C578.024 606.706 567.171 628.202 567.171 628.202C567.171 628.202 604.408 621.937 611.693 617.731C613.426 616.731 614.8 615.544 615.737 614.237C616.675 612.93 617.158 611.53 617.158 610.115C617.158 608.701 616.675 607.301 615.737 605.994C614.8 604.687 613.426 603.5 611.693 602.5V602.5ZM591.576 614.114C590.206 613.323 589.273 612.315 588.895 611.219C588.518 610.122 588.711 608.985 589.453 607.952C590.194 606.918 591.449 606.035 593.06 605.414C594.671 604.793 596.564 604.461 598.502 604.461C600.439 604.461 602.332 604.793 603.943 605.414C605.554 606.035 606.809 606.918 607.55 607.952C608.292 608.985 608.486 610.122 608.108 611.219C607.73 612.315 606.797 613.323 605.427 614.114C603.59 615.174 601.099 615.77 598.502 615.77C595.904 615.77 593.413 615.174 591.576 614.114Z" fill="#6C63FF"/>
<path d="M766.367 634.676C762.868 632.656 758.123 631.521 753.175 631.521C748.227 631.521 743.482 632.656 739.983 634.676C732.698 638.882 721.844 660.378 721.844 660.378C721.844 660.378 759.081 654.113 766.367 649.907C768.099 648.907 769.473 647.72 770.411 646.413C771.348 645.106 771.831 643.706 771.831 642.291C771.831 640.877 771.348 639.477 770.411 638.17C769.473 636.863 768.099 635.676 766.367 634.676V634.676ZM746.249 646.29C744.879 645.499 743.947 644.491 743.569 643.394C743.191 642.298 743.385 641.161 744.126 640.128C744.867 639.094 746.123 638.211 747.733 637.59C749.344 636.969 751.238 636.637 753.175 636.637C755.112 636.637 757.006 636.969 758.616 637.59C760.227 638.211 761.482 639.094 762.224 640.128C762.965 641.161 763.159 642.298 762.781 643.394C762.403 644.491 761.47 645.499 760.1 646.29C759.191 646.815 758.111 647.231 756.923 647.515C755.735 647.799 754.461 647.946 753.175 647.946C751.889 647.946 750.615 647.799 749.427 647.515C748.238 647.231 747.159 646.815 746.249 646.29Z" fill="#6C63FF"/>
<path d="M499.409 729.052C503.352 731.328 509.743 731.328 513.686 729.052C517.628 726.776 517.628 723.087 513.686 720.811C509.743 718.535 503.352 718.535 499.409 720.811C495.467 723.087 495.467 726.776 499.409 729.052Z" fill="#F1F1F1"/>
<path d="M574.013 737.26C577.955 739.536 584.347 739.536 588.289 737.26C592.231 734.984 592.231 731.294 588.289 729.018C584.347 726.742 577.955 726.742 574.013 729.018C570.071 731.294 570.071 734.984 574.013 737.26Z" fill="#F1F1F1"/>
<path d="M547.206 689.324C551.148 691.6 557.54 691.6 561.482 689.324C565.424 687.048 565.424 683.358 561.482 681.083C557.54 678.807 551.148 678.807 547.206 681.083C543.264 683.358 543.264 687.048 547.206 689.324Z" fill="#F1F1F1"/>
<path d="M871.226 740.619L869.978 739.899L878.062 733.568C878.433 733.277 878.325 732.869 877.822 732.654C877.319 732.44 876.611 732.502 876.24 732.792L868.359 738.964L866.74 738.03L882.359 725.796L883.978 726.731L879.104 730.548C878.768 730.812 878.825 731.173 879.214 731.398C879.254 731.421 879.297 731.442 879.344 731.462C879.847 731.676 880.556 731.614 880.926 731.324L885.604 727.66C886.629 728.156 888.162 728.126 889.124 727.57L890.269 726.909C891.287 726.322 891.287 725.366 890.269 724.778L889.886 724.556L892.77 722.892L893.875 723.53C894.317 723.785 895.034 723.785 895.476 723.53C895.918 723.275 895.918 722.861 895.476 722.606L893.508 721.47L904.371 712.961C904.981 712.955 905.587 712.819 906.052 712.551L907.437 711.751C908.388 711.202 908.388 710.309 907.437 709.76L907.062 709.543L909.419 708.183L910.058 708.552C910.5 708.807 911.216 708.807 911.659 708.552C912.101 708.297 912.101 707.883 911.659 707.628L899.369 700.533C898.927 700.278 898.211 700.278 897.768 700.533C897.326 700.788 897.326 701.202 897.768 701.457L898.221 701.718L895.864 703.079L895.489 702.863C894.538 702.314 892.991 702.314 892.04 702.863L890.655 703.662C890.195 703.928 889.96 704.273 889.945 704.622L884.994 706.728C884.491 706.942 884.383 707.352 884.754 707.642C884.789 707.669 884.826 707.694 884.866 707.717C885.255 707.942 885.881 707.975 886.337 707.78L890.944 705.82L892.563 706.755L878.568 712.71C878.567 712.71 878.567 712.71 878.566 712.711L878.433 712.767L876.814 711.832L882.43 709.443C882.933 709.229 883.04 708.82 882.669 708.529C882.298 708.239 881.59 708.177 881.086 708.391L875.195 710.898L873.238 709.768C872.796 709.512 872.079 709.512 871.637 709.768C871.195 710.023 871.195 710.437 871.637 710.692L872.732 711.324L869.848 712.989L869.358 712.706C868.34 712.118 866.684 712.118 865.666 712.706L864.521 713.367C863.522 713.943 863.506 714.873 864.466 715.463L843.272 724.481L842.131 723.823C840.909 723.117 838.921 723.117 837.699 723.823L836.213 724.681C834.991 725.386 834.991 726.534 836.213 727.24L865.308 744.036C866.53 744.742 868.518 744.742 869.74 744.036L871.226 743.178C872.448 742.473 872.448 741.325 871.226 740.619L871.226 740.619ZM865.121 737.095L858.011 732.99L860.323 732.583C860.697 732.517 861.04 732.398 861.317 732.239L866.1 729.477L866.509 729.713C866.951 729.968 867.667 729.968 868.109 729.713C868.551 729.458 868.551 729.044 868.109 728.789L866.184 727.677L871.953 724.346L872.966 724.931C873.709 725.36 874.839 725.466 875.78 725.196L879.48 724.135L880.74 724.862L865.121 737.095ZM862.819 727.583L864.499 728.553L859.716 731.314C859.701 731.323 859.682 731.329 859.662 731.333L857.451 731.723L858.028 730.364C858.034 730.351 858.045 730.338 858.062 730.329L862.819 727.583ZM877.792 723.16L874.772 724.026C874.704 724.046 874.621 724.038 874.567 724.007L870.907 721.894C870.853 721.863 870.839 721.815 870.873 721.775L872.375 720.032L877.792 723.16ZM884.199 721.274L887.083 719.609L891.169 721.967L888.285 723.632L884.199 721.273L884.199 721.274ZM877.136 717.196L880.02 715.531L885.482 718.685L882.598 720.349L877.136 717.196L877.136 717.196ZM890.599 709.214L891.161 710.349L888.833 709.965L890.599 709.214ZM880.819 714.144L886.45 714.972L887.884 718.223L880.819 714.144ZM888.948 715.339L892.274 715.828L889.962 717.638L888.948 715.339ZM895.123 713.596L894.458 712.253L896.424 712.577L895.123 713.596ZM893.278 714.627L888.312 713.897L887.048 711.03L891.894 711.83L893.278 714.627ZM884.968 711.61L885.815 713.53L881.832 712.945L884.968 711.61ZM890.27 719.6L890.368 719.524C890.368 719.523 890.369 719.523 890.369 719.523L900.685 711.443L902.304 712.378L891.889 720.535L890.27 719.6L890.27 719.6ZM905.461 708.619L902.264 706.773L904.62 705.413L907.818 707.259L905.461 708.619ZM899.822 702.643L903.019 704.489L900.663 705.849L897.465 704.003L899.822 702.643ZM893.641 703.787C893.709 703.747 893.82 703.747 893.888 703.787L905.836 710.684C905.904 710.724 905.904 710.788 905.836 710.827L904.451 711.627C904.383 711.666 904.272 711.666 904.204 711.627L892.256 704.729C892.239 704.72 892.227 704.709 892.219 704.697C892.218 704.696 892.217 704.695 892.217 704.694C892.193 704.658 892.205 704.615 892.256 704.586L893.641 703.787L893.641 703.787ZM899.065 710.509L897.858 711.454L893.725 710.772L892.544 708.387L894.182 707.69L899.065 710.509ZM874.333 712.248L878.419 714.607L875.535 716.272L871.449 713.913L874.333 712.248ZM866.122 714.291L867.267 713.63C867.402 713.552 867.622 713.552 867.757 713.63L888.668 725.702C888.804 725.78 888.804 725.907 888.668 725.985L887.523 726.646C887.388 726.724 887.168 726.724 887.033 726.646L880.507 722.879C880.507 722.879 880.506 722.878 880.506 722.878L872.862 718.466C872.862 718.465 872.861 718.465 872.86 718.465L866.122 714.574C865.986 714.496 865.986 714.369 866.122 714.291ZM866.081 716.399L867.7 717.334L846.51 726.351L844.891 725.416L866.081 716.399ZM868.139 743.112C867.8 743.308 867.248 743.308 866.908 743.112L837.813 726.315C837.474 726.119 837.474 725.801 837.813 725.605L839.3 724.747C839.639 724.551 840.191 724.551 840.53 724.747L848.26 729.209C848.702 729.465 849.419 729.465 849.861 729.209C850.303 728.954 850.303 728.54 849.861 728.285L848.129 727.285L869.319 718.269L870.686 719.057L868.846 721.194C868.379 721.737 868.564 722.389 869.306 722.818L870.353 723.422L864.583 726.753L862.658 725.641C862.215 725.386 861.499 725.386 861.057 725.641C860.615 725.897 860.615 726.31 861.057 726.565L861.218 726.658L856.461 729.405C856.152 729.583 855.933 729.807 855.829 730.053L855.257 731.4L853.277 730.257C852.835 730.002 852.119 730.002 851.677 730.257C851.234 730.513 851.235 730.926 851.677 731.182L869.625 741.543C869.964 741.739 869.964 742.058 869.625 742.254L868.139 743.112L868.139 743.112Z" fill="#6C63FF"/>
<path d="M920.907 716.069C920.698 714.545 918.948 713.236 916.449 712.732L915.595 712.56C914.876 712.416 914.092 712.538 913.597 712.872C913.102 713.206 913.015 713.672 913.374 714.06L913.77 714.487C913.997 714.732 914.005 715.026 913.791 715.275C913.329 715.814 913.27 716.421 913.628 716.986C913.82 717.288 914.116 717.556 914.497 717.775C914.827 717.966 915.221 718.121 915.664 718.232C916.886 718.537 918.262 718.453 919.345 718.006C920.428 717.559 921.012 716.835 920.907 716.069V716.069ZM914.849 713.795L914.85 713.795C914.85 713.795 914.85 713.794 914.849 713.795ZM918.029 716.943C917.591 717.123 917.057 717.156 916.564 717.033C916.184 716.937 915.896 716.761 915.754 716.537C915.612 716.312 915.635 716.071 915.819 715.856C916.319 715.275 916.338 714.593 915.881 714.005C917.437 714.362 918.517 715.202 918.65 716.172C918.693 716.481 918.466 716.762 918.029 716.943Z" fill="black"/>
<path d="M909.564 718.394C909.213 718.191 908.727 718.091 908.231 718.119C904.703 718.323 903.9 718.786 903.636 718.939C902.262 719.732 902.262 721.023 903.636 721.816C905.01 722.609 907.246 722.609 908.62 721.816C908.884 721.664 909.687 721.2 910.04 719.163C910.089 718.877 909.916 718.597 909.564 718.394V718.394ZM905.237 720.892C904.746 720.608 904.746 720.147 905.237 719.863C905.362 719.793 906.035 719.604 907.698 719.471C907.469 720.431 907.141 720.82 907.019 720.892C906.528 721.176 905.728 721.176 905.237 720.892Z" fill="black"/>
<path d="M882.963 699.282C883.94 699.489 884.992 699.455 885.925 699.188C886.356 699.065 886.867 699.069 887.292 699.2L888.031 699.429C888.702 699.636 889.509 699.586 890.088 699.3C890.667 699.014 890.879 698.562 890.628 698.147L890.33 697.654C889.458 696.211 887.19 695.201 884.551 695.08C883.224 695.019 881.969 695.356 881.195 695.982C880.42 696.607 880.274 697.402 880.804 698.107C880.996 698.363 881.264 698.59 881.594 698.781C881.975 699.001 882.439 699.172 882.963 699.282V699.282ZM888.49 698.577C888.49 698.577 888.489 698.577 888.49 698.577L888.49 698.577ZM883.037 696.742C883.349 696.489 883.836 696.358 884.372 696.383C885.44 696.432 886.417 696.701 887.146 697.122C887.564 697.364 887.9 697.654 888.126 697.982C887.107 697.718 885.927 697.729 884.919 698.017C884.548 698.124 884.129 698.137 883.74 698.055C883.351 697.973 883.046 697.807 882.881 697.587C882.667 697.302 882.724 696.994 883.037 696.742V696.742Z" fill="black"/>
<path d="M874.595 705.05C875.969 705.844 878.205 705.844 879.579 705.05C879.843 704.898 880.646 704.435 880.999 702.398C881.048 702.112 880.875 701.831 880.523 701.628C880.171 701.425 879.686 701.325 879.19 701.354C875.662 701.558 874.859 702.021 874.595 702.173C873.221 702.966 873.221 704.257 874.595 705.05V705.05ZM878.656 702.706C878.427 703.665 878.099 704.054 877.978 704.126C877.487 704.41 876.687 704.41 876.196 704.126C875.704 703.843 875.704 703.381 876.196 703.097C876.32 703.027 876.994 702.838 878.656 702.706Z" fill="black"/>
<path d="M729.154 664.068L833.46 706.073" stroke="#3F3D56" stroke-width="1.37953"/>
</g>
</g>
<defs>
<filter id="filter0_ddd" x="-385" y="61.043" width="2102" height="1226.32" filterUnits="userSpaceOnUse" color-interpolation-filters="sRGB">
<feFlood flood-opacity="0" result="BackgroundImageFix"/>
<feColorMatrix in="SourceAlpha" type="matrix" values="0 0 0 0 0 0 0 0 0 0 0 0 0 0 0 0 0 0 127 0"/>
<feOffset dy="5"/>
<feGaussianBlur stdDeviation="2.5"/>
<feColorMatrix type="matrix" values="0 0 0 0 0 0 0 0 0 0 0 0 0 0 0 0 0 0 0.2 0"/>
<feBlend mode="normal" in2="BackgroundImageFix" result="effect1_dropShadow"/>
<feColorMatrix in="SourceAlpha" type="matrix" values="0 0 0 0 0 0 0 0 0 0 0 0 0 0 0 0 0 0 127 0"/>
<feOffset dy="3"/>
<feGaussianBlur stdDeviation="7"/>
<feColorMatrix type="matrix" values="0 0 0 0 0 0 0 0 0 0 0 0 0 0 0 0 0 0 0.12 0"/>
<feBlend mode="normal" in2="effect1_dropShadow" result="effect2_dropShadow"/>
<feColorMatrix in="SourceAlpha" type="matrix" values="0 0 0 0 0 0 0 0 0 0 0 0 0 0 0 0 0 0 127 0"/>
<feOffset dy="8"/>
<feGaussianBlur stdDeviation="5"/>
<feColorMatrix type="matrix" values="0 0 0 0 0 0 0 0 0 0 0 0 0 0 0 0 0 0 0.14 0"/>
<feBlend mode="normal" in2="effect2_dropShadow" result="effect3_dropShadow"/>
<feBlend mode="normal" in="SourceGraphic" in2="effect3_dropShadow" result="shape"/>
</filter>
<clipPath id="clip0">
<rect width="1306.25" height="1088.54" fill="white" transform="matrix(0.866044 0.499967 -0.866044 0.499967 571.727 72.043)"/>
</clipPath>
</defs>
</svg>
