<svg width="20" height="20" viewBox="0 0 20 20" fill="none" xmlns="http://www.w3.org/2000/svg">
<path d="M10 4.96601C9.78426 4.96601 9.60938 5.13884 9.60938 5.35203C9.60938 5.56521 9.78426 5.73804 10 5.73804C10.2157 5.73804 10.3906 5.56521 10.3906 5.35203C10.3906 5.13884 10.2157 4.96601 10 4.96601Z" fill="black"/>
<path d="M10 6.70319C9.78434 6.70319 9.60942 6.87605 9.60942 7.08921V8.82626C9.60942 8.92863 9.65059 9.02679 9.72383 9.09921L10.8643 10.2262L9.66981 12.0942C9.63036 12.1559 9.60942 12.2274 9.60942 12.3004V14.6164C9.60942 14.8296 9.78434 15.0024 10 15.0024C10.2157 15.0024 10.3907 14.8296 10.3907 14.6164V12.4121L11.4306 10.7858L13.2394 12.5733C13.3919 12.724 13.6393 12.724 13.7918 12.5733C13.9444 12.4226 13.9444 12.1781 13.7918 12.0274L10.3907 8.66633V7.08921C10.3907 6.87605 10.2157 6.70319 10 6.70319Z" fill="black"/>
<path d="M15.1778 11.0563C15.2575 11.136 15.3875 11.1368 15.4681 11.0581L16.1252 10.4166C16.164 10.3788 16.1859 10.3274 16.1862 10.2736L16.1914 9.43609L17.3391 9.18754C17.3771 9.17932 17.4118 9.16066 17.4395 9.1337L18.3156 8.27841C18.3962 8.1997 18.397 8.07125 18.3174 7.99157C18.2377 7.91188 18.1077 7.9111 18.0271 7.98981L17.1932 8.80383L16.194 9.02023L16.2022 7.69196C16.2029 7.57997 16.1116 7.48859 15.9982 7.48789C15.8849 7.48721 15.7924 7.57745 15.7917 7.68949L15.7762 10.1871L15.1796 10.7695C15.099 10.8482 15.0982 10.9767 15.1778 11.0563Z" fill="black"/>
<path fill-rule="evenodd" clip-rule="evenodd" d="M5.71415 15.9987C5.71442 16.2108 5.54059 16.383 5.32595 16.3833C5.11132 16.3836 4.93704 16.2118 4.93676 15.9997L4.93473 14.4304L1.54607 11.0902C1.39405 10.9404 1.39377 10.6972 1.54536 10.547C1.69695 10.3968 1.94308 10.3966 2.09505 10.5463L3.89723 12.3226L4.92992 10.7031L4.92908 10.0585C4.92435 10.0345 4.92187 10.0097 4.92187 9.98429V8.29279L3.1434 9.17151C2.95059 9.26685 2.71586 9.18953 2.61934 8.99884C2.52289 8.80819 2.60109 8.57632 2.79406 8.48097L5.00492 7.3886L7.07926 2.26407H1.78144H0.390625C0.174921 2.26407 0 2.09121 0 1.87806C0 1.6649 0.174921 1.49205 0.390625 1.49205H19.6094C19.8251 1.49205 20 1.6649 20 1.87806C20 2.09121 19.8251 2.26407 19.6094 2.26407H18.2186H12.8441L13.8511 6.24431L16.0341 7.32294C16.2271 7.41828 16.3053 7.65016 16.2088 7.84081C16.1123 8.03158 15.8776 8.10886 15.6847 8.01347L13.9062 7.13476V8.82626C13.9062 9.03941 13.7314 9.21227 13.5156 9.21227C13.2999 9.21227 13.125 9.03941 13.125 8.82626V6.55771L12.0387 2.26407H10.3906V3.61511C10.3906 3.82826 10.2157 4.00112 10 4.00112C9.7843 4.00112 9.60938 3.82826 9.60938 3.61511V2.26407H7.92074L6.5216 5.7206L8.00566 8.65367C8.10211 8.84432 8.0239 9.0762 7.83094 9.17154C7.63812 9.26689 7.40336 9.18957 7.30687 8.99888L6.1334 6.67965L5.70312 7.74257V8.47708C5.704 8.48751 5.70445 8.49806 5.70446 8.50871L5.70744 10.8133C5.70754 10.886 5.6868 10.9571 5.64762 11.0186L4.46144 12.8788L5.59771 13.9988C5.67069 14.0708 5.71178 14.1684 5.71191 14.2702L5.71415 15.9987Z" fill="black"/>
</svg>
