<svg width="1717" height="1019" viewBox="0 0 1717 1019" fill="none" xmlns="http://www.w3.org/2000/svg">
<g filter="url(#filter0_ddd)">
<g clip-path="url(#clip0)">
<path d="M682.359 848.055L270.118 610.068L35.9218 745.27L448.163 983.256L682.359 848.055Z" fill="white" stroke="#3F3D56" stroke-width="3.8589" stroke-miterlimit="10"/>
<path d="M332.33 695.896C333.267 695.199 334.043 694.435 334.638 693.622C334.776 693.483 334.862 693.328 334.89 693.169C334.919 693.009 334.89 692.848 334.805 692.696C334.633 692.526 334.391 692.382 334.101 692.278L329.879 690.487C329.558 690.318 329.151 690.215 328.718 690.192C327.74 690.207 327.402 690.944 326.695 691.335C326.262 691.533 325.734 691.648 325.182 691.665C324.631 691.682 324.085 691.599 323.618 691.428C322.698 691.076 321.919 690.614 321.331 690.074L317.006 686.659C318.996 687.251 321.234 687.509 323.465 687.403C324.937 687.331 326.786 686.677 326.191 685.897C325.981 685.684 325.703 685.496 325.373 685.342C323.035 684.013 323.146 681.84 321.79 680.116C320.888 679.031 319.415 678.139 317.582 677.567C315.749 676.995 313.65 676.772 311.584 676.93L314.181 678.581C314.451 678.721 314.638 678.907 314.713 679.112C314.82 679.741 313.133 679.856 312.448 680.349C311.558 680.989 312.672 681.878 313.571 682.514C314.47 683.15 314.926 684.351 313.563 684.583C306.804 682.681 306.804 676.774 300.895 674.089C299.32 673.473 297.677 672.916 295.978 672.422C285.992 668.985 283.133 661.123 273.852 657.081C271.734 656.214 269.486 655.458 267.135 654.821C265.721 654.323 264.118 654.032 262.465 653.974C261.639 653.96 260.832 654.116 260.187 654.414C259.543 654.712 259.103 655.133 258.947 655.602C256.672 654.488 254.757 653.15 253.291 651.65C253.535 652.144 253.544 652.666 253.318 653.163C253.092 653.659 252.638 654.111 252.005 654.471C248.187 652.885 244.018 651.603 239.608 650.659C239.234 651.526 239.015 652.413 238.955 653.307L232.13 652.449C232.359 652.707 232.485 652.992 232.497 653.283C232.51 653.573 232.409 653.861 232.203 654.126C231.996 654.391 231.689 654.626 231.304 654.813C230.919 655 230.467 655.134 229.979 655.207C232.083 655.673 234.66 655.227 236.556 655.929C237.71 656.469 238.559 657.195 238.995 658.014C239.432 658.835 240.331 659.548 241.549 660.04C242.845 660.449 244.882 660.126 245.073 659.281C250.602 661.031 255.718 663.186 260.291 665.692C260.679 665.866 260.961 666.105 261.099 666.377C261.277 666.944 260.255 667.358 259.518 667.747C258.781 668.136 258.404 668.989 259.352 669.17C257.967 669.113 257.39 670.178 257.425 670.979C257.461 671.781 257.385 672.815 256.069 673.072C255.726 673.138 255.349 673.133 255.008 673.204C254.001 673.412 253.716 674.169 253.867 674.78C254.165 675.374 254.288 675.992 254.232 676.608C254.023 677.214 252.731 677.74 251.892 677.357L252.468 674.558C250.982 674.574 249.534 674.832 248.291 675.304C248.419 676.498 247.751 677.674 246.424 678.593C245.097 679.511 243.211 680.102 241.154 680.243C239.04 680.222 236.937 680.061 234.887 679.763C233.857 679.619 232.785 679.613 231.751 679.747C230.718 679.881 229.751 680.15 228.927 680.534C226.35 682.028 223.74 683.291 222.313 685.232C219.683 688.811 217.444 692.482 215.612 696.223C215.131 697.205 214.723 698.351 215.772 699.173C218.013 696.076 220.469 693.034 223.14 690.048C223.601 690.247 223.977 690.505 224.238 690.801C224.499 691.098 224.639 691.425 224.646 691.757C224.319 692.275 223.801 692.745 223.126 693.134C222.64 693.596 222.288 694.1 222.085 694.627L216.255 706.606C215.577 707.569 215.499 708.638 216.035 709.631C216.679 710.174 217.242 710.747 217.718 711.345C217.942 711.845 217.738 712.387 217.99 712.883C218.705 714.285 222.534 714.598 222.979 716.037C223.011 716.454 223.005 716.871 222.961 717.288C223.143 718.749 226.154 719.58 226.843 720.99C227.089 721.928 226.865 722.887 226.196 723.754C224.98 726.013 224.65 728.723 227.336 730.509C228.282 731.011 229.161 731.555 229.964 732.134C230.65 732.763 230.749 733.714 229.708 734.151C227.923 734.9 226.997 736.313 225.246 737.088C222.056 738.499 216.822 736.907 213.658 738.337C213.038 738.697 212.382 739.035 211.694 739.351C210.772 739.674 209.613 739.701 208.678 740.012C206.908 740.602 206.519 741.981 206.678 743.157C206.838 744.333 207.339 745.557 206.625 746.663C205.87 747.831 203.938 748.587 202.631 749.58C199.778 751.747 200.182 754.809 201.54 757.416C202.084 758.187 202.308 759.02 202.193 759.85C201.859 760.916 200.348 761.701 199.298 762.599C196.728 764.796 196.785 767.862 193.615 769.78C191.361 771.144 187.985 771.612 185.041 772.427C182.237 773.216 179.76 774.346 177.78 775.738C175.801 777.131 174.365 778.753 173.57 780.495C173.276 781.398 172.853 782.285 172.305 783.148C171.156 784.646 168.792 785.74 167.566 787.218C165.945 789.172 166.301 791.765 163.425 793.157C162.241 795.112 163.548 797.163 165.311 798.966L168.471 802.198C168.994 802.844 169.771 803.411 170.74 803.854C171.234 804.067 171.838 804.178 172.455 804.167C173.072 804.156 173.664 804.025 174.135 803.795C172.29 802.341 170.988 800.681 170.308 798.922C169.847 797.144 170.964 795.099 173.733 794.276C175.016 793.895 176.801 793.629 176.975 792.802C177.074 792.328 176.534 791.878 176.547 791.401C176.662 791.035 176.973 790.698 177.436 790.439C177.899 790.18 178.492 790.011 179.13 789.956C180.409 789.861 181.654 789.649 182.817 789.328C183.409 789.093 183.863 788.759 184.118 788.372C184.372 787.984 184.415 787.56 184.241 787.158C185.359 787.45 186.572 787.602 187.799 787.606C188.413 787.601 189.009 787.487 189.506 787.279C190.003 787.072 190.378 786.781 190.579 786.446C191.741 787.312 193.231 788.268 195.123 788.184C195.869 788.101 196.57 787.917 197.168 787.647C197.766 787.377 198.244 787.029 198.563 786.631C199.187 785.833 199.979 785.083 200.92 784.397C203.846 786.254 207.029 787.971 210.437 789.53C211.483 788.416 211.736 787.111 211.143 785.891C212.761 786.555 215.677 786.326 217.448 785.809C219.18 785.238 220.632 784.422 221.666 783.438C221.916 783.173 222.277 782.949 222.715 782.784C223.412 782.637 224.18 782.645 224.868 782.805L235.679 784.493C236.294 784.611 236.94 784.667 237.588 784.659C238.359 784.569 239.077 784.366 239.674 784.071C240.271 783.776 240.728 783.397 241 782.971C241.528 782.118 242.209 781.299 243.032 780.528C245.9 778.382 251.786 779.053 256.075 777.95C257.72 777.469 259.234 776.849 260.564 776.112C262.057 775.362 263.685 774.43 263.513 773.292C263.348 772.201 261.551 771.386 261.278 770.302C261.027 769.309 262.115 768.288 261.633 767.324C261.194 766.448 259.625 765.938 258.792 765.164C257.324 763.801 258.325 761.831 256.574 760.584C255.586 759.881 253.798 759.471 253.536 758.578C253.306 757.792 254.412 757.116 255.226 756.471C256.461 755.451 257.125 754.238 257.128 752.993C257.131 751.749 256.474 750.534 255.245 749.512C254.29 748.75 252.983 748.075 252.64 747.156C252.293 746.224 253.029 745.281 253.136 744.33C253.308 742.799 251.856 741.381 250.456 740.076L244.762 734.767C243.751 733.825 242.212 732.747 240.345 733.006C239.694 733.139 239.078 733.323 238.514 733.553C237.378 733.902 236.079 734.034 234.805 733.93C233.531 733.826 232.347 733.492 231.422 732.975C231.863 732 231.634 730.965 230.784 730.086C230.142 729.565 229.56 729.02 229.044 728.454C228.843 728.117 228.764 727.76 228.81 727.405C228.857 727.05 229.029 726.704 229.315 726.388C229.601 726.073 229.996 725.794 230.475 725.57C230.954 725.345 231.507 725.179 232.101 725.083C233.295 724.889 234.345 724.474 235.089 723.902C235.834 723.33 236.231 722.632 236.221 721.917C236.067 721.227 235.679 720.561 235.079 719.957C234.479 719.353 233.678 718.824 232.723 718.4C233.249 717.583 235.087 717.38 236.593 717.436C238.099 717.491 239.765 717.652 240.992 717.145C242.923 716.348 242.067 714.402 239.969 713.76C237.871 713.119 235.289 713.428 233.075 713.924C231.843 714.26 230.536 714.497 229.192 714.629C228.517 714.689 227.826 714.641 227.196 714.488C226.566 714.336 226.021 714.086 225.622 713.766C224.639 712.808 225.698 711.607 226.738 710.67C228.038 709.376 229.626 708.187 231.459 707.13C233.322 706.068 235.829 705.468 238.447 705.459C242.659 705.563 245.83 707.622 248.473 709.518C248.576 709.091 248.947 708.7 249.514 708.419C250.082 708.139 250.808 707.988 251.556 707.995C252.303 708.02 253.027 708.15 253.667 708.374C254.307 708.598 254.843 708.908 255.228 709.279C255.936 709.902 256.259 710.644 256.147 711.386C255.962 712.465 254.815 713.403 254.286 714.444C253.757 715.484 254.195 716.885 255.992 717.2C257.544 717.472 259.108 716.755 259.975 715.963C260.654 715.113 261.549 714.325 262.63 713.627C264.986 712.468 268.561 713.016 271.456 713.649C274.35 714.283 277.844 714.904 280.326 713.837C280.761 713.598 281.261 713.402 281.805 713.256C282.378 713.181 282.975 713.192 283.539 713.287C293.213 714.428 303.032 715.597 311.793 718.226C312.249 718.363 312.168 718.456 312.607 718.611C313.386 718.731 313.849 718.086 313.693 717.629C313.538 717.172 313.149 716.666 313.586 716.274C313.908 715.986 314.552 715.893 315.03 715.69C315.296 715.555 315.501 715.384 315.627 715.192C315.752 715.001 315.794 714.794 315.748 714.591C315.703 714.388 315.572 714.194 315.367 714.027C315.161 713.86 314.888 713.724 314.571 713.633C314.744 712.915 316.625 713.051 317.717 713.409C320.993 714.484 324.062 715.758 326.87 717.209C327.226 717.358 327.487 717.57 327.613 717.813C327.619 718.035 327.48 718.25 327.222 718.415C326.964 718.579 326.607 718.681 326.224 718.699C325.457 718.72 324.688 718.699 323.927 718.635C323.076 718.629 322.238 718.758 321.505 719.007C320.771 719.257 320.171 719.618 319.769 720.052C320.451 721.261 321.234 722.553 323.022 723.298C324.809 724.042 327.903 723.832 328.561 722.618C329.173 721.487 327.44 720.152 328.501 719.138C329.744 717.95 333.546 718.451 334.636 717.215C335.113 716.673 334.824 716.026 334.794 715.418C334.781 714.687 335.152 713.972 335.856 713.365C336.561 712.758 337.567 712.288 338.743 712.017C337.706 711.598 336.859 711.041 336.272 710.393C335.685 709.746 335.376 709.027 335.37 708.296C335.381 706.934 336.313 705.314 334.593 704.382C333.014 703.526 329.91 703.796 329.024 702.655C328.806 702.375 328.708 702.003 328.207 701.899C328.022 701.876 327.832 701.878 327.649 701.904C327.466 701.93 327.296 701.98 327.151 702.05C325.049 702.843 323.694 704.348 321.244 704.668C318.578 705.017 315.966 703.771 313.242 703.9C311.763 703.971 310.422 704.441 308.955 704.568C307.487 704.695 305.627 704.241 305.614 703.384C306.738 703.16 307.697 702.722 308.335 702.143C308.972 701.563 309.25 700.876 309.123 700.193C308.881 699.53 308.497 698.887 307.978 698.28C307.471 697.558 307.102 696.808 306.875 696.04C306.721 695.68 306.743 695.301 306.939 694.947C307.281 694.56 307.852 694.256 308.549 694.09C310.017 693.681 311.65 693.511 313.273 693.599C314.895 693.687 316.446 694.029 317.757 694.588C318.889 695.085 320.001 695.782 321.42 695.724C322.17 695.694 322.961 695.449 323.631 695.647C324.02 695.797 324.315 696.015 324.471 696.269L326.882 699.172C327.11 699.52 327.491 699.827 327.988 700.064C328.243 700.176 328.562 700.228 328.881 700.21C329.2 700.193 329.496 700.106 329.709 699.967C330.208 699.542 329.554 698.822 330.263 698.512C330.514 698.424 330.805 698.381 331.098 698.39C333.869 698.34 336.625 698.644 339.169 699.281C341.712 699.918 343.98 700.872 345.811 702.074C345.509 702.791 343.853 702.889 342.577 702.912C341.301 702.936 339.629 703.328 339.869 704.052C340.019 704.319 340.283 704.56 340.636 704.752C341.428 705.353 342.048 706.022 342.473 706.736C343.199 707.801 343.848 708.882 344.419 709.979C345.047 709.411 345.919 708.945 346.95 708.628C347.473 708.481 348.073 708.453 348.631 708.548C349.189 708.643 349.666 708.855 349.967 709.142C350.42 709.734 349.82 710.518 350.518 711.024C351.449 711.7 353.415 711.043 353.938 710.235C354.461 709.426 354.397 708.46 355.38 707.809C356.042 707.37 357.195 707.017 357.058 706.44C356.985 706.249 356.836 706.07 356.622 705.918L345.044 696.218C344.356 695.642 343.019 695.008 342.126 695.481C341.628 695.744 341.582 696.264 340.953 696.408C340.283 696.562 339.663 696.155 339.014 695.972C338.488 695.86 337.912 695.848 337.374 695.94C336.835 696.032 336.362 696.222 336.026 696.481C335.374 697.01 334.933 697.615 334.734 698.254C334.197 697.498 332.87 696.65 332.333 695.895L332.33 695.896Z" fill="#3F3D56"/>
<path d="M333.054 682.406C332.455 681.719 331.505 681.154 330.331 680.789C329.158 680.424 327.819 680.276 326.495 680.365C326.221 680.365 325.954 680.41 325.723 680.495C325.493 680.58 325.31 680.701 325.195 680.844C324.998 681.282 325.902 681.586 326.599 681.791C327.65 682.078 328.513 682.553 329.061 683.145C329.386 683.529 329.528 683.958 329.861 684.339C330.002 684.537 330.233 684.709 330.531 684.837C330.828 684.965 331.18 685.044 331.549 685.065C332.237 685.006 332.859 684.797 333.287 684.48C333.474 684.4 333.627 684.296 333.736 684.178C333.844 684.059 333.905 683.927 333.915 683.793C333.831 683.611 333.674 683.444 333.456 683.305C333.037 682.953 332.844 682.528 332.909 682.103" fill="#3F3D56"/>
<path d="M339.595 684.538C339.406 684.416 339.165 684.324 338.897 684.271C338.628 684.219 338.341 684.207 338.062 684.237C337.783 684.267 337.522 684.337 337.305 684.442C337.087 684.547 336.92 684.683 336.819 684.836C337.266 685.288 337.867 685.683 338.585 685.997C338.949 686.151 339.383 686.239 339.834 686.25C340.284 686.262 340.73 686.196 341.116 686.061C340.237 685.71 339.616 685.182 339.375 684.581" fill="#3F3D56"/>
<path d="M359.141 693.074C357.111 692.314 354.933 691.694 352.652 691.228C353.1 691.81 353.212 692.459 352.973 693.081C352.733 693.702 352.154 694.263 351.321 694.68C350.957 694.815 350.654 694.998 350.439 695.215C350.185 695.567 350.539 695.958 350.882 696.283C351.448 696.896 352.19 697.45 353.076 697.92C353.523 698.153 354.064 698.318 354.65 698.399C355.235 698.481 355.847 698.477 356.429 698.388C356.902 698.257 357.389 698.143 357.886 698.047C360.626 697.719 361.853 700.737 364.619 700.487C365.593 700.399 366.403 699.888 367.385 699.939C367.857 699.987 368.3 700.102 368.676 700.273C371.488 701.358 374.195 702.531 376.784 703.787C378.012 704.381 379.888 704.997 381.031 704.348C377.614 701.412 372.612 699.209 366.803 698.083C364.705 697.68 361.383 697.463 360.965 696.149C360.808 695.658 361.769 695.132 361.466 694.506C361.004 693.887 360.181 693.38 359.141 693.075L359.141 693.074Z" fill="#3F3D56"/>
<path d="M370.446 702.603L372.058 703.977C371.707 703.755 371.278 703.58 370.8 703.461C370.322 703.343 369.806 703.285 369.286 703.291C368.766 703.297 368.254 703.367 367.785 703.497C367.315 703.626 366.899 703.812 366.564 704.041C367.809 705.481 370.454 706.306 372.34 707.491C374.226 708.675 375.11 710.81 372.832 711.737C372.143 712.017 371.218 712.16 370.825 712.59C370.645 712.914 370.519 713.247 370.449 713.585C370.203 713.912 369.804 714.192 369.297 714.395C368.791 714.598 368.196 714.715 367.58 714.734C366.362 714.834 365.104 714.75 363.906 714.912C360.926 715.315 359.196 717.062 357.82 718.641C357.24 719.203 356.878 719.83 356.76 720.481C356.696 721.68 358.244 722.681 359.692 723.541C360.745 724.168 362.023 724.844 363.528 724.756C365.493 724.642 366.563 723.311 368.414 722.914C370.095 722.553 371.934 723.044 373.504 723.545C376.314 724.529 379.248 725.389 382.282 726.118C386.109 726.935 390.437 727.265 393.472 728.838C394.248 729.324 395.115 729.759 396.057 730.135C396.536 730.316 397.107 730.401 397.678 730.375C398.25 730.35 398.791 730.216 399.217 729.994C399.857 729.567 399.78 728.938 399.844 728.375C399.908 727.811 400.349 727.143 401.318 727.067L410.279 730.612C411.202 729.461 412.706 728.111 414.886 728.273C415.672 728.332 416.403 728.596 417.195 728.575C417.86 728.505 418.451 728.289 418.844 727.971C419.236 727.653 419.397 727.26 419.294 726.874C419.029 726.105 418.374 725.397 417.412 724.843C414.293 722.813 410.937 720.909 407.366 719.145L386.846 708.531C385.553 707.72 384.065 707.02 382.429 706.451C380.985 706.217 379.578 705.912 378.224 705.539C375.635 704.562 373.584 703.028 370.446 702.603L370.446 702.603Z" fill="#3F3D56"/>
<path d="M390.426 732.353C390.255 732.217 390 732.124 389.713 732.094C389.478 732.1 389.253 732.153 389.076 732.243C388.212 732.593 387.61 733.118 387.388 733.714C387.287 734.01 387.326 734.317 387.499 734.602C387.673 734.887 387.976 735.14 388.376 735.335C389.39 735.788 390.819 735.727 392.019 735.988C393.869 736.391 400.175 738.994 398.455 735.668C397.862 734.521 396.414 734.396 394.939 734.074C393.192 733.748 391.631 733.153 390.426 732.353V732.353Z" fill="#3F3D56"/>
<path d="M440.11 741.503C439.495 741.354 438.811 741.326 438.166 741.425C437.85 741.482 437.583 741.606 437.421 741.773C437.26 741.94 437.215 742.136 437.298 742.322C437.402 742.45 437.547 742.566 437.726 742.662L439.45 743.718C440.182 744.167 440.964 744.804 440.439 745.341C440.05 745.739 439.019 745.945 439.04 746.403C439.079 746.581 439.207 746.75 439.408 746.888C439.843 747.312 440.435 747.676 441.14 747.954C442.779 748.5 442.889 747.653 443.998 747.482C445.696 747.221 444.937 747.535 446.651 747.813C447.916 748.018 449.788 748.146 450.271 747.086C451.111 745.244 442.712 742.005 440.11 741.503L440.11 741.503Z" fill="#3F3D56"/>
<path d="M476.181 761.156L475.012 760.64C472.432 759.434 469.68 758.356 466.785 757.417C467.371 758.198 468.139 758.93 469.067 759.591C469.61 759.937 470.096 760.311 470.52 760.708C471.215 761.449 471.451 762.464 472.797 762.791C473.631 762.994 474.441 762.749 475.259 762.844C475.824 762.909 477.475 763.44 477.847 763.392C480.852 762.999 477.193 761.603 476.181 761.156V761.156Z" fill="#3F3D56"/>
<path d="M476.022 766.477C473.874 766.126 471.66 765.929 469.429 765.889C468.963 765.847 468.488 765.865 468.036 765.939C467.583 766.014 467.164 766.145 466.807 766.322C465.984 766.865 466.412 767.702 466.881 768.371L468.782 771.081C469.746 770.986 470.158 770.325 470.299 769.767C470.439 769.209 470.589 768.555 471.438 768.276C472.407 767.957 473.594 768.342 474.503 768.716C475.984 769.324 479.386 771.308 481.018 769.892C482.94 768.223 478.005 766.801 476.022 766.477V766.477Z" fill="#3F3D56"/>
<path d="M339.163 844.72C338.535 844.873 337.976 845.107 337.53 845.405C337.084 845.702 336.762 846.055 336.59 846.436C336.497 846.874 336.626 847.319 336.961 847.716C337.296 848.114 337.822 848.447 338.477 848.676C339.807 849.121 341.345 849.314 342.875 849.227C344.21 849.186 345.526 849.026 346.776 848.753C348.662 848.292 350.447 847.704 352.094 847.001L358.492 844.489C359.922 843.928 363.596 841.797 360.188 841.215C359.257 841.056 355.273 841.744 353.907 841.803C351.445 841.908 350.011 842.562 347.809 843.141C345.05 843.866 341.868 843.96 339.163 844.72Z" fill="#3F3D56"/>
<path d="M428.268 927.918C427.828 927.338 427.46 926.741 427.169 926.13C424.634 926.813 422.315 927.737 420.309 928.862L428.05 930.101C429.214 930.288 430.642 930.437 431.48 929.934C431.593 929.877 431.676 929.804 431.722 929.722C431.768 929.64 431.775 929.552 431.742 929.468C431.676 929.379 431.571 929.302 431.436 929.244C430.581 928.902 429.651 928.626 428.671 928.424C428.181 928.321 427.736 928.158 427.366 927.947C426.995 927.735 426.709 927.48 426.525 927.198" fill="#3F3D56"/>
<path d="M452.685 943.931C451.995 943.703 451.275 943.507 450.531 943.344C448.819 943.023 446.951 943.21 445.17 943.06C443.478 942.863 441.851 942.514 440.348 942.025C440.19 942.034 440.038 942.063 439.901 942.108C439.764 942.153 439.646 942.215 439.553 942.289C439.46 942.363 439.395 942.447 439.363 942.536C439.33 942.625 439.331 942.717 439.364 942.807C439.535 943.166 439.887 943.487 440.376 943.73C441.445 944.496 442.843 945.088 444.431 945.446C445.407 945.566 446.4 945.632 447.398 945.643C449.643 945.817 451.836 946.168 453.916 946.687C454.648 946.878 455.433 946.992 456.235 947.024C458.056 947.032 459.515 946.264 458.5 945.322C457.68 944.562 454.032 944.329 452.685 943.931V943.931Z" fill="#3F3D56"/>
<path d="M471.734 946.238C472.415 945.913 472.96 945.503 473.327 945.039C473.694 944.575 473.873 944.069 473.851 943.559C472.709 944.34 471.197 944.911 469.501 945.203C468.269 945.339 466.992 945.173 465.747 945.261C465.12 945.269 464.518 945.405 464.048 945.645C463.578 945.885 463.271 946.213 463.18 946.572C463.278 946.988 463.605 947.375 464.114 947.676C465.239 948.499 466.632 949.4 468.449 949.385C469.44 949.376 470.422 949.083 471.388 949.213C471.703 949.288 472.043 949.32 472.383 949.309C473.02 949.225 473.144 948.702 472.845 948.367C472.546 948.031 471.995 947.79 471.687 947.457C471.378 947.125 471.47 946.604 472.099 946.502" fill="#3F3D56"/>
<path d="M496.883 908.075C496.05 907.783 495.316 907.406 494.716 906.964C493.964 906.124 493.563 905.194 493.546 904.249C493.026 902.032 491.302 899.968 488.622 898.353C486.177 896.887 482.987 895.825 481.011 894.141C480.693 894.461 480.508 894.82 480.47 895.189C480.432 895.559 480.542 895.928 480.791 896.268C481.207 896.966 481.903 897.598 482.331 898.293C483.009 899.41 482.967 900.631 482.213 901.731C481.781 902.216 481.449 902.728 481.223 903.257C481.199 903.814 481.412 904.367 481.842 904.866C482.273 905.365 482.909 905.796 483.694 906.121C485.585 907.078 487.948 907.853 488.938 909.187C489.472 910.255 489.725 911.362 489.688 912.473C489.883 913.578 490.73 914.803 492.561 915.144C491.711 914.183 491.415 913.09 491.716 912.025C492.018 910.96 492.901 909.979 494.237 909.224C495.315 909.973 498.778 911.923 500.611 910.652C502.164 909.574 498.087 908.557 496.883 908.075L496.883 908.075Z" fill="#3F3D56"/>
<path d="M467.438 907.139C468.805 906.593 470.979 906.67 471.739 905.816C471.938 905.504 471.97 905.165 471.83 904.842C471.69 904.519 471.386 904.228 470.956 904.007C470.162 903.527 469.122 903.206 468.287 902.75C467.786 902.428 467.248 902.127 466.677 901.847C464.799 901.069 462.114 901.471 459.993 900.94C458.789 900.523 457.63 900.065 456.521 899.569C453.765 898.641 450.323 899.034 447.135 899.113C441.996 899.234 436.913 898.461 432.544 896.895C431.126 896.25 429.472 895.799 427.707 895.577C425.334 895.439 423.183 896.309 421.232 897.101C415.841 899.286 410.111 901.177 404.115 902.751L408.635 906.124C409.417 906.801 410.439 907.374 411.633 907.805C412.583 908.053 413.584 908.229 414.612 908.33C418.352 908.835 421.867 909.787 424.929 911.126C426.535 911.761 427.832 912.623 428.697 913.63C429.116 914.136 429.286 914.698 429.191 915.257C429.096 915.815 428.738 916.347 428.156 916.796C428.878 917.015 429.483 917.344 429.908 917.746C430.332 918.148 430.558 918.609 430.564 919.08C430.548 920.025 430.019 920.944 429.051 921.707C428.478 922.195 427.765 922.764 428.126 923.315C428.42 923.765 429.297 923.97 429.931 924.281C432.082 925.339 431.412 927.634 433.77 928.534C436.299 929.498 439.959 927.981 442.638 928.8C444.176 929.27 445.386 930.477 447.044 930.17C448.505 929.9 448.628 928.685 449.81 928.121C451.266 927.426 453.399 928.005 455.176 928.376C458.284 928.948 461.653 928.814 464.596 928.001C467.539 927.187 469.833 925.757 471.011 924C472.266 921.894 471.841 919.419 474.1 917.613C475.838 916.223 479.072 915.3 479.382 913.595C479.539 912.728 478.859 911.806 479.449 911.004C479.948 910.537 480.518 910.098 481.152 909.69C481.675 909.232 481.79 908.503 480.969 908.226C478.586 907.422 472.152 910.44 469.725 910.675C468.956 910.761 468.158 910.687 467.474 910.465C466.791 910.244 466.265 909.89 465.991 909.466C465.716 909.042 465.711 908.576 465.976 908.15C466.241 907.724 466.758 907.366 467.437 907.139L467.438 907.139Z" fill="#3F3D56"/>
<path d="M444.258 880.239C443.882 879.732 443.226 879.312 442.391 879.045C441.514 878.837 440.246 879.153 440.292 879.699C444.433 881.785 448.25 884.075 451.699 886.545C455.525 889.455 458.408 892.856 463.303 895.171C461.51 893.269 459.524 891.43 457.357 889.664L453.831 886.666C452.906 885.85 451.907 885.063 450.838 884.307C448.557 882.753 446.017 882.046 444.258 880.239V880.239Z" fill="#3F3D56"/>
<path d="M461.658 874.679C461.363 874.477 460.987 874.234 460.543 874.297C460.119 874.358 459.952 874.665 459.57 874.787C459.047 874.954 458.413 874.707 458.049 874.434C457.768 874.128 457.33 873.88 456.794 873.725C456.478 873.691 456.151 873.716 455.862 873.798C455.573 873.881 455.338 874.014 455.192 874.18C454.914 874.516 454.768 874.883 454.766 875.255C454.623 875.97 454.621 876.692 454.76 877.407C455.109 878.746 456.442 880.063 455.853 881.373C455.694 881.601 455.631 881.848 455.669 882.093C455.801 882.272 456.007 882.43 456.269 882.553C456.53 882.677 456.839 882.761 457.17 882.801L459.387 883.278C459.76 883.379 460.171 883.424 460.582 883.409C460.976 883.334 461.324 883.195 461.588 883.011C461.852 882.826 462.021 882.602 462.076 882.365C462.175 881.888 462.529 881.44 463.09 881.084C464.24 880.548 465.974 881.09 467.412 880.894C468.862 880.696 469.656 879.822 470.771 879.252C472.075 878.585 474.448 878.108 474.123 876.86C473.847 875.799 472.117 875.632 470.496 875.692C467.078 875.818 464.353 876.518 461.658 874.679L461.658 874.679Z" fill="#3F3D56"/>
<path d="M489.269 869.406C488.793 870.28 489.283 871.248 488.881 872.135C488.445 873.096 487.018 873.839 486.666 874.811C486.305 875.808 487.127 876.923 486.322 877.83C485.444 878.82 482.918 879.182 482.542 880.273C482.498 880.461 482.522 880.653 482.613 880.836C482.704 881.019 482.86 881.188 483.07 881.335C483.281 881.481 483.542 881.6 483.836 881.685C484.131 881.77 484.453 881.819 484.782 881.828C485.449 881.812 486.078 881.646 486.535 881.365C486.993 881.085 487.243 880.713 487.232 880.327C487.192 879.833 486.725 879.359 486.828 878.868C486.909 878.596 487.095 878.339 487.373 878.115C488.13 877.443 489.158 876.887 490.369 876.495C490.709 876.415 490.999 876.277 491.201 876.099C491.522 875.719 490.894 875.317 490.655 874.917C490.114 874.009 491.632 873.162 492.978 872.599C492.082 872.974 490.642 870.624 490.792 870.205C491.089 869.372 493.08 868.583 493.928 867.962C492.979 867.816 491.969 867.884 491.104 868.152C490.238 868.42 489.582 868.869 489.269 869.406L489.269 869.406Z" fill="#3F3D56"/>
<path d="M446.21 862.222C446.27 861.6 446.1 860.814 445.075 860.619C444.671 860.57 444.251 860.605 443.887 860.718C443.524 860.831 443.241 861.014 443.089 861.235C442.807 861.684 442.734 862.168 442.876 862.639C443.26 864.126 443.46 865.627 443.474 867.13C443.255 869.817 441.141 872.394 441.308 875.083C441.272 875.663 441.567 876.234 442.146 876.709C442.45 876.938 442.89 877.094 443.381 877.146C443.873 877.198 444.38 877.142 444.804 876.99C445.087 876.818 445.304 876.613 445.441 876.389C445.577 876.165 445.631 875.927 445.597 875.69C445.679 874.561 445.592 873.427 445.772 872.302C445.773 871.83 446.052 871.372 446.564 871.004C447.138 870.673 448.256 870.626 448.67 871.029C448.167 870.539 448.791 869.6 448.011 868.905C447.359 868.325 446.646 868.505 446.082 867.692C445.008 866.14 446.052 863.834 446.209 862.222L446.21 862.222Z" fill="#3F3D56"/>
<path d="M545.827 855.742C545.448 855.338 545.107 854.923 544.806 854.497C543.828 853.449 540.954 852.975 539.694 853.917C538.857 854.543 539.103 855.434 538.764 856.2C538.412 856.751 537.875 857.257 537.182 857.687C536.489 858.117 535.655 858.463 534.728 858.706C534.205 858.898 533.62 859.029 533.008 859.088C532.275 859.101 531.544 859.032 530.856 858.886C527.913 858.407 524.836 858.263 521.798 858.46C521.495 858.466 521.2 858.518 520.944 858.611C520.389 858.855 520.525 859.344 520.395 859.739C520.107 860.617 518.444 861.062 517.412 861.729C517.248 861.812 517.124 861.919 517.051 862.038C516.979 862.158 516.96 862.286 516.997 862.41C517.18 862.734 517.941 862.803 518.507 862.708C520.386 862.395 521.826 860.983 523.663 861.369C524.011 861.443 524.345 861.582 524.711 861.553C525.293 861.507 525.541 861.085 526.062 860.93C526.846 860.698 527.684 861.151 528.28 861.525C529.308 862.17 530.522 862.707 531.869 863.11C532.366 863.287 532.942 863.376 533.525 863.365C533.937 863.307 534.325 863.203 534.667 863.058C535.01 862.914 535.299 862.731 535.519 862.522C538.108 860.594 540.035 858.398 541.194 856.052C542.021 856.83 543.274 857.427 544.755 857.748C545.608 857.87 547.207 857.683 547.598 857.153C548.215 856.315 546.59 856.383 545.827 855.742V855.742Z" fill="#3F3D56"/>
<path d="M388.345 783.653C387.84 784.165 387.117 784.595 386.243 784.901C385.799 785.044 385.279 785.088 384.782 785.023C384.286 784.958 383.848 784.79 383.554 784.55C383.182 784.148 383.41 783.66 383.44 783.205C383.608 780.673 377.533 778.687 379.046 776.309C379.664 775.339 381.403 774.753 382.253 773.843C382.726 773.306 382.876 772.693 382.68 772.102C382.485 771.51 381.954 770.973 381.172 770.574C380.404 770.243 379.555 769.978 378.653 769.789C372.885 768.363 367.48 766.491 362.586 764.225C361.696 763.77 360.716 763.379 359.667 763.058C357.085 762.508 354.241 762.532 351.689 763.127C349.168 763.723 346.556 764.182 343.888 764.501C341.027 764.593 338.157 764.463 335.356 764.114C334.328 763.986 333.263 764 332.247 764.156C331.204 764.422 330.288 764.83 329.578 765.345L320.164 771.163C318.86 771.862 317.832 772.715 317.147 773.663C316.447 774.876 316.914 776.205 316.636 777.474C316.344 778.774 315.284 779.975 313.633 780.876C312.968 781.236 312.141 781.64 312.238 782.164C312.345 782.455 312.6 782.72 312.97 782.928L325.074 791.161C327.204 792.61 329.462 794.274 329.209 796.168C329.09 797.062 328.465 798.085 329.47 798.769C329.966 799.025 330.497 799.257 331.057 799.464C331.629 799.821 332.03 800.258 332.22 800.731C332.411 801.205 332.384 801.699 332.143 802.165C331.628 803.61 330.277 804.911 328.311 805.855C327.073 806.445 325.625 806.877 324.417 807.487C319.821 809.808 319.73 814.078 315.483 816.612C312.985 818.102 309.406 818.776 305.979 819.397C305.002 822.151 299.622 823.464 297.017 825.84C294.546 828.094 294.708 831.069 292.171 833.298C291.01 834.318 289.225 835.369 289.762 836.55C290.053 837.037 290.555 837.472 291.221 837.814C294.973 840.032 299.58 841.705 304.666 842.697C307.056 843.162 309.894 843.434 311.934 842.579C313.579 841.889 314.447 840.556 316.417 840.265C318.738 839.922 320.835 841.266 323.227 841.353C327.107 841.493 328.967 838.563 332.422 837.533C335.527 836.608 339.362 837.378 342.756 836.898C344.169 836.664 345.512 836.307 346.737 835.839C349.758 834.772 352.605 833.55 355.245 832.188C356.798 831.33 358.426 830.52 360.123 829.759C370.086 825.602 384.317 827.182 395.316 824.013C396.367 823.71 397.539 823.176 397.284 822.515C397.067 822.16 396.645 821.86 396.09 821.664L389.246 818.598C388.336 818.261 387.603 817.786 387.127 817.225C386.912 816.941 386.899 816.619 387.093 816.329C387.287 816.039 387.671 815.806 388.162 815.679C391.063 815.195 391.303 812.605 392.276 810.955C394.895 806.51 396.776 801.931 397.893 797.28C397.907 797.016 398.07 796.761 398.357 796.555L400.024 797.584C401.531 796.042 402.856 794.167 401.591 792.554C400.729 791.687 399.567 790.931 398.175 790.334C394.515 788.305 391.222 786.066 388.345 783.653L388.345 783.653Z" fill="#3F3D56"/>
<path d="M446.131 762.653C445.864 763.74 446.25 764.847 447.223 765.79C449.262 767.312 453.359 766.886 456.529 766.292C456.033 766.624 455.782 767.054 455.827 767.492C455.873 767.929 456.212 768.339 456.773 768.634C457.447 768.911 458.213 769.105 459.023 769.203C466.185 770.415 472.713 772.636 478.021 775.665C478.37 775.405 478.874 775.229 479.435 775.17C479.995 775.112 480.574 775.176 481.058 775.349C482.344 775.846 482.383 776.939 481.937 777.794C481.296 778.608 480.91 779.48 480.798 780.372C480.899 781.263 482.522 782.164 483.892 781.748C485.206 781.35 485.017 780.253 484.74 779.41C484.463 778.568 484.643 777.408 486.1 777.242C491.617 779.144 496.835 781.322 501.695 783.749C502.441 784.21 503.343 784.578 504.346 784.829C504.852 784.948 505.412 784.967 505.939 784.883C506.466 784.799 506.93 784.618 507.26 784.366C506.037 783.929 505.067 783.291 504.475 782.535C503.882 781.778 503.693 780.936 503.932 780.118C510.747 783.452 517.887 787.062 520.504 791.994C519.736 793.21 515.128 791.931 514.744 793.206C514.744 793.412 514.826 793.616 514.983 793.802C515.141 793.987 515.37 794.149 515.653 794.275C519.347 796.617 523.38 798.774 527.707 800.722C529.398 801.345 530.934 802.099 532.272 802.962C534.325 804.482 534.766 806.541 536.561 808.166C536.887 808.511 537.331 808.814 537.866 809.057C538.401 809.3 539.016 809.478 539.673 809.58C540.002 809.62 540.341 809.622 540.671 809.585C541 809.548 541.314 809.473 541.592 809.365C541.871 809.256 542.108 809.116 542.29 808.953C542.473 808.79 542.596 808.608 542.653 808.417C546.95 808.442 550.025 810.825 551.869 813.066C553.714 815.306 554.784 817.82 557.587 819.7C559.597 821.049 562.385 821.983 564.16 823.437C565.153 824.397 566.061 825.384 566.881 826.397C568.677 828.239 571.463 829.677 574.019 831.191C580.537 835.057 585.773 839.579 589.469 844.534C590.007 845.145 590.307 845.817 590.346 846.503C590.354 846.845 590.184 847.181 589.859 847.468C589.533 847.755 589.066 847.978 588.518 848.11L583.101 843.913C582.522 844.937 583.868 845.945 584.718 846.905C585.568 847.864 585.483 849.416 583.646 849.606C582.718 848.57 580.125 848.644 578.186 848.969C576.247 849.295 573.911 849.677 572.409 848.898C571.063 848.2 570.607 846.681 568.803 846.761C568.502 848.262 567.913 849.739 567.046 851.165C566.155 852.629 564.582 854.213 561.929 854.461C561.479 854.519 561.009 854.485 560.598 854.364C559.46 853.973 559.981 852.991 560.003 852.227C559.802 851.268 559.225 850.349 558.318 849.538C557.605 848.667 557.217 847.54 558.307 846.811C559.081 846.409 560.008 846.118 561.013 845.961C562.632 845.579 564.077 844.986 565.235 844.23C566.234 843.646 566.827 842.871 566.901 842.051C566.914 841.644 566.676 841.248 566.231 840.932C565.786 840.616 565.162 840.401 564.469 840.326C563.815 840.291 563.055 840.399 562.573 840.142C561.722 839.686 562.522 838.498 561.374 838.399C560.932 838.744 560.294 838.988 559.571 839.088C555.891 838.94 553.592 836.777 550.45 835.661C548.899 835.164 547.239 834.789 545.515 834.544C544.942 834.412 544.314 834.38 543.709 834.453C543.262 834.569 542.897 834.77 542.675 835.023C542.452 835.275 542.386 835.564 542.487 835.841C542.716 836.392 543.154 836.907 543.77 837.349C546.278 839.473 548.509 841.808 548.964 844.365C549.42 846.922 547.737 849.742 543.912 851.058L543.641 844.172C541.425 845.718 539.103 847.211 536.673 848.65C536.232 848.95 535.683 849.191 535.064 849.355C533.668 849.659 532.167 849.165 530.922 848.691C530.58 848.557 530.193 848.466 529.786 848.424C529.379 848.382 528.961 848.391 528.56 848.449C528.159 848.507 527.783 848.613 527.458 848.761C527.134 848.908 526.867 849.094 526.675 849.306C525.991 850.251 525.671 851.271 525.737 852.295C525.8 853.323 525.288 854.336 524.277 855.183C523.141 855.966 520.796 856.234 519.634 855.463C519.26 855.141 519.038 854.768 518.989 854.381C518.939 853.995 519.065 853.607 519.354 853.257C519.943 852.561 520.378 851.825 520.647 851.067C521.019 848.733 515.951 846.899 516.66 844.591C515.766 844.624 514.901 844.788 514.147 845.068C513.393 845.347 512.775 845.734 512.353 846.19C512.949 846.323 513.447 846.571 513.762 846.892C514.077 847.213 514.188 847.587 514.078 847.95C513.822 848.671 513.464 849.379 513.006 850.067C512.56 851.027 512.595 852.126 511.465 852.876C510.983 853.128 510.53 853.399 510.11 853.685C509.679 854.246 509.449 854.852 509.435 855.466C509.141 856.161 508.558 856.804 507.736 857.34C506.915 857.877 505.879 858.289 504.719 858.542C502.393 859.034 499.939 859.295 497.462 859.314C493.16 859.543 488.83 859.552 484.525 859.34C483.312 859.206 482.065 859.208 480.854 859.347C480.251 859.425 479.709 859.615 479.311 859.888C478.913 860.16 478.681 860.501 478.65 860.857C478.162 860.601 477.097 860.251 476.608 859.996C478.312 858.823 480.154 857.718 482.12 856.69C481.165 855.12 476.822 855.342 475.034 856.648C473.246 857.954 473.086 859.738 472.377 861.351C471.98 862.558 470.858 863.646 469.207 864.422C468.365 864.79 467.322 864.972 466.268 864.934C465.213 864.897 464.217 864.642 463.461 864.216C461.304 862.733 463.708 860.204 461.756 858.63C461.598 858.482 461.36 858.37 461.08 858.309C460.542 858.219 460.017 858.452 459.602 858.669C457.426 859.649 455.658 860.898 454.429 862.325C452.919 864.477 453.584 867.401 450.202 868.659C448.47 865.921 450.417 862.853 453.141 860.399C455.864 857.944 459.398 855.757 461.325 853.062C458.951 853.231 457.867 851.333 458.315 849.976C458.74 848.69 459.72 847.484 460.189 846.204C460.504 845.573 460.56 844.909 460.353 844.264C460.146 843.619 459.681 843.011 458.995 842.488C457.394 841.473 454.785 841.298 452.415 841.187C450.476 841.021 448.498 841.083 446.601 841.368C443.904 841.891 442.015 843.252 439.961 844.388C437.859 845.708 434.999 846.544 431.911 846.738C428.838 846.801 425.548 845.542 425.348 843.771C425.381 842.84 425.831 841.929 426.655 841.129C430.059 837.116 433.856 833.218 438.028 829.454C436.533 830 433.889 830.289 433.584 829.284C433.548 829.039 433.601 828.794 433.742 828.562C435.068 825.592 433.474 822.431 431.065 819.697C428.657 816.963 425.441 814.48 423.187 811.702C421.925 810.145 420.976 808.51 420.359 806.828C419.248 806.95 418.215 807.243 417.37 807.676C416.524 808.11 415.897 808.667 415.555 809.289C415.254 809.918 415.324 810.587 415.753 811.191C416.182 811.795 416.945 812.3 417.924 812.626C418.959 812.934 420.166 813.002 421.213 813.296C421.759 813.414 422.215 813.64 422.499 813.933C422.783 814.227 422.877 814.569 422.764 814.899C422.372 815.501 421.011 815.718 420.506 816.292C419.737 817.166 421.37 818.21 420.933 819.157C420.701 819.497 420.286 819.785 419.749 819.979C419.212 820.173 418.582 820.261 417.951 820.232C416.693 820.159 415.458 819.989 414.278 819.728C410.337 819.079 406.131 819.427 402.047 819.229C397.963 819.031 393.474 818.017 392.036 815.801C395.849 814.326 394.394 810.787 396.866 808.554C397.679 807.819 398.907 807.248 399.595 806.472C400.593 805.348 400.299 804.01 400.343 802.747C400.411 801.207 401.013 799.691 402.113 798.288C403.213 796.884 404.788 795.623 406.747 794.576C408.225 793.929 409.543 793.168 410.665 792.315C411.208 791.879 411.482 791.351 411.444 790.816C411.406 790.28 411.057 789.767 410.454 789.358C407.33 787.707 403.338 785.66 404.319 783.281C404.669 782.432 405.758 781.522 407.27 781.589C407.791 781.656 408.283 781.782 408.719 781.96C409.154 782.137 409.524 782.363 409.807 782.625L415.885 786.899C417.307 787.899 418.884 788.957 421.061 789.262C423.238 789.567 426.013 788.643 425.729 787.359C425.523 786.422 423.844 785.497 424.705 784.693C425.421 784.024 427.524 784.009 427.748 783.232C427.908 782.675 426.848 782.243 425.879 782.17C424.903 782.18 423.927 782.141 422.963 782.054C421.327 781.756 420.575 780.706 419.779 779.829C418.984 778.952 417.463 778.038 415.827 778.335C413.997 778.666 413.606 780.26 411.778 780.595C409.362 781.039 407.479 778.905 404.952 779.028C402.052 779.169 401.939 781.811 399.483 782.711C398.629 782.545 397.863 782.253 397.262 781.865C396.661 781.477 396.245 781.005 396.054 780.496C395.885 779.985 395.96 779.456 396.27 778.967C396.58 778.478 397.114 778.047 397.815 777.719C398.829 777.261 400.222 777.001 400.76 776.326C401.077 775.748 401.029 775.124 400.625 774.565L397.694 768.693C395.958 768.993 395.328 770.245 395.442 771.289C395.556 772.334 396.122 773.398 395.639 774.406C395.266 775.083 394.459 775.652 393.384 775.997C392.309 776.342 391.046 776.437 389.853 776.263C389.695 776.246 389.544 776.21 389.413 776.157C389.281 776.103 389.171 776.034 389.09 775.954C389.047 775.858 389.038 775.758 389.063 775.66C389.088 775.562 389.146 775.468 389.235 775.384C391.037 773.009 392.218 770.323 390.989 767.829C389.76 765.335 385.455 763.217 381.033 763.669C379.982 763.777 378.988 764.016 377.957 764.176C372.484 765.027 366.552 763.5 362.653 761.126C362.24 760.912 361.941 760.634 361.794 760.325C361.594 759.693 362.572 759.162 363.452 758.769L367.185 757.099C367.864 756.709 368.777 756.485 369.734 756.474C371.061 756.565 371.763 757.396 372.721 757.934C373.471 758.328 374.412 758.579 375.418 758.654C376.423 758.729 377.444 758.623 378.342 758.352C379.224 758.063 379.953 757.641 380.45 757.131C380.947 756.621 381.193 756.042 381.163 755.457C381.136 754.972 381.066 754.342 381.843 754.157C382.086 754.122 382.34 754.118 382.585 754.146C382.831 754.174 383.064 754.232 383.266 754.317C385.457 755.013 387.38 755.974 389.631 756.602C390.719 756.961 391.944 757.159 393.197 757.178C394.449 757.197 395.691 757.037 396.81 756.711C397.459 756.476 398.154 756.138 398.89 756.261C399.228 756.34 399.536 756.458 399.795 756.606C400.829 757.055 402.116 757.263 403.403 757.191C404.69 757.119 405.883 756.771 406.748 756.216C407.399 756.35 407.964 756.595 408.366 756.919C408.768 757.244 408.988 757.631 408.996 758.03C408.988 758.828 409.247 759.619 409.759 760.36C411.036 761.649 414.287 761.731 416.113 762.777C416.734 763.287 417.5 763.733 418.379 764.097C419.372 764.366 420.533 764.198 421.63 764.212C422.726 764.225 424.036 764.604 423.975 765.236L426.796 763.099C427.458 763.74 428.351 764.292 429.414 764.718C430.476 765.143 431.684 765.433 432.956 765.566L429.189 761.172C429.04 761.029 428.955 760.867 428.941 760.7C428.973 760.204 430.078 760.041 430.921 759.943C432.937 759.708 435.068 758.634 434.347 757.522C433.856 756.763 432.325 756.45 430.974 756.228L424.506 755.167C423.584 755.547 424.102 756.363 424.169 757.015C424.209 757.409 424.041 757.802 423.688 758.141C423.335 758.479 422.813 758.748 422.19 758.913C421.567 759.077 420.872 759.128 420.198 759.06C419.523 758.993 418.9 758.808 418.41 758.532C418.328 758.896 418.105 759.243 417.759 759.55C417.412 759.857 416.951 760.115 416.408 760.305L413.413 758.808C413.036 758.663 412.774 758.438 412.683 758.182C412.65 757.856 413.156 757.611 413.48 757.344C413.822 757.002 413.979 756.609 413.933 756.215C413.887 755.821 413.638 755.443 413.22 755.131C412.363 754.515 411.3 754.005 410.095 753.632C409.552 753.484 409.124 753.225 408.894 752.905C408.815 752.691 408.86 752.468 409.021 752.27C409.375 751.877 409.898 751.544 410.54 751.302C411.181 751.06 411.92 750.917 412.685 750.888C414.212 750.84 415.744 750.877 417.258 750.998C420.913 751.136 424.561 750.681 427.791 749.685C429.973 750.201 432.442 750.615 434.624 751.13C438.196 751.806 441.371 753.044 443.791 754.705L448.901 757.77C450.511 758.624 451.833 759.643 452.799 760.776C453.268 761.347 453.458 761.98 453.348 762.609C453.239 763.237 452.834 763.837 452.177 764.342C452.032 764.46 451.838 764.554 451.613 764.617C451.388 764.679 451.139 764.708 450.889 764.7C450.578 764.647 450.298 764.545 450.082 764.405C448.593 763.604 447.621 763.457 446.132 762.656L446.131 762.653Z" fill="#3F3D56"/>
<path d="M388.283 748.108C388.679 748.114 389.071 748.057 389.415 747.943C389.758 747.829 390.041 747.663 390.232 747.463C389.928 747.066 389.438 746.727 388.818 746.483C388.198 746.238 387.472 746.099 386.722 746.08C386.101 746.082 385.484 746.131 384.885 746.227C383.966 746.295 383.081 746.475 382.29 746.754C381.499 747.033 380.818 747.405 380.293 747.847C380.189 747.944 380.12 748.052 380.09 748.165C380.059 748.278 380.068 748.393 380.116 748.504C380.223 748.648 380.384 748.776 380.589 748.878C381.344 749.313 382.144 749.721 382.984 750.101C383.499 750.334 384.164 750.567 384.769 750.422C385.565 750.233 385.636 749.539 386.386 749.296C386.757 749.207 387.156 749.166 387.557 749.176C387.757 749.18 387.956 749.157 388.138 749.109C388.32 749.06 388.481 748.988 388.606 748.898C388.814 748.701 388.549 748.368 388.159 748.418" fill="#3F3D56"/>
<path d="M397.263 747.438C396.747 746.963 396.1 746.539 395.347 746.184C395.201 746.094 395.017 746.027 394.813 745.989C394.587 745.97 394.356 745.994 394.156 746.059C393.548 746.243 393.083 746.553 392.852 746.926C392.622 747.3 392.644 747.71 392.914 748.074C393.103 748.249 393.244 748.439 393.331 748.639C393.46 749.231 392.175 749.548 391.561 750.029C390.871 750.569 390.976 751.417 390.022 751.8C389.271 752.103 388.086 752.001 387.558 752.433C387.004 752.885 387.651 753.49 388.274 753.911C388.597 754.177 389.046 754.383 389.568 754.505C390.186 754.572 390.824 754.504 391.361 754.315C392.462 754 393.447 753.565 394.264 753.035C394.656 752.805 394.944 752.524 395.105 752.216C395.177 751.939 395.21 751.66 395.203 751.38C395.415 749.763 399.025 749.253 397.264 747.438L397.263 747.438Z" fill="#3F3D56"/>
<path d="M517.388 809.274C519.788 810.659 523.679 810.659 526.079 809.274C528.479 807.888 528.479 805.642 526.079 804.257C523.679 802.871 519.788 802.871 517.388 804.257C514.989 805.642 514.989 807.888 517.388 809.274Z" fill="#6C63FF"/>
<path d="M480.106 842.455C482.505 843.84 486.396 843.84 488.796 842.455C491.196 841.069 491.196 838.823 488.796 837.438C486.396 836.052 482.505 836.052 480.106 837.438C477.706 838.823 477.706 841.069 480.106 842.455Z" fill="#6C63FF"/>
<path d="M475.851 812.522C478.251 813.907 482.142 813.907 484.542 812.522C486.941 811.137 486.941 808.89 484.542 807.505C482.142 806.12 478.251 806.12 475.851 807.505C473.451 808.89 473.451 811.137 475.851 812.522Z" fill="#6C63FF"/>
<path d="M536.956 828.112C539.356 829.498 543.246 829.498 545.646 828.112C548.046 826.727 548.046 824.481 545.646 823.095C543.246 821.71 539.356 821.71 536.956 823.095C534.556 824.481 534.556 826.727 536.956 828.112Z" fill="#6C63FF"/>
<path d="M487.796 792.845C490.196 794.231 494.087 794.231 496.487 792.845C498.887 791.46 498.887 789.214 496.487 787.828C494.087 786.443 490.196 786.443 487.796 787.828C485.397 789.214 485.397 791.46 487.796 792.845Z" fill="#6C63FF"/>
<path d="M875.067 258.875L618.174 110.57L457.91 203.09L714.803 351.395L875.067 258.875Z" fill="#F2F2F2"/>
<path d="M906.884 259.215L649.991 110.91L489.727 203.43L746.62 351.735L906.884 259.215Z" stroke="#3F3D56" stroke-width="2" stroke-miterlimit="10"/>
<path d="M698.895 276.54C714.386 276.54 729.53 273.889 742.411 268.92C755.291 263.951 765.331 256.889 771.259 248.627C777.187 240.364 778.738 231.272 775.716 222.501C772.694 213.73 765.234 205.673 754.28 199.349L698.895 231.323L698.895 276.54Z" fill="#3F3D56"/>
<path d="M754.28 199.349C741.968 192.243 725.907 187.707 708.633 186.458C691.358 185.208 673.855 187.317 658.887 192.45C643.92 197.582 632.34 205.448 625.978 214.803C619.615 224.158 618.832 234.47 623.752 244.111L698.895 231.323L754.28 199.349Z" fill="#6C63FF"/>
<path d="M698.895 276.541L698.895 231.323L623.752 244.111C628.541 253.473 638.446 261.69 651.989 267.534C665.532 273.379 681.986 276.538 698.895 276.541V276.541Z" fill="#575A89"/>
<path d="M543.345 195.947L532.739 189.825L522.133 195.947L532.739 202.07L543.345 195.947Z" fill="#6C63FF"/>
<path d="M558.664 204.791L548.058 198.668L537.453 204.791L548.058 210.914L558.664 204.791Z" fill="#3F3D56"/>
<path d="M573.983 213.635L563.378 207.512L552.772 213.635L563.378 219.758L573.983 213.635Z" fill="#575A89"/>
<path d="M757.226 322.142L713.625 296.971L711.857 297.992L755.458 323.163L757.226 322.142Z" fill="#3F3D56"/>
<path d="M751.923 325.203L708.322 300.033L706.554 301.053L750.155 326.224L751.923 325.203Z" fill="#3F3D56"/>
<path d="M746.62 328.265L703.019 303.094L701.251 304.114L744.853 329.285L746.62 328.265Z" fill="#3F3D56"/>
<path d="M621.709 370.443L475.586 286.086L315.323 378.607L461.445 462.963L621.709 370.443Z" fill="#F2F2F2"/>
<path d="M651.758 370.103L505.636 285.746L345.372 378.266L491.495 462.623L651.758 370.103Z" stroke="#3F3D56" stroke-width="2" stroke-miterlimit="10"/>
<path d="M378.99 376.799L371.112 372.251L363.233 376.799L371.112 381.347L378.99 376.799Z" fill="#6C63FF"/>
<path d="M390.37 383.369L382.492 378.82L374.613 383.369L382.492 387.917L390.37 383.369Z" fill="#3F3D56"/>
<path d="M401.751 389.938L393.872 385.39L385.994 389.938L393.872 394.487L401.751 389.938Z" fill="#575A89"/>
<path d="M486.709 442.936L456.071 425.248L454.829 425.965L485.467 443.653L486.709 442.936Z" fill="#3F3D56"/>
<path d="M482.983 445.087L452.344 427.399L451.102 428.117L481.741 445.804L482.983 445.087Z" fill="#3F3D56"/>
<path d="M479.257 447.238L448.618 429.551L447.376 430.268L478.015 447.955L479.257 447.238Z" fill="#3F3D56"/>
<path d="M550.415 344.252L537.453 351.735C545.144 356.175 550.382 361.832 552.504 367.991C554.626 374.149 553.537 380.533 549.374 386.334C545.212 392.136 538.163 397.094 529.119 400.583C520.075 404.071 509.442 405.933 498.565 405.933L498.565 416.516C513.068 416.516 527.245 414.034 539.303 409.382C551.362 404.731 560.76 398.119 566.31 390.384C571.86 382.649 573.313 374.138 570.483 365.926C567.654 357.715 560.67 350.172 550.415 344.252V344.252Z" fill="#3F3D56"/>
<path d="M498.565 416.516L498.565 405.933C485.267 405.934 472.419 403.153 462.401 398.104C452.383 393.055 445.874 386.081 444.08 378.474L425.911 379.904C428.307 390.047 436.987 399.344 450.345 406.076C463.703 412.807 480.834 416.517 498.565 416.516Z" fill="#575A89"/>
<path d="M459.678 351.735C469.991 345.781 483.98 342.436 498.565 342.436C513.151 342.436 527.139 345.781 537.453 351.735L550.415 344.252C539.561 337.986 525.574 333.844 510.426 332.41C495.278 330.977 479.733 332.324 465.982 336.262C452.23 340.2 440.966 346.529 433.777 354.359C426.589 362.189 423.837 371.124 425.912 379.904L444.081 378.474C442.927 373.624 443.735 368.686 446.441 364.047C449.147 359.408 453.678 355.194 459.678 351.735V351.735Z" fill="#6C63FF"/>
<path d="M939.879 438.473L793.757 354.116L633.493 446.636L779.616 530.993L939.879 438.473Z" fill="#F2F2F2"/>
<path d="M969.929 438.133L823.806 353.776L663.542 446.296L809.665 530.653L969.929 438.133Z" stroke="#3F3D56" stroke-width="2" stroke-miterlimit="10"/>
<path d="M827.931 367.722L705.376 438.473L823.806 506.842" stroke="#3F3D56" stroke-width="2" stroke-miterlimit="10"/>
<path d="M781.383 432.69L754.869 417.384L712.446 441.874L738.961 457.181L781.383 432.69Z" fill="#575A89"/>
<path d="M848.553 438.132L822.038 422.826L750.745 463.984L777.259 479.29L848.553 438.132Z" fill="#3F3D56"/>
<path d="M920.436 440.854L893.921 425.547L789.043 486.093L815.557 501.4L920.436 440.854Z" fill="#6C63FF"/>
<path d="M701.874 447.55L693.996 443.001L686.117 447.55L693.996 452.098L701.874 447.55Z" fill="#6C63FF"/>
<path d="M713.255 454.119L705.376 449.571L697.497 454.119L705.376 458.668L713.255 454.119Z" fill="#3F3D56"/>
<path d="M724.634 460.689L716.756 456.141L708.877 460.689L716.756 465.237L724.634 460.689Z" fill="#575A89"/>
<path d="M809.593 513.687L778.955 495.999L777.713 496.716L808.351 514.404L809.593 513.687Z" fill="#3F3D56"/>
<path d="M805.867 515.838L775.229 498.15L773.986 498.867L804.625 516.555L805.867 515.838Z" fill="#3F3D56"/>
<path d="M802.141 517.989L771.502 500.301L770.26 501.018L800.899 518.706L802.141 517.989Z" fill="#3F3D56"/>
<path d="M210.121 388.514C204.527 385.284 200.718 381.17 199.175 376.691C197.631 372.212 198.424 367.57 201.451 363.35C204.478 359.131 209.605 355.525 216.182 352.988C222.759 350.451 230.492 349.097 238.403 349.097C246.313 349.097 254.046 350.451 260.624 352.988C267.201 355.525 272.328 359.131 275.355 363.35C278.382 367.57 279.174 372.212 277.631 376.691C276.088 381.17 272.278 385.284 266.685 388.514C259.178 392.837 249.007 395.266 238.403 395.266C227.799 395.266 217.628 392.837 210.121 388.514V388.514ZM265.506 356.54C260.146 353.445 253.316 351.338 245.881 350.484C238.445 349.63 230.738 350.068 223.735 351.743C216.731 353.418 210.744 356.254 206.533 359.893C202.321 363.532 200.073 367.81 200.073 372.187C200.073 376.563 202.321 380.841 206.533 384.48C210.744 388.119 216.731 390.955 223.734 392.63C230.738 394.305 238.445 394.743 245.881 393.889C253.316 393.035 260.146 390.928 265.506 387.833C272.684 383.68 276.715 378.053 276.715 372.187C276.715 366.32 272.684 360.693 265.506 356.54V356.54Z" fill="#F2F2F2"/>
<path d="M418.699 489.878C415.903 488.263 413.998 486.206 413.226 483.966C412.455 481.727 412.851 479.406 414.364 477.296C415.878 475.186 418.441 473.383 421.73 472.115C425.019 470.846 428.885 470.169 432.84 470.169C436.796 470.169 440.662 470.846 443.951 472.115C447.239 473.383 449.803 475.186 451.316 477.296C452.83 479.406 453.226 481.727 452.454 483.966C451.683 486.206 449.778 488.263 446.981 489.878C443.228 492.04 438.142 493.254 432.84 493.254C427.538 493.254 422.453 492.04 418.699 489.878V489.878ZM445.803 474.231C443.239 472.751 439.973 471.743 436.417 471.335C432.861 470.926 429.175 471.136 425.825 471.937C422.475 472.738 419.612 474.094 417.598 475.835C415.584 477.575 414.509 479.621 414.509 481.714C414.508 483.807 415.584 485.853 417.598 487.594C419.612 489.334 422.475 490.69 425.825 491.491C429.175 492.292 432.861 492.502 436.417 492.094C439.973 491.685 443.239 490.677 445.803 489.197C449.236 487.211 451.163 484.52 451.163 481.714C451.163 478.908 449.236 476.217 445.803 474.231V474.231Z" fill="#F2F2F2"/>
<path d="M337.304 612.685L74.0234 460.694L226.549 372.641C228.151 371.718 230.323 371.199 232.586 371.199C234.85 371.2 237.021 371.718 238.624 372.641L489.829 517.662C491.428 518.587 492.326 519.84 492.326 521.147C492.326 522.454 491.428 523.707 489.829 524.632L337.304 612.685Z" fill="#3F3D56"/>
<path d="M331.876 607.432L83.1656 463.851C81.8432 463.086 81.1291 462.033 81.1797 460.923C81.2303 459.813 82.0417 458.736 83.4357 457.93L227.186 374.943C228.583 374.138 230.448 373.669 232.371 373.64C234.294 373.611 236.118 374.023 237.444 374.786L486.155 518.367C487.477 519.132 488.191 520.186 488.14 521.296C488.09 522.406 487.278 523.482 485.884 524.289L342.133 607.276C340.736 608.081 338.872 608.549 336.949 608.578C335.026 608.608 333.202 608.195 331.876 607.432V607.432Z" fill="white"/>
<path d="M326.663 575.526L138.392 466.836C138.314 466.792 138.253 466.739 138.211 466.68C138.169 466.622 138.148 466.559 138.148 466.496C138.148 466.433 138.169 466.37 138.211 466.312C138.253 466.254 138.314 466.201 138.392 466.156L228.63 414.061C228.787 413.971 228.998 413.92 229.219 413.92C229.44 413.92 229.652 413.971 229.809 414.061C229.965 414.151 230.053 414.274 230.053 414.401C230.053 414.529 229.965 414.651 229.809 414.742L140.159 466.496L327.842 574.845C327.998 574.935 328.086 575.058 328.086 575.185C328.086 575.313 327.998 575.435 327.842 575.526C327.686 575.616 327.474 575.666 327.253 575.666C327.032 575.666 326.82 575.616 326.663 575.526Z" fill="#3F3D56"/>
<path d="M185.098 486.317L167.974 476.431C167.511 476.163 167.251 475.8 167.251 475.422C167.251 475.043 167.511 474.68 167.974 474.412L191.58 460.784C192.044 460.517 192.673 460.367 193.329 460.367C193.984 460.367 194.613 460.517 195.078 460.784L212.202 470.67C212.665 470.938 212.925 471.301 212.925 471.68C212.925 472.058 212.665 472.421 212.202 472.69L188.596 486.317C188.132 486.584 187.503 486.735 186.847 486.734C186.191 486.734 185.563 486.584 185.098 486.317Z" fill="#6C63FF"/>
<path d="M216.326 504.345L199.202 494.459C198.739 494.191 198.479 493.828 198.479 493.449C198.479 493.071 198.739 492.708 199.202 492.44L245.197 465.887C245.662 465.619 246.29 465.469 246.946 465.469C247.602 465.469 248.231 465.619 248.695 465.887L265.819 475.772C266.282 476.04 266.543 476.403 266.543 476.782C266.543 477.161 266.283 477.524 265.819 477.792L219.824 504.345C219.36 504.612 218.731 504.762 218.075 504.762C217.419 504.762 216.79 504.612 216.326 504.345Z" fill="#6C63FF"/>
<path d="M247.554 522.372L230.43 512.487C229.967 512.219 229.707 511.856 229.707 511.477C229.707 511.099 229.967 510.735 230.43 510.467L254.036 496.84C254.5 496.573 255.129 496.422 255.785 496.422C256.44 496.422 257.069 496.573 257.533 496.84L274.657 506.726C275.121 506.994 275.381 507.357 275.381 507.735C275.381 508.114 275.121 508.477 274.658 508.745L251.052 522.373C250.588 522.64 249.959 522.79 249.303 522.79C248.647 522.79 248.018 522.64 247.554 522.372V522.372Z" fill="#6C63FF"/>
<path d="M278.782 540.4L261.658 530.515C261.195 530.259 260.927 529.907 260.912 529.537C260.897 529.167 261.137 528.809 261.578 528.541L316.57 496.794C317.035 496.539 317.655 496.401 318.296 496.409C318.937 496.418 319.546 496.573 319.989 496.84L337.113 506.726C337.576 506.982 337.844 507.333 337.859 507.703C337.874 508.073 337.634 508.431 337.192 508.699L282.2 540.446C281.736 540.701 281.115 540.84 280.475 540.831C279.834 540.822 279.225 540.668 278.782 540.4V540.4Z" fill="#6C63FF"/>
<path d="M310.01 558.428L292.886 548.542C292.422 548.274 292.162 547.911 292.162 547.533C292.162 547.154 292.422 546.791 292.885 546.523L363.627 505.684C364.092 505.416 364.721 505.266 365.376 505.266C366.032 505.266 366.661 505.416 367.125 505.684L384.249 515.57C384.713 515.838 384.973 516.201 384.973 516.579C384.973 516.958 384.713 517.321 384.25 517.589L313.508 558.428C313.043 558.696 312.414 558.846 311.759 558.846C311.103 558.846 310.474 558.696 310.01 558.428Z" fill="#6C63FF"/>
<path d="M210.71 461.645C212.663 462.773 215.828 462.773 217.781 461.645C219.733 460.518 219.733 458.691 217.781 457.564C215.828 456.436 212.663 456.436 210.71 457.564C208.758 458.691 208.758 460.518 210.71 461.645Z" fill="#3F3D56"/>
<path d="M264.917 466.407C266.87 467.535 270.035 467.535 271.987 466.407C273.94 465.28 273.94 463.453 271.987 462.326C270.035 461.199 266.869 461.199 264.917 462.326C262.965 463.453 262.965 465.28 264.917 466.407Z" fill="#3F3D56"/>
<path d="M273.166 497.701C275.118 498.828 278.284 498.828 280.236 497.701C282.189 496.574 282.189 494.746 280.236 493.619C278.284 492.492 275.118 492.492 273.166 493.619C271.213 494.746 271.213 496.574 273.166 497.701Z" fill="#3F3D56"/>
<path d="M338.567 496C340.52 497.128 343.685 497.128 345.638 496C347.59 494.873 347.59 493.046 345.638 491.919C343.685 490.791 340.52 490.791 338.567 491.919C336.615 493.046 336.615 494.873 338.567 496Z" fill="#3F3D56"/>
<path d="M382.758 506.545C384.71 507.672 387.876 507.672 389.828 506.545C391.781 505.418 391.781 503.59 389.828 502.463C387.876 501.336 384.71 501.336 382.758 502.463C380.805 503.59 380.805 505.418 382.758 506.545Z" fill="#3F3D56"/>
<path d="M269.599 463.704L277.419 495.16L342.254 493.474L342.429 493.517L386.239 504.281L385.587 505.166L341.951 494.445L275.983 496.16L268.127 464.554L214.128 460.081L214.363 459.128L269.599 463.704Z" fill="#3F3D56"/>
<path d="M999.983 757.733C1048.32 710.796 1038.15 650.902 973.171 611.222C938.818 590.244 889.903 575.54 821.803 583.589C700.066 597.976 700.775 656.893 712.519 691.473C718.168 708.193 719.747 725.287 717.207 742.259C712.691 772.804 723.559 820.275 834.902 820.005C915.603 819.809 967.787 788.997 999.983 757.733V757.733Z" fill="#F2F2F2" stroke="#9A94FA" stroke-opacity="0.502008" stroke-width="1.80661"/>
<path d="M569.879 566.174C570.093 565.538 570.331 564.896 570.588 564.266L571.679 564.414C571.425 565.036 571.189 565.67 570.978 566.297L569.879 566.174Z" fill="#3F3D56"/>
<path d="M572.445 560.437C573.152 559.181 573.959 557.927 574.842 556.71L575.875 556.96C575.004 558.16 574.208 559.398 573.51 560.637L572.445 560.437ZM577.767 553.111C578.823 551.94 579.977 550.781 581.198 549.664L582.145 550.009C580.941 551.111 579.802 552.255 578.76 553.409L577.767 553.111ZM585.112 546.393C586.485 545.341 587.954 544.307 589.478 543.32L590.314 543.751C588.811 544.724 587.362 545.745 586.006 546.783L585.112 546.393ZM595.037 540.93L594.264 540.462C595.921 539.55 597.66 538.667 599.433 537.839L600.138 538.342C598.388 539.159 596.672 540.03 595.037 540.93V540.93ZM605.589 536.003L604.959 535.469C606.849 534.726 608.815 534.02 610.805 533.37L611.357 533.933C609.394 534.574 607.453 535.27 605.589 536.003ZM617.402 532.145L616.933 531.558C619.01 531.005 621.154 530.496 623.305 530.045L623.687 530.652C621.566 531.098 619.451 531.6 617.402 532.145V532.145ZM728.316 593.349C729.165 592.144 729.938 590.903 730.613 589.659L731.682 589.853C730.997 591.113 730.214 592.372 729.354 593.593L728.316 593.349ZM630.165 529.465L629.87 528.841C632.075 528.494 634.334 528.196 636.584 527.955L636.789 528.59C634.569 528.829 632.34 529.123 630.165 529.465ZM732.374 585.872C732.868 584.602 733.277 583.304 733.589 582.014L734.699 582.103C734.382 583.411 733.968 584.726 733.467 586.013L732.374 585.872ZM643.515 528.033L643.401 527.389C645.676 527.256 647.988 527.175 650.274 527.149L650.296 527.795C648.041 527.821 645.759 527.901 643.515 528.033ZM734.253 578.111C734.381 576.81 734.418 575.491 734.361 574.189L735.481 574.173C735.538 575.492 735.501 576.829 735.371 578.147L734.253 578.111ZM657.088 527.878L657.158 527.233C659.439 527.315 661.743 527.453 664.006 527.643L663.845 528.282C661.613 528.095 659.339 527.959 657.088 527.878ZM733.913 570.275C733.672 568.98 733.334 567.675 732.91 566.396L734.011 566.274C734.44 567.571 734.782 568.893 735.026 570.206L733.913 570.275ZM670.52 529.005L670.771 528.375C673.001 528.671 675.234 529.025 677.409 529.426L677.068 530.042C674.922 529.646 672.719 529.297 670.52 529.005ZM731.359 562.577C730.753 561.32 730.05 560.065 729.268 558.845L730.319 558.621C731.111 559.857 731.824 561.13 732.439 562.403L731.359 562.577ZM683.445 531.387L683.873 530.789C685.985 531.293 688.086 531.854 690.117 532.456L689.605 533.031C687.602 532.437 685.529 531.883 683.445 531.387ZM726.649 555.225C725.695 554.046 724.641 552.874 723.519 551.744L724.491 551.422C725.629 552.568 726.696 553.756 727.664 554.952L726.649 555.225ZM695.512 534.966L696.105 534.418C698.043 535.115 699.955 535.869 701.791 536.658L701.121 537.177C699.311 536.398 697.424 535.654 695.512 534.966V534.966ZM719.9 548.424C718.623 547.354 717.25 546.299 715.819 545.289L716.686 544.88C718.136 545.903 719.528 546.972 720.822 548.057L719.9 548.424ZM706.396 539.647L707.136 539.162C708.849 540.033 710.528 540.96 712.112 541.909L711.306 542.358C709.741 541.421 708.086 540.507 706.396 539.647L706.396 539.647Z" fill="#3F3D56"/>
<path d="M723.887 598.661C724.428 598.103 724.957 597.531 725.459 596.961L726.458 597.254C725.949 597.832 725.413 598.412 724.863 598.977L723.887 598.661Z" fill="#3F3D56"/>
<path d="M763.41 570.268L762.618 569.811C763.41 569.353 764.229 568.897 765.049 568.455L765.813 568.928C765.002 569.365 764.193 569.816 763.41 570.268L763.41 570.268Z" fill="#3F3D56"/>
<path d="M770.912 566.372L770.208 565.869C771.973 565.046 773.81 564.25 775.669 563.504L776.309 564.035C774.472 564.773 772.656 565.559 770.912 566.372V566.372ZM781.983 561.927L781.412 561.371C783.363 560.703 785.379 560.068 787.406 559.483L787.907 560.062C785.904 560.639 783.911 561.267 781.983 561.927V561.927ZM916.649 630.022C917.526 628.832 918.34 627.608 919.066 626.385L920.125 626.595C919.39 627.832 918.567 629.071 917.679 630.275L916.649 630.022ZM794.053 558.446L793.626 557.848C795.722 557.349 797.878 556.888 800.034 556.477L800.385 557.091C798.254 557.497 796.124 557.953 794.053 558.446ZM921.024 622.657C921.596 621.407 922.098 620.129 922.514 618.858L923.615 618.978C923.193 620.265 922.686 621.558 922.106 622.822L921.024 622.657ZM806.868 556.002L806.594 555.375C808.79 555.055 811.037 554.777 813.273 554.548L813.469 555.185C811.259 555.411 809.038 555.686 806.868 556.002V556.002ZM923.53 615.006C923.789 613.72 923.97 612.413 924.069 611.122L925.188 611.151C925.087 612.457 924.905 613.779 924.643 615.081L923.53 615.006ZM820.153 554.642L820.037 553.998C822.293 553.862 824.586 553.772 826.85 553.729L826.887 554.375C824.649 554.418 822.383 554.507 820.153 554.642V554.642ZM924.127 607.226C924.065 605.932 923.923 604.624 923.703 603.337L924.817 603.274C925.04 604.576 925.184 605.9 925.246 607.209L924.127 607.226ZM833.636 554.386L833.679 553.74C835.944 553.79 838.234 553.888 840.488 554.032L840.365 554.675C838.138 554.533 835.874 554.436 833.636 554.386L833.636 554.386ZM922.801 599.476C922.423 598.2 921.959 596.917 921.424 595.661L922.511 595.507C923.053 596.777 923.522 598.076 923.905 599.366L922.801 599.476ZM847.041 555.239L847.242 554.603C849.471 554.838 851.714 555.123 853.909 555.451L853.629 556.077C851.46 555.753 849.243 555.471 847.041 555.239L847.041 555.239ZM919.576 591.914C918.885 590.682 918.108 589.451 917.267 588.252L918.305 588.009C919.157 589.222 919.943 590.468 920.642 591.715L919.576 591.914ZM860.094 557.185L860.451 556.572C862.598 556.989 864.746 557.456 866.836 557.961L866.403 558.558C864.338 558.059 862.216 557.597 860.094 557.185L860.094 557.185ZM914.506 584.696C913.518 583.537 912.442 582.382 911.309 581.265L912.275 580.938C913.423 582.069 914.511 583.238 915.511 584.411L914.506 584.696ZM872.523 560.189L873.029 559.612C875.05 560.203 877.061 560.844 879.006 561.518L878.429 562.073C876.507 561.406 874.52 560.773 872.523 560.189L872.523 560.189ZM907.691 577.976C906.422 576.91 905.071 575.857 903.673 574.846L904.548 574.443C905.963 575.466 907.331 576.531 908.614 577.61L907.691 577.976ZM884.084 564.197L884.729 563.668C886.581 564.421 888.411 565.222 890.169 566.05L889.46 566.551C887.724 565.733 885.915 564.941 884.084 564.197L884.084 564.197ZM899.278 571.89C897.757 570.937 896.153 570.002 894.532 569.12L895.3 568.649C896.94 569.541 898.563 570.488 900.102 571.452L899.278 571.89Z" fill="#3F3D56"/>
<path d="M912.169 635.283C912.711 634.725 913.243 634.154 913.752 633.585L914.747 633.881C914.233 634.457 913.695 635.035 913.147 635.599L912.169 635.283Z" fill="#3F3D56"/>
<path d="M559.586 571.581C566.871 575.787 573.221 578.941 573.767 578.626C574.313 578.31 568.85 574.645 561.565 570.439C554.279 566.233 547.93 563.079 547.384 563.395C546.837 563.71 552.3 567.375 559.586 571.581Z" fill="#6C63FF"/>
<path d="M712.61 604.709C719.896 608.915 726.245 612.069 726.791 611.754C727.338 611.438 721.875 607.773 714.589 603.567C707.303 599.361 700.954 596.207 700.408 596.523C699.862 596.838 705.325 600.503 712.61 604.709Z" fill="#6C63FF"/>
<path d="M838.155 682.511C859.863 695.043 878.78 704.44 880.408 703.5C882.036 702.56 865.759 691.639 844.051 679.107C822.343 666.575 803.426 657.178 801.798 658.118C800.17 659.058 816.448 669.979 838.155 682.511Z" fill="#6C63FF"/>
<path d="M711.278 599.436L636.758 599.436L636.758 600.082L711.278 600.082L711.278 599.436Z" fill="#3F3D56"/>
<path d="M620.334 595.913L575.812 570.21L575.02 570.668L619.542 596.37L620.334 595.913Z" fill="#3F3D56"/>
<path d="M558.696 566.118L470.212 566.118L470.212 566.764L558.696 566.764L558.696 566.118Z" fill="#3F3D56"/>
<path d="M561.169 570.668C559.721 569.832 558.734 568.767 558.335 567.607C557.935 566.448 558.14 565.246 558.924 564.153C559.707 563.061 561.035 562.127 562.737 561.471C564.44 560.814 566.442 560.463 568.49 560.463C570.538 560.463 572.54 560.814 574.243 561.471C575.946 562.127 577.273 563.061 578.057 564.153C578.84 565.245 579.045 566.447 578.646 567.607C578.246 568.767 577.26 569.832 575.812 570.668C573.869 571.787 571.236 572.416 568.49 572.416C565.745 572.416 563.112 571.787 561.169 570.668V570.668ZM575.02 562.671C573.729 561.926 572.083 561.418 570.292 561.212C568.501 561.006 566.644 561.112 564.957 561.516C563.269 561.919 561.827 562.602 560.812 563.479C559.797 564.356 559.256 565.386 559.256 566.441C559.256 567.495 559.797 568.526 560.812 569.403C561.827 570.279 563.269 570.963 564.956 571.366C566.644 571.77 568.5 571.875 570.292 571.669C572.083 571.464 573.729 570.956 575.02 570.21C576.749 569.21 577.72 567.854 577.72 566.441C577.72 565.028 576.749 563.672 575.02 562.671Z" fill="#3F3D56"/>
<path d="M619.542 604.367C618.094 603.531 617.108 602.466 616.708 601.306C616.309 600.146 616.514 598.945 617.298 597.852C618.081 596.76 619.408 595.826 621.111 595.17C622.814 594.513 624.816 594.162 626.864 594.162C628.912 594.162 630.914 594.513 632.617 595.17C634.319 595.826 635.646 596.76 636.43 597.852C637.214 598.945 637.419 600.146 637.019 601.306C636.62 602.466 635.634 603.531 634.186 604.367C632.242 605.486 629.609 606.115 626.864 606.115C624.119 606.115 621.485 605.486 619.542 604.367V604.367ZM633.394 596.37C632.102 595.625 630.457 595.117 628.665 594.911C626.874 594.706 625.017 594.811 623.33 595.215C621.643 595.618 620.2 596.301 619.186 597.178C618.171 598.055 617.629 599.085 617.629 600.14C617.629 601.194 618.171 602.225 619.186 603.102C620.2 603.978 621.643 604.662 623.33 605.065C625.017 605.469 626.874 605.574 628.665 605.368C630.457 605.163 632.102 604.655 633.394 603.909C635.123 602.909 636.094 601.553 636.094 600.14C636.094 598.726 635.123 597.371 633.394 596.37V596.37Z" fill="#3F3D56"/>
<path d="M714.193 603.796C712.745 602.96 711.759 601.894 711.359 600.735C710.96 599.575 711.165 598.373 711.949 597.281C712.732 596.189 714.059 595.255 715.762 594.599C717.465 593.942 719.467 593.591 721.515 593.591C723.563 593.591 725.564 593.942 727.267 594.599C728.97 595.255 730.297 596.189 731.081 597.281C731.865 598.374 732.07 599.575 731.67 600.735C731.271 601.894 730.284 602.96 728.836 603.796C726.893 604.915 724.26 605.544 721.515 605.544C718.769 605.544 716.136 604.915 714.193 603.796V603.796ZM728.044 595.799C726.753 595.054 725.107 594.546 723.316 594.34C721.525 594.135 719.668 594.24 717.981 594.644C716.293 595.047 714.851 595.73 713.837 596.607C712.822 597.484 712.28 598.515 712.28 599.569C712.28 600.623 712.822 601.654 713.837 602.531C714.851 603.407 716.294 604.091 717.981 604.494C719.668 604.897 721.525 605.003 723.316 604.797C725.108 604.592 726.753 604.084 728.044 603.338C729.774 602.338 730.745 600.982 730.745 599.569C730.745 598.155 729.773 596.8 728.044 595.799L728.044 595.799Z" fill="#3F3D56"/>
<path d="M842.584 679.225C828.466 671.075 824.243 658.817 831.884 648.168C839.525 637.519 857.525 630.577 877.491 630.577C897.458 630.577 915.458 637.519 923.099 648.168C930.74 658.817 926.517 671.075 912.399 679.225C893.107 690.337 861.876 690.337 842.584 679.225Z" stroke="#3F3D56" stroke-width="3.20428"/>
<path d="M452.996 570.668C451.548 569.832 450.562 568.767 450.162 567.607C449.763 566.448 449.968 565.246 450.751 564.153C451.535 563.061 452.862 562.127 454.565 561.471C456.268 560.814 458.27 560.463 460.318 560.463C462.366 560.463 464.368 560.814 466.07 561.471C467.773 562.127 469.1 563.061 469.884 564.153C470.668 565.246 470.873 566.447 470.474 567.607C470.074 568.767 469.088 569.832 467.64 570.668C465.696 571.787 463.063 572.416 460.318 572.416C457.573 572.416 454.94 571.787 452.996 570.668ZM466.848 562.671C465.556 561.926 463.911 561.418 462.12 561.212C460.328 561.006 458.472 561.112 456.784 561.516C455.097 561.919 453.655 562.602 452.64 563.479C451.625 564.356 451.083 565.386 451.083 566.441C451.083 567.495 451.625 568.526 452.64 569.403C453.654 570.279 455.097 570.963 456.784 571.366C458.471 571.77 460.328 571.875 462.119 571.669C463.911 571.464 465.556 570.956 466.848 570.21C468.577 569.21 469.548 567.854 469.548 566.441C469.548 565.028 468.577 563.672 466.848 562.671V562.671Z" fill="#3F3D56"/>
<path d="M611.693 541.5C609.961 540.5 607.904 539.706 605.641 539.165C603.377 538.624 600.952 538.345 598.502 538.345C596.052 538.345 593.626 538.624 591.362 539.165C589.099 539.706 587.042 540.5 585.31 541.5C578.024 545.706 567.171 567.202 567.171 567.202C567.171 567.202 604.408 560.937 611.693 556.731C613.426 555.731 614.8 554.544 615.737 553.237C616.675 551.93 617.158 550.53 617.158 549.115C617.158 547.701 616.675 546.301 615.737 544.994C614.8 543.687 613.426 542.5 611.693 541.5V541.5ZM591.576 553.114C590.206 552.323 589.273 551.315 588.895 550.219C588.518 549.122 588.711 547.985 589.453 546.952C590.194 545.918 591.449 545.035 593.06 544.414C594.671 543.793 596.564 543.461 598.502 543.461C600.439 543.461 602.332 543.793 603.943 544.414C605.554 545.035 606.809 545.918 607.55 546.952C608.292 547.985 608.486 549.122 608.108 550.219C607.73 551.315 606.797 552.323 605.427 553.114C603.59 554.174 601.099 554.77 598.502 554.77C595.904 554.77 593.413 554.174 591.576 553.114Z" fill="#6C63FF"/>
<path d="M766.367 573.676C762.868 571.656 758.123 570.521 753.175 570.521C748.227 570.521 743.482 571.656 739.983 573.676C732.698 577.882 721.844 599.378 721.844 599.378C721.844 599.378 759.081 593.113 766.367 588.907C768.099 587.907 769.473 586.72 770.411 585.413C771.348 584.106 771.831 582.706 771.831 581.291C771.831 579.877 771.348 578.477 770.411 577.17C769.473 575.863 768.099 574.676 766.367 573.676V573.676ZM746.249 585.29C744.879 584.499 743.947 583.491 743.569 582.394C743.191 581.298 743.385 580.161 744.126 579.128C744.867 578.094 746.123 577.211 747.733 576.59C749.344 575.969 751.238 575.637 753.175 575.637C755.112 575.637 757.006 575.969 758.616 576.59C760.227 577.211 761.482 578.094 762.224 579.128C762.965 580.161 763.159 581.298 762.781 582.394C762.403 583.491 761.47 584.499 760.1 585.29C759.191 585.815 758.111 586.231 756.923 586.515C755.735 586.799 754.461 586.946 753.175 586.946C751.889 586.946 750.615 586.799 749.427 586.515C748.238 586.231 747.159 585.815 746.249 585.29Z" fill="#6C63FF"/>
<path d="M499.409 668.052C503.352 670.328 509.743 670.328 513.686 668.052C517.628 665.776 517.628 662.087 513.686 659.811C509.743 657.535 503.352 657.535 499.409 659.811C495.467 662.087 495.467 665.776 499.409 668.052Z" fill="#F1F1F1"/>
<path d="M574.013 676.26C577.955 678.536 584.347 678.536 588.289 676.26C592.231 673.984 592.231 670.294 588.289 668.018C584.347 665.742 577.955 665.742 574.013 668.018C570.071 670.294 570.071 673.984 574.013 676.26Z" fill="#F1F1F1"/>
<path d="M547.206 628.324C551.148 630.6 557.54 630.6 561.482 628.324C565.424 626.048 565.424 622.358 561.482 620.083C557.54 617.807 551.148 617.807 547.206 620.083C543.264 622.358 543.264 626.048 547.206 628.324Z" fill="#F1F1F1"/>
<path d="M871.226 679.619L869.978 678.899L878.062 672.568C878.433 672.277 878.325 671.869 877.822 671.654C877.319 671.44 876.611 671.502 876.24 671.792L868.359 677.964L866.74 677.03L882.359 664.796L883.978 665.731L879.104 669.548C878.768 669.812 878.825 670.173 879.214 670.398C879.254 670.421 879.297 670.442 879.344 670.462C879.847 670.676 880.556 670.614 880.926 670.324L885.604 666.66C886.629 667.156 888.162 667.126 889.124 666.57L890.269 665.909C891.287 665.322 891.287 664.366 890.269 663.778L889.886 663.556L892.77 661.892L893.875 662.53C894.317 662.785 895.034 662.785 895.476 662.53C895.918 662.275 895.918 661.861 895.476 661.606L893.508 660.47L904.371 651.961C904.981 651.955 905.587 651.819 906.052 651.551L907.437 650.751C908.388 650.202 908.388 649.309 907.437 648.76L907.062 648.543L909.419 647.183L910.058 647.552C910.5 647.807 911.216 647.807 911.659 647.552C912.101 647.297 912.101 646.883 911.659 646.628L899.369 639.533C898.927 639.278 898.211 639.278 897.768 639.533C897.326 639.788 897.326 640.202 897.768 640.457L898.221 640.718L895.864 642.079L895.489 641.863C894.538 641.314 892.991 641.314 892.04 641.863L890.655 642.662C890.195 642.928 889.96 643.273 889.945 643.622L884.994 645.728C884.491 645.942 884.383 646.352 884.754 646.642C884.789 646.669 884.826 646.694 884.866 646.717C885.255 646.942 885.881 646.975 886.337 646.78L890.944 644.82L892.563 645.755L878.568 651.71C878.567 651.71 878.567 651.71 878.566 651.711L878.433 651.767L876.814 650.832L882.43 648.443C882.933 648.229 883.04 647.82 882.669 647.529C882.298 647.239 881.59 647.177 881.086 647.391L875.195 649.898L873.238 648.768C872.796 648.512 872.079 648.512 871.637 648.768C871.195 649.023 871.195 649.437 871.637 649.692L872.732 650.324L869.848 651.989L869.358 651.706C868.34 651.118 866.684 651.118 865.666 651.706L864.521 652.367C863.522 652.943 863.506 653.873 864.466 654.463L843.272 663.481L842.131 662.823C840.909 662.117 838.921 662.117 837.699 662.823L836.213 663.681C834.991 664.386 834.991 665.534 836.213 666.24L865.308 683.036C866.53 683.742 868.518 683.742 869.74 683.036L871.226 682.178C872.448 681.473 872.448 680.325 871.226 679.619L871.226 679.619ZM865.121 676.095L858.011 671.99L860.323 671.583C860.697 671.517 861.04 671.398 861.317 671.239L866.1 668.477L866.509 668.713C866.951 668.968 867.667 668.968 868.109 668.713C868.551 668.458 868.551 668.044 868.109 667.789L866.184 666.677L871.953 663.346L872.966 663.931C873.709 664.36 874.839 664.466 875.78 664.196L879.48 663.135L880.74 663.862L865.121 676.095ZM862.819 666.583L864.499 667.553L859.716 670.314C859.701 670.323 859.682 670.329 859.662 670.333L857.451 670.723L858.028 669.364C858.034 669.351 858.045 669.338 858.062 669.329L862.819 666.583ZM877.792 662.16L874.772 663.026C874.704 663.046 874.621 663.038 874.567 663.007L870.907 660.894C870.853 660.863 870.839 660.815 870.873 660.775L872.375 659.032L877.792 662.16ZM884.199 660.274L887.083 658.609L891.169 660.967L888.285 662.632L884.199 660.273L884.199 660.274ZM877.136 656.196L880.02 654.531L885.482 657.685L882.598 659.349L877.136 656.196L877.136 656.196ZM890.599 648.214L891.161 649.349L888.833 648.965L890.599 648.214ZM880.819 653.144L886.45 653.972L887.884 657.223L880.819 653.144ZM888.948 654.339L892.274 654.828L889.962 656.638L888.948 654.339ZM895.123 652.596L894.458 651.253L896.424 651.577L895.123 652.596ZM893.278 653.627L888.312 652.897L887.048 650.03L891.894 650.83L893.278 653.627ZM884.968 650.61L885.815 652.53L881.832 651.945L884.968 650.61ZM890.27 658.6L890.368 658.524C890.368 658.523 890.369 658.523 890.369 658.523L900.685 650.443L902.304 651.378L891.889 659.535L890.27 658.6L890.27 658.6ZM905.461 647.619L902.264 645.773L904.62 644.413L907.818 646.259L905.461 647.619ZM899.822 641.643L903.019 643.489L900.663 644.849L897.465 643.003L899.822 641.643ZM893.641 642.787C893.709 642.747 893.82 642.747 893.888 642.787L905.836 649.684C905.904 649.724 905.904 649.788 905.836 649.827L904.451 650.627C904.383 650.666 904.272 650.666 904.204 650.627L892.256 643.729C892.239 643.72 892.227 643.709 892.219 643.697C892.218 643.696 892.217 643.695 892.217 643.694C892.193 643.658 892.205 643.615 892.256 643.586L893.641 642.787L893.641 642.787ZM899.065 649.509L897.858 650.454L893.725 649.772L892.544 647.387L894.182 646.69L899.065 649.509ZM874.333 651.248L878.419 653.607L875.535 655.272L871.449 652.913L874.333 651.248ZM866.122 653.291L867.267 652.63C867.402 652.552 867.622 652.552 867.757 652.63L888.668 664.702C888.804 664.78 888.804 664.907 888.668 664.985L887.523 665.646C887.388 665.724 887.168 665.724 887.033 665.646L880.507 661.879C880.507 661.879 880.506 661.878 880.506 661.878L872.862 657.466C872.862 657.465 872.861 657.465 872.86 657.465L866.122 653.574C865.986 653.496 865.986 653.369 866.122 653.291ZM866.081 655.399L867.7 656.334L846.51 665.351L844.891 664.416L866.081 655.399ZM868.139 682.112C867.8 682.308 867.248 682.308 866.908 682.112L837.813 665.315C837.474 665.119 837.474 664.801 837.813 664.605L839.3 663.747C839.639 663.551 840.191 663.551 840.53 663.747L848.26 668.209C848.702 668.465 849.419 668.465 849.861 668.209C850.303 667.954 850.303 667.54 849.861 667.285L848.129 666.285L869.319 657.269L870.686 658.057L868.846 660.194C868.379 660.737 868.564 661.389 869.306 661.818L870.353 662.422L864.583 665.753L862.658 664.641C862.215 664.386 861.499 664.386 861.057 664.641C860.615 664.897 860.615 665.31 861.057 665.565L861.218 665.658L856.461 668.405C856.152 668.583 855.933 668.807 855.829 669.053L855.257 670.4L853.277 669.257C852.835 669.002 852.119 669.002 851.677 669.257C851.234 669.513 851.235 669.926 851.677 670.182L869.625 680.543C869.964 680.739 869.964 681.058 869.625 681.254L868.139 682.112L868.139 682.112Z" fill="#6C63FF"/>
<path d="M920.907 655.069C920.698 653.545 918.948 652.236 916.449 651.732L915.595 651.56C914.876 651.416 914.092 651.538 913.597 651.872C913.102 652.206 913.015 652.672 913.374 653.06L913.77 653.487C913.997 653.732 914.005 654.026 913.791 654.275C913.329 654.814 913.27 655.421 913.628 655.986C913.82 656.288 914.116 656.556 914.497 656.775C914.827 656.966 915.221 657.121 915.664 657.232C916.886 657.537 918.262 657.453 919.345 657.006C920.428 656.559 921.012 655.835 920.907 655.069V655.069ZM914.849 652.795L914.85 652.795C914.85 652.795 914.85 652.794 914.849 652.795ZM918.029 655.943C917.591 656.123 917.057 656.156 916.564 656.033C916.184 655.937 915.896 655.761 915.754 655.537C915.612 655.312 915.635 655.071 915.819 654.856C916.319 654.275 916.338 653.593 915.881 653.005C917.437 653.362 918.517 654.202 918.65 655.172C918.693 655.481 918.466 655.762 918.029 655.943Z" fill="black"/>
<path d="M909.564 657.394C909.213 657.191 908.727 657.091 908.231 657.119C904.703 657.323 903.9 657.786 903.636 657.939C902.262 658.732 902.262 660.023 903.636 660.816C905.01 661.609 907.246 661.609 908.62 660.816C908.884 660.664 909.687 660.2 910.04 658.163C910.089 657.877 909.916 657.597 909.564 657.394V657.394ZM905.237 659.892C904.746 659.608 904.746 659.147 905.237 658.863C905.362 658.793 906.035 658.604 907.698 658.471C907.469 659.431 907.141 659.82 907.019 659.892C906.528 660.176 905.728 660.176 905.237 659.892Z" fill="black"/>
<path d="M882.963 638.282C883.94 638.489 884.992 638.455 885.925 638.188C886.356 638.065 886.867 638.069 887.292 638.2L888.031 638.429C888.702 638.636 889.509 638.586 890.088 638.3C890.667 638.014 890.879 637.562 890.628 637.147L890.33 636.654C889.458 635.211 887.19 634.201 884.551 634.08C883.224 634.019 881.969 634.356 881.195 634.982C880.42 635.607 880.274 636.402 880.804 637.107C880.996 637.363 881.264 637.59 881.594 637.781C881.975 638.001 882.439 638.172 882.963 638.282V638.282ZM888.49 637.577C888.49 637.577 888.489 637.577 888.49 637.577L888.49 637.577ZM883.037 635.742C883.349 635.489 883.836 635.358 884.372 635.383C885.44 635.432 886.417 635.701 887.146 636.122C887.564 636.364 887.9 636.654 888.126 636.982C887.107 636.718 885.927 636.729 884.919 637.017C884.548 637.124 884.129 637.137 883.74 637.055C883.351 636.973 883.046 636.807 882.881 636.587C882.667 636.302 882.724 635.994 883.037 635.742V635.742Z" fill="black"/>
<path d="M874.595 644.05C875.969 644.844 878.205 644.844 879.579 644.05C879.843 643.898 880.646 643.435 880.999 641.398C881.048 641.112 880.875 640.831 880.523 640.628C880.171 640.425 879.686 640.325 879.19 640.354C875.662 640.558 874.859 641.021 874.595 641.173C873.221 641.966 873.221 643.257 874.595 644.05V644.05ZM878.656 641.706C878.427 642.665 878.099 643.054 877.978 643.126C877.487 643.41 876.687 643.41 876.196 643.126C875.704 642.843 875.704 642.381 876.196 642.097C876.32 642.027 876.994 641.838 878.656 641.706Z" fill="black"/>
<path d="M729.154 603.068L833.46 645.073" stroke="#3F3D56" stroke-width="1.37953"/>
</g>
</g>
<defs>
<filter id="filter0_ddd" x="-385" y="0.0430298" width="2102" height="1226.32" filterUnits="userSpaceOnUse" color-interpolation-filters="sRGB">
<feFlood flood-opacity="0" result="BackgroundImageFix"/>
<feColorMatrix in="SourceAlpha" type="matrix" values="0 0 0 0 0 0 0 0 0 0 0 0 0 0 0 0 0 0 127 0"/>
<feOffset dy="5"/>
<feGaussianBlur stdDeviation="2.5"/>
<feColorMatrix type="matrix" values="0 0 0 0 0 0 0 0 0 0 0 0 0 0 0 0 0 0 0.2 0"/>
<feBlend mode="normal" in2="BackgroundImageFix" result="effect1_dropShadow"/>
<feColorMatrix in="SourceAlpha" type="matrix" values="0 0 0 0 0 0 0 0 0 0 0 0 0 0 0 0 0 0 127 0"/>
<feOffset dy="3"/>
<feGaussianBlur stdDeviation="7"/>
<feColorMatrix type="matrix" values="0 0 0 0 0 0 0 0 0 0 0 0 0 0 0 0 0 0 0.12 0"/>
<feBlend mode="normal" in2="effect1_dropShadow" result="effect2_dropShadow"/>
<feColorMatrix in="SourceAlpha" type="matrix" values="0 0 0 0 0 0 0 0 0 0 0 0 0 0 0 0 0 0 127 0"/>
<feOffset dy="8"/>
<feGaussianBlur stdDeviation="5"/>
<feColorMatrix type="matrix" values="0 0 0 0 0 0 0 0 0 0 0 0 0 0 0 0 0 0 0.14 0"/>
<feBlend mode="normal" in2="effect2_dropShadow" result="effect3_dropShadow"/>
<feBlend mode="normal" in="SourceGraphic" in2="effect3_dropShadow" result="shape"/>
</filter>
<clipPath id="clip0">
<rect width="1306.25" height="1088.54" fill="white" transform="matrix(0.866044 0.499967 -0.866044 0.499967 571.727 11.043)"/>
</clipPath>
</defs>
</svg>
