<svg width="51" height="51" viewBox="0 0 51 51" fill="none" xmlns="http://www.w3.org/2000/svg">
<path d="M25.5 50L42.8162 42.8162M25.5 50L8.18381 42.8162M25.5 50L19.2447 34.3617M25.5 50L31.7553 34.883M42.8162 42.8162L50 25.5M42.8162 42.8162L34.883 34.883M50 25.5L49.6783 25.6306M50 25.5L42.8608 8.34464M25.5 1L8.39825 8.09484M25.5 1L25.5536 12.3654M25.5 1L42.6018 8.14779M8.18381 42.8162L1 25.5L1.06672 25.3392M8.18381 42.8162L16.8151 34.0241M35.4043 31.7553L49.6783 25.6306M41.6596 17.6809L49.6783 25.6306M16.279 31.6116L1.37527 25.4664M1.06672 25.3392L8.18381 8.18381L8.39825 8.09484M1.06672 25.3392L1.37527 25.4664M8.1302 18.6915L1.37527 25.4664M9.47046 14.349L8.45946 8.45186M8.39825 8.09484L8.45946 8.45186M22.7123 14.349L8.45946 8.45186M28.3414 14.2954L42.8608 8.34464M42.8608 8.34464L42.8162 8.23742L42.6018 8.14779M41.1383 16.117L42.6018 8.14779M20.2872 32.523H29.806M17.4584 30.4858L11.1324 19.1204M19.2276 30.4858L24.4278 17.9945M31.7553 29.6702L26.733 17.7801M33.8404 29.6702L40.617 17.6809M28.395 15.7965L40.2965 16.8855M12.4726 16.7079L22.6586 15.7429" stroke="#3F3D56"/>
<circle cx="9.84571" cy="16.8151" r="2.73414" fill="#3F3D56"/>
<circle cx="25.4999" cy="15.2068" r="3.0558" fill="#3F3D56"/>
<circle cx="18.3162" cy="32.4694" r="2.30525" fill="#3F3D56"/>
<circle cx="32.8983" cy="32.5766" r="3.48468" fill="#3F3D56"/>
<circle cx="41.0471" cy="16.9223" r="1.66193" fill="#3F3D56"/>
</svg>
