<svg width="175" height="51" viewBox="0 0 175 51" fill="none" xmlns="http://www.w3.org/2000/svg">
<path d="M25.5 50L42.8162 42.8162M25.5 50L8.18381 42.8162M25.5 50L19.2447 34.3617M25.5 50L31.7553 34.883M42.8162 42.8162L50 25.5M42.8162 42.8162L34.883 34.883M50 25.5L49.6783 25.6306M50 25.5L42.8608 8.34464M25.5 1L8.39825 8.09484M25.5 1L25.5536 12.3654M25.5 1L42.6018 8.14779M8.18381 42.8162L1 25.5L1.06672 25.3392M8.18381 42.8162L16.8151 34.0241M35.4043 31.7553L49.6783 25.6306M41.6596 17.6809L49.6783 25.6306M16.279 31.6116L1.37527 25.4664M1.06672 25.3392L8.18381 8.18381L8.39825 8.09484M1.06672 25.3392L1.37527 25.4664M8.1302 18.6915L1.37527 25.4664M9.47046 14.349L8.45946 8.45186M8.39825 8.09484L8.45946 8.45186M22.7123 14.349L8.45946 8.45186M28.3414 14.2954L42.8608 8.34464M42.8608 8.34464L42.8162 8.23742L42.6018 8.14779M41.1383 16.117L42.6018 8.14779M20.2872 32.523H29.806M17.4584 30.4858L11.1324 19.1204M19.2276 30.4858L24.4278 17.9945M31.7553 29.6702L26.733 17.7801M33.8404 29.6702L40.617 17.6809M28.395 15.7965L40.2965 16.8855M12.4726 16.7079L22.6586 15.7429" stroke="#3F3D56"/>
<circle cx="9.84571" cy="16.8151" r="2.73414" fill="#3F3D56"/>
<circle cx="25.4999" cy="15.2068" r="3.0558" fill="#3F3D56"/>
<circle cx="18.3162" cy="32.4694" r="2.30525" fill="#3F3D56"/>
<circle cx="32.8983" cy="32.5766" r="3.48468" fill="#3F3D56"/>
<circle cx="41.0471" cy="16.9223" r="1.66193" fill="#3F3D56"/>
<path d="M62.182 18.4C63.346 18.4 64.36 18.592 65.224 18.976C66.088 19.36 66.754 19.912 67.222 20.632C67.69 21.352 67.924 22.192 67.924 23.152C67.924 24.112 67.69 24.952 67.222 25.672C66.754 26.392 66.088 26.944 65.224 27.328C64.36 27.712 63.346 27.904 62.182 27.904H60.364V31H56.116V18.4H62.182ZM61.912 24.628C62.488 24.628 62.92 24.502 63.208 24.25C63.496 23.986 63.64 23.62 63.64 23.152C63.64 22.684 63.496 22.324 63.208 22.072C62.92 21.808 62.488 21.676 61.912 21.676H60.364V24.628H61.912ZM71.0117 18.4H75.1877V24.952L79.5257 18.4H83.5217V31H79.3457V24.466L75.0257 31H71.0117V18.4ZM97.1538 21.694H91.7358V31H87.5598V18.4H97.1538V21.694ZM100.364 18.4H104.54V24.952L108.878 18.4H112.874V31H108.698V24.466L104.378 31H100.364V18.4ZM129.332 18.4V31H125.084V26.356H121.16V31H116.912V18.4H121.16V22.864H125.084V18.4H129.332ZM144.1 21.694H140.41V31H136.234V21.694H132.544V18.4H144.1V21.694ZM157.777 27.796V31H147.301V18.4H157.543V21.604H151.477V23.08H156.805V26.14H151.477V27.796H157.777ZM173.594 18.4V31H169.418V21.694H166.538L166.502 23.152C166.454 24.952 166.31 26.428 166.07 27.58C165.83 28.732 165.41 29.632 164.81 30.28C164.21 30.916 163.352 31.234 162.236 31.234C161.672 31.234 161.072 31.156 160.436 31L160.652 27.598C160.808 27.634 160.964 27.652 161.12 27.652C161.564 27.652 161.9 27.472 162.128 27.112C162.368 26.752 162.53 26.272 162.614 25.672C162.698 25.072 162.758 24.286 162.794 23.314L162.956 18.4H173.594Z" fill="#3F3D56"/>
</svg>
