<svg width="231" height="51" viewBox="0 0 231 51" fill="none" xmlns="http://www.w3.org/2000/svg">
<path d="M25.5 50L42.8162 42.8162M25.5 50L8.18381 42.8162M25.5 50L19.2447 34.3617M25.5 50L31.7553 34.883M42.8162 42.8162L50 25.5M42.8162 42.8162L34.883 34.883M50 25.5L49.6783 25.6306M50 25.5L42.8608 8.34464M25.5 1L8.39825 8.09484M25.5 1L25.5536 12.3654M25.5 1L42.6018 8.14779M8.18381 42.8162L1 25.5L1.06672 25.3392M8.18381 42.8162L16.8151 34.0241M35.4043 31.7553L49.6783 25.6306M41.6596 17.6809L49.6783 25.6306M16.279 31.6116L1.37527 25.4664M1.06672 25.3392L8.18381 8.18381L8.39825 8.09484M1.06672 25.3392L1.37527 25.4664M8.1302 18.6915L1.37527 25.4664M9.47046 14.349L8.45946 8.45186M8.39825 8.09484L8.45946 8.45186M22.7123 14.349L8.45946 8.45186M28.3414 14.2954L42.8608 8.34464M42.8608 8.34464L42.8162 8.23742L42.6018 8.14779M41.1383 16.117L42.6018 8.14779M20.2872 32.523H29.806M17.4584 30.4858L11.1324 19.1204M19.2276 30.4858L24.4278 17.9945M31.7553 29.6702L26.733 17.7801M33.8404 29.6702L40.617 17.6809M28.395 15.7965L40.2965 16.8855M12.4726 16.7079L22.6586 15.7429" stroke="#3F3D56"/>
<circle cx="9.84571" cy="16.8151" r="2.73414" fill="#3F3D56"/>
<circle cx="25.4999" cy="15.2068" r="3.0558" fill="#3F3D56"/>
<circle cx="18.3162" cy="32.4694" r="2.30525" fill="#3F3D56"/>
<circle cx="32.8983" cy="32.5766" r="3.48468" fill="#3F3D56"/>
<circle cx="41.0471" cy="16.9223" r="1.66193" fill="#3F3D56"/>
<path d="M68.374 15.8C70.0553 15.8 71.52 16.0773 72.768 16.632C74.016 17.1867 74.978 17.984 75.654 19.024C76.33 20.064 76.668 21.2773 76.668 22.664C76.668 24.0507 76.33 25.264 75.654 26.304C74.978 27.344 74.016 28.1413 72.768 28.696C71.52 29.2507 70.0553 29.528 68.374 29.528H65.748V34H59.612V15.8H68.374ZM67.984 24.796C68.816 24.796 69.44 24.614 69.856 24.25C70.272 23.8687 70.48 23.34 70.48 22.664C70.48 21.988 70.272 21.468 69.856 21.104C69.44 20.7227 68.816 20.532 67.984 20.532H65.748V24.796H67.984ZM81.128 15.8H87.16V25.264L93.426 15.8H99.198V34H93.166V24.562L86.926 34H81.128V15.8ZM118.889 20.558H111.063V34H105.031V15.8H118.889V20.558ZM123.525 15.8H129.557V25.264L135.823 15.8H141.595V34H135.563V24.562L129.323 34H123.525V15.8ZM165.368 15.8V34H159.232V27.292H153.564V34H147.428V15.8H153.564V22.248H159.232V15.8H165.368ZM186.7 20.558H181.37V34H175.338V20.558H170.008V15.8H186.7V20.558ZM206.455 29.372V34H191.323V15.8H206.117V20.428H197.355V22.56H205.051V26.98H197.355V29.372H206.455ZM229.302 15.8V34H223.27V20.558H219.11L219.058 22.664C218.989 25.264 218.781 27.396 218.434 29.06C218.088 30.724 217.481 32.024 216.614 32.96C215.748 33.8787 214.508 34.338 212.896 34.338C212.082 34.338 211.215 34.2253 210.296 34L210.608 29.086C210.834 29.138 211.059 29.164 211.284 29.164C211.926 29.164 212.411 28.904 212.74 28.384C213.087 27.864 213.321 27.1707 213.442 26.304C213.564 25.4373 213.65 24.302 213.702 22.898L213.936 15.8H229.302Z" fill="#3F3D56"/>
</svg>
