<svg width="21" height="21" viewBox="0 0 21 21" fill="none" xmlns="http://www.w3.org/2000/svg">
<g clip-path="url(#clip0)">
<path d="M12.4091 1.57952C11.8841 1.57952 11.359 1.7592 10.9772 2.02868V1.13032C10.9772 0.860841 10.7863 0.681152 10.5 0.681152C10.2136 0.681152 10.0227 0.860841 10.0227 1.13032V2.02868C9.64091 1.75917 9.11591 1.57952 8.59091 1.57952C8.30453 1.57952 8.11365 1.7592 8.11365 2.02868C8.11365 2.29819 8.30458 2.47784 8.59091 2.47784C9.40228 2.47784 10.0227 3.06176 10.0227 3.82537C10.0227 4.09488 10.2136 4.27453 10.5 4.27453C10.7863 4.27453 10.9772 4.09484 10.9772 3.82537C10.9772 3.06176 11.5977 2.47784 12.4091 2.47784C12.6954 2.47784 12.8863 2.29815 12.8863 2.02868C12.8863 1.75917 12.6954 1.57952 12.4091 1.57952Z" fill="black"/>
<path d="M18.4704 19.6812L17.5158 18.7829C17.4204 18.693 17.3249 18.6481 17.1818 18.6481H16.1318L13.3636 4.6338C13.3158 4.45411 13.2204 4.36429 13.0295 4.27446C12.8863 4.22953 12.6954 4.27446 12.5522 4.36429L10.9772 5.66688V5.62199C10.9772 5.35248 10.7863 5.17283 10.5 5.17283C10.2137 5.17283 10.0227 5.35252 10.0227 5.62199V5.75675L8.44773 4.40922C8.30455 4.3194 8.16136 4.27446 7.97048 4.3194C7.82729 4.36433 7.6841 4.49908 7.6364 4.67873L4.86822 18.6481H3.81822C3.67503 18.6481 3.57959 18.6931 3.4841 18.7829L2.52955 19.6813C2.33862 19.861 2.33862 20.1304 2.52955 20.3101C2.62495 20.3999 2.72039 20.4448 2.86358 20.4448C3.00677 20.4448 3.10221 20.3999 3.19765 20.3101L4.00902 19.5465H8.59084C8.87721 19.5465 9.06809 19.3668 9.06809 19.0973C9.06809 18.8278 8.87717 18.6481 8.59084 18.6481H6.96809L10.0227 16.9413V19.9957C10.0227 20.2652 10.2136 20.4448 10.4999 20.4448C10.7862 20.4448 10.9772 20.2651 10.9772 19.9957V16.8065L14.0794 18.6481H12.409C12.1226 18.6481 11.9317 18.8278 11.9317 19.0973C11.9317 19.3668 12.1227 19.5465 12.409 19.5465H16.9908L17.8022 20.3101C17.8976 20.3999 18.0408 20.4448 18.1362 20.4448C18.2317 20.4448 18.3749 20.3999 18.4703 20.3101C18.6613 20.1304 18.6613 19.8609 18.4704 19.6812ZM7.58858 9.75444L9.68858 11.1469L6.96814 12.9885L7.58858 9.75444ZM5.87039 18.1989L6.68176 14.2462L9.68858 16.0429L5.87039 18.1989ZM10.0227 15.1445L7.54088 13.6623L10.0227 12.0003V15.1445ZM10.0704 10.2485L7.77947 8.76625L8.44765 5.5771L9.73628 6.65511L8.30447 7.82299C8.11354 8.00268 8.06584 8.27215 8.25672 8.45184C8.44761 8.63153 8.73398 8.67642 8.92491 8.49677L10.0704 7.59841V10.2485H10.0704ZM12.5522 5.57706L13.125 8.40687L11.1204 6.70001L12.5522 5.57706ZM10.9772 7.77806L12.6477 9.21541L11.6454 10.0239C11.4068 10.1587 11.4068 10.4282 11.5499 10.6078C11.6454 10.6977 11.7886 10.7875 11.9318 10.7875C12.0272 10.7875 12.1704 10.7426 12.2181 10.6977L13.3636 9.79933L13.984 12.9885L10.9772 10.9223V7.77806ZM10.9772 15.7285V12.0003L13.5068 13.7072L12.1227 14.6953C11.9318 14.8301 11.8841 15.1445 12.0272 15.3242C12.1227 15.459 12.2659 15.5039 12.4091 15.5039C12.5045 15.5039 12.6 15.459 12.6954 15.4141L14.3182 14.2911L15.0818 18.1989L10.9772 15.7285Z" fill="black"/>
</g>
<defs>
<clipPath id="clip0">
<rect y="0.681152" width="21" height="19.7638" fill="white"/>
</clipPath>
</defs>
</svg>
