<svg width="197" height="22" viewBox="0 0 197 22" fill="none" xmlns="http://www.w3.org/2000/svg">
<path d="M10.97 -1.43051e-06C12.91 -1.43051e-06 14.6 0.319999 16.04 0.959999C17.48 1.6 18.59 2.52 19.37 3.72C20.15 4.92 20.54 6.32 20.54 7.92C20.54 9.52 20.15 10.92 19.37 12.12C18.59 13.32 17.48 14.24 16.04 14.88C14.6 15.52 12.91 15.84 10.97 15.84H7.94V21H0.86V-1.43051e-06H10.97ZM10.52 10.38C11.48 10.38 12.2 10.17 12.68 9.75C13.16 9.31 13.4 8.7 13.4 7.92C13.4 7.14 13.16 6.54 12.68 6.12C12.2 5.68 11.48 5.46 10.52 5.46H7.94V10.38H10.52ZM25.6862 -1.43051e-06H32.6462V10.92L39.8762 -1.43051e-06H46.5362V21H39.5762V10.11L32.3762 21H25.6862V-1.43051e-06ZM69.2563 5.49H60.2262V21H53.2663V-1.43051e-06H69.2563V5.49ZM74.6061 -1.43051e-06H81.5661V10.92L88.7961 -1.43051e-06H95.4561V21H88.4961V10.11L81.2961 21H74.6061V-1.43051e-06ZM122.886 -1.43051e-06V21H115.806V13.26H109.266V21H102.186V-1.43051e-06H109.266V7.44H115.806V-1.43051e-06H122.886ZM147.5 5.49H141.35V21H134.39V5.49H128.24V-1.43051e-06H147.5V5.49ZM170.295 15.66V21H152.835V-1.43051e-06H169.905V5.34H159.795V7.8H168.675V12.9H159.795V15.66H170.295ZM196.657 -1.43051e-06V21H189.697V5.49H184.897L184.837 7.92C184.757 10.92 184.517 13.38 184.117 15.3C183.717 17.22 183.017 18.72 182.017 19.8C181.017 20.86 179.587 21.39 177.727 21.39C176.787 21.39 175.787 21.26 174.727 21L175.087 15.33C175.347 15.39 175.607 15.42 175.867 15.42C176.607 15.42 177.167 15.12 177.547 14.52C177.947 13.92 178.217 13.12 178.357 12.12C178.497 11.12 178.597 9.81 178.657 8.19L178.927 -1.43051e-06H196.657Z" fill="#3F3D56"/>
</svg>
